<svg width="0" height="0" class="hidden">
  <symbol fill="none" xmlns="http://www.w3.org/2000/svg" viewBox="0 0 91 193" id="Frame-0">
    <g clip-path="url(#clip0_145_48231)">
      <path d="M68.5308 151.167L68.8365 151.812C65.4149 142.889 56.8229 135.18 56.0758 125.297C59.4888 127.573 58.487 120.602 58.071 119.354C57.4512 117.495 56.4833 115.771 55.3966 114.15C54.3438 112.579 53.8344 111.62 53.4524 109.794C52.5779 106.356 50.7695 103.197 48.8592 100.243C46.6093 96.7534 43.434 93.4762 42.0501 89.5199C37.0749 93.5442 35.3345 84.4937 35.326 81.3354C35.292 78.0497 34.1204 74.6537 33.9081 71.1133C33.9336 65.2806 35.742 59.9148 36.8287 54.2434C37.4061 51.2125 37.6608 48.0626 37.1259 45.0062C36.6419 42.7988 35.6911 40.829 35.5722 38.5792C35.5722 39.0801 35.5722 39.581 35.5552 40.0819C35.0883 39.0291 34.5534 38.0103 33.993 37C34.4515 37.9849 34.91 38.9697 35.3005 39.98C35.8014 41.2705 35.3769 42.9176 35.2071 44.259C34.7402 47.8419 33.8572 51.3568 33.0931 54.8887C32.3035 58.4885 31.6413 62.1392 31.5903 65.8324C31.5309 69.9501 32.7195 73.7197 34.4175 77.4299C35.1052 78.9327 34.9694 79.1874 34.5279 80.7581C34.0525 82.4815 33.8402 84.2899 34.044 86.0729C34.3411 89.5199 35.5722 92.797 35.9712 96.2355C36.2005 98.0779 34.3751 104.148 32.9148 99.9967C31.879 97.0336 33.1355 93.7055 31.9894 90.7339C31.7431 93.9602 30.6649 96.9996 29.6461 100.056C28.882 102.365 26.5642 107.612 28.3216 109.701C30.2149 111.968 32.5073 114.557 32.6601 117.597C32.8384 121.213 32.7535 124.856 32.0743 128.422C30.7243 135.477 26.4453 141.386 23.8388 147.974C21.3512 154.265 20.0098 161.278 21.8691 167.901C24.9086 178.742 35.2411 186.35 46.499 186.035C57.7229 185.73 67.6224 177.571 70.059 166.61C71.2052 161.457 70.6703 155.98 68.5223 151.158C68.7176 151.566 69.8892 154.232 68.5223 151.158L68.5308 151.167Z" fill="#FF8800"></path>
      <path d="M24.6964 96.0062C24.7728 96.1591 24.8577 96.3034 24.9426 96.4477C26.717 93.4932 27.7019 91.7612 27.1076 88.1783C24.3568 90.0971 23.0493 92.8394 24.6964 96.0062C24.552 95.7261 24.8407 96.2864 24.6964 96.0062Z" fill="#FF8800"></path>
      <path d="M43.1369 77.1498C43.1114 78.8394 43.4765 80.011 44.3255 81.4883C45.0896 79.6374 45.0047 77.2602 43.0435 76.1735C43.1284 76.4961 43.1624 76.8187 43.1284 77.1498C43.1284 77.6932 43.1369 76.8697 43.1284 77.1498H43.1369Z" fill="#FF8800"></path>
      <path d="M67.6988 162.28C66.7309 152.491 53.3166 149.749 52.892 139.425C49.946 145.088 54.1995 150.81 54.1316 156.549C54.1061 158.876 52.6034 161.295 49.9375 160.794C47.7131 160.378 46.2952 157.729 45.3104 155.946C43.2897 159.156 39.8682 161.541 35.9118 160.591C32.1932 159.699 30.3678 155.165 29.6631 151.769C29.332 152.754 29.1452 153.765 29.0943 154.8C28.1688 151.795 28.7292 148.195 29.8923 145.317C30.6904 143.627 30.3168 143.432 30.198 141.624C30.1131 140.333 30.0027 138.975 30.2574 137.693C26.6406 143.992 24.9766 151.107 23.8049 158.23C23.1172 162.382 23.6521 166.703 25.3246 170.566C26.0633 172.264 27.0142 173.869 28.1434 175.329C29.0773 176.535 30.3763 176.569 31.6243 177.452C32.9573 178.386 34.0864 179.676 34.8506 181.103C36.4382 181.986 38.1277 182.682 39.8852 183.149C43.6039 184.151 47.5857 184.151 51.3044 183.149C58.0456 181.349 63.6575 176.297 66.1961 169.794C66.1281 170.049 66.0517 170.303 65.9753 170.558C66.9517 167.926 67.9705 165.124 67.6818 162.28H67.6988ZM52.7732 140.036C52.8666 139.722 52.9005 140.019 52.8666 140.936C52.3572 140.885 52.3232 140.588 52.7732 140.036C52.7732 140.036 52.6883 140.274 52.7732 140.036Z" fill="#FFFF00"></path>
      <path d="M41.4134 118.327C41.1927 117.376 40.9719 116.578 40.7427 116.026C40.5305 115.483 40.3946 115.151 40.3946 115.151C40.3946 115.151 40.3352 115.483 40.2333 116.034C40.1569 116.578 39.9701 117.342 39.7918 118.191C39.3843 119.906 38.6796 121.91 38.0938 123.667C37.958 124.049 37.8306 124.474 37.7202 124.915C37.5844 125.365 37.4401 125.841 37.3127 126.324C37.1854 126.842 37.075 127.403 36.9816 127.929C36.8967 128.464 36.8627 128.99 36.8203 129.474C36.7863 129.958 36.8203 130.442 36.8288 130.85C36.8288 131.257 36.9052 131.631 36.9561 131.928C37.0665 132.531 37.1429 132.879 37.1429 132.879C37.1429 132.879 37.2618 132.548 37.457 131.996C37.6099 131.453 37.9834 130.731 38.3655 129.95C38.5777 129.568 38.807 129.152 39.0447 128.736C39.2994 128.328 39.5456 127.912 39.7918 127.488C40.072 127.029 40.3437 126.571 40.5899 126.112C40.8106 125.62 41.0144 125.136 41.1842 124.669C41.32 124.193 41.4389 123.676 41.5408 123.141C41.6172 122.606 41.6596 122.045 41.6936 121.494C41.6936 120.933 41.6681 120.381 41.6342 119.855C41.5663 119.32 41.4898 118.811 41.4049 118.335L41.4134 118.327Z" fill="#FFFF00"></path>
      <path d="M53.9024 124.61C53.8005 124.253 53.6816 123.752 53.5713 123.192C53.342 122.071 53.1892 120.67 52.7817 119.507C52.5864 118.938 52.2553 118.293 51.8732 117.656C52.0515 117.851 52.2129 118.03 52.3232 118.208C52.6798 118.7 52.8921 118.989 52.8921 118.989C52.8921 118.989 52.8751 118.658 52.8072 118.055C52.7902 117.749 52.7053 117.401 52.6034 117.002C52.5525 116.799 52.493 116.586 52.4336 116.366C52.3487 116.153 52.2638 115.933 52.1789 115.703C51.8223 114.761 51.2704 113.785 50.6592 112.834C50.0479 111.9 49.3602 111 48.7319 110.253C48.4602 109.939 48.1716 109.599 47.8659 109.251C47.5603 108.92 47.2716 108.529 46.9575 108.147C46.3462 107.366 45.7264 106.492 45.1406 105.702C44.5548 104.912 43.9944 104.233 43.5699 103.766C43.1369 103.316 42.8652 103.053 42.8652 103.053C42.8652 103.053 42.9586 103.41 43.1114 103.996C43.2558 104.581 43.4341 105.396 43.6378 106.33C43.8501 107.273 44.1048 108.342 44.5293 109.421C44.75 109.956 44.9878 110.499 45.2934 110.991C45.4462 111.238 45.6075 111.484 45.7604 111.722C45.9217 111.959 46.083 112.146 46.2443 112.341C47.1612 113.428 48.3583 114.413 49.4451 115.338C49.4111 115.686 49.3772 116.111 49.3517 116.569C49.2753 117.809 49.3007 119.38 49.7168 120.577C50.1243 121.774 51.1346 123.115 52.1449 123.981C52.6543 124.414 53.1383 124.728 53.4949 124.924C53.8599 125.11 54.0807 125.204 54.0807 125.204C54.0807 125.204 54.0128 124.983 53.9024 124.618V124.61Z" fill="#FFFF00"></path>
      <path d="M37.3466 117.902C37.3466 117.902 37.2957 117.775 37.2108 117.563C37.1768 117.452 37.1599 117.325 37.1259 117.189C37.1089 117.045 37.1004 116.892 37.0919 116.722C37.0919 116.051 37.2193 115.245 37.2108 114.549C37.2023 113.861 37.0325 112.97 36.8287 112.248C36.7269 111.883 36.608 111.569 36.5146 111.356C36.4127 111.144 36.3448 111.017 36.3448 111.017C36.3448 111.017 36.2259 111.535 36.0137 112.205C35.8099 112.885 35.5722 113.759 35.5807 114.583C35.5807 115.296 35.8609 116.272 36.3024 116.96C36.4127 117.13 36.5401 117.283 36.642 117.41C36.7693 117.529 36.8797 117.631 36.9816 117.707C37.2023 117.843 37.3212 117.902 37.3212 117.902H37.3466Z" fill="#FFFF00"></path>
      <path d="M86.4315 188.752C86.4315 188.752 74.5716 182.916 73.3696 183.049C72.1675 183.183 68.0027 186.596 68.0027 186.596C68.0027 186.596 67.1042 182.289 65.7838 182.307C64.4603 182.325 59.7491 180.539 59.7491 180.539L26.3977 181.211L26.422 183.186L1.27563 187.092L2.0588 191.95L13.4846 192.892L42.4739 191.126L44.3438 185.678L44.4106 190.981L88.9965 191.926L89.6582 187.289L86.7714 187.171L86.4315 188.752Z" fill="url(#paint0_linear_145_48231)"></path>
      <path d="M86.4467 189.833C86.4467 189.833 74.5868 183.997 73.3848 184.13C72.1827 184.267 68.0179 187.677 68.0179 187.677C68.0179 187.677 67.1194 183.37 65.799 183.388C64.4755 183.407 59.7643 181.62 59.7643 181.62L26.8136 181.671L26.8379 183.646L1.29083 188.174L2.074 193.031L13.4998 193.973L42.4891 192.208L44.359 186.759L44.4258 192.062L89.0117 193.007L89.6734 188.37L86.7866 188.252L86.4467 189.833Z" fill="#661C2D"></path>
    </g>
    <defs>
      <linearGradient id="paint0_linear_145_48231" x1="46.6082" y1="171.725" x2="44.6856" y2="197.822" gradientUnits="userSpaceOnUse">
        <stop stop-color="#E9A828"></stop>
        <stop offset="0.99" stop-color="#DA1405"></stop>
      </linearGradient>
      <clipPath id="clip0_145_48231">
        <rect width="91" height="193" fill="white"></rect>
      </clipPath>
    </defs>
  </symbol>
  <symbol fill="none" xmlns="http://www.w3.org/2000/svg" viewBox="0 0 91 193" id="Frame-1">
    <g clip-path="url(#clip0_155_48392)">
      <path d="M71.0206 160.405C71.0121 159.497 69.6877 158.053 69.2971 157.187C68.5924 155.617 68.1339 153.927 67.9047 152.221C67.4632 148.901 68.1509 145.641 67.9302 142.33C67.5311 136.268 64.3304 129.875 60.824 125.035C58.9646 122.471 56.6383 119.466 54.0488 117.606C51.4084 115.722 48.785 113.098 47.2143 110.246C45.4484 107.401 44.1748 103.81 44.2003 100.448C44.2088 98.8008 45.9747 94.4199 47.7577 97.2386C49.5066 88.9014 43.8777 83.1451 40.8467 75.9964C40.5496 78.2802 40.3203 80.8782 39.2081 82.9328C37.3997 86.193 36.4913 80.9971 36.4064 79.6981C36.0753 74.638 36.3724 69.8071 35.3706 64.7894C35.8545 68.9581 34.1395 72.5918 33.6047 76.6416C33.3839 78.3312 33.4264 80.0971 33.9952 81.7187C32.6622 83.5101 31.0491 85.1317 30.285 87.2713C29.0115 90.8286 28.9096 96.5849 31.9151 99.3867C32.5009 100.015 31.7623 103.19 31.8387 104.218C32 106.349 32.416 108.522 33.3075 110.475C33.3415 107.563 34.2075 104.472 35.3706 101.823C36.8818 104.353 37.9091 108.225 37.4082 111.171C37.1875 112.478 35.8545 115.509 34.182 114.567C31.9745 119.254 30.9812 124.382 29.6058 129.348C28.0012 135.139 25.4032 140.615 22.6184 145.921C21.243 148.544 19.8507 151.304 19.6894 154.326C19.5111 157.654 20.8185 160.711 21.2346 163.945C21.6166 166.926 22.3807 169.54 24.1721 171.926C24.8853 172.877 25.4457 173.921 26.1843 174.855C27.2116 175.857 28.6719 176.468 29.5549 177.606C30.3105 178.574 30.0473 179.983 30.9812 180.688C32.034 181.478 33.1462 182.191 34.3008 182.811C36.9073 184.203 39.76 185.12 42.6891 185.51C47.5964 186.164 52.6565 185.341 57.0883 183.142C65.6379 178.905 71.1395 169.931 71.0121 160.388L71.0206 160.405Z" fill="#FF8800"></path>
      <path d="M27.3729 82.695C27.4663 83.1959 27.5767 83.6884 27.704 84.1808C28.6974 81.5149 29.2322 78.9594 29.1813 76.1067C27.7549 78.1104 26.9314 80.2074 27.3729 82.6865C27.5342 83.544 27.3304 82.4743 27.3729 82.6865V82.695Z" fill="#FF8800"></path>
      <path d="M42.0778 67.2431C42.5108 70.1892 43.3598 73.0928 43.9456 76.0134C44.4975 69.9515 42.9183 64.2037 42.5702 58.2012C41.8146 61.2237 41.7042 64.1527 42.0863 67.2431C42.341 68.9666 41.9674 66.2498 42.0863 67.2431H42.0778Z" fill="#FF8800"></path>
      <path d="M37.9431 44.566C37.9771 44.8802 38.0025 45.1943 38.0365 45.5C40.176 39.1833 41.1099 33.4695 39.0213 27C38.427 32.9091 37.4337 38.606 37.9431 44.566C38.0025 45.1519 37.8922 43.9802 37.9431 44.566Z" fill="#FF8800"></path>
      <path d="M67.9896 159.42C67.8368 157.671 66.8774 156.101 66.385 154.411C65.901 152.73 65.6803 151.168 64.7549 149.665C65.0266 145.565 64.4747 141.54 63.1418 137.652C61.9362 134.137 60.2042 130.809 57.8609 127.914C55.6365 125.163 53.2168 122.48 51.5273 119.347C51.7056 123.652 54.3375 126.725 56.2478 130.384C58.0222 133.772 60.2891 138.747 57.2326 142.101C56.6638 142.72 57.0289 143.875 56.9949 144.707C56.9355 146.498 56.5449 148.545 54.9573 149.631C52.1046 151.609 47.9614 150.158 46.0596 147.568C41.0165 148.12 42.4853 154.216 41.2542 157.519C40.6684 159.089 39.7006 160.83 38.0959 161.551C37.595 161.789 34.6574 162.12 34.6489 162.485C34.5725 164.523 33.2311 166.187 31.0152 165.448C29.1813 164.837 27.9078 162.91 27.0673 161.271C25.5221 158.257 25.4881 154.615 25.9805 151.321C24.291 154.649 23.4675 158.376 23.5948 162.112C23.7052 165.338 26.422 168.191 27.5087 171.247C27.5682 171.408 27.8908 171.451 28.0521 171.519C29.02 171.952 29.8011 172.656 30.4293 173.497C31.4991 174.94 32.1698 176.664 32.5179 178.413C33.1547 181.597 40.4732 183.125 43.2494 183.447C57.0289 185.044 69.1697 173.251 67.9811 159.437C67.9472 159.064 68.0321 160.074 67.9811 159.437L67.9896 159.42ZM60.4674 160.779C59.5674 164.888 55.628 167.469 51.5188 167.045C53.1404 166.009 54.4988 164.667 56.0355 163.53C57.5637 162.409 59.2363 161.534 60.5693 160.151C60.5353 160.354 60.5013 160.567 60.4674 160.77C60.3825 161.161 60.5353 160.38 60.4674 160.77V160.779Z" fill="#FFFF00"></path>
      <path d="M34.98 141.939C35.1838 143.79 35.3281 147.195 37.578 147.577C40.9316 148.29 41.5514 143.001 41.2712 140.869C40.8128 137.423 39.2591 134.188 39.5477 130.647C39.76 127.353 40.592 124.059 40.3628 120.748C37.5101 127.413 34.182 134.493 34.9885 141.948C35.014 142.16 34.9631 141.685 34.9885 141.948L34.98 141.939Z" fill="#FFFF00"></path>
      <path d="M86.4315 188.752C86.4315 188.752 74.5716 182.916 73.3696 183.049C72.1675 183.183 68.0027 186.596 68.0027 186.596C68.0027 186.596 67.1042 182.289 65.7838 182.307C64.4603 182.325 59.7491 180.539 59.7491 180.539L26.3977 181.211L26.422 183.186L1.27563 187.092L2.0588 191.95L13.4846 192.892L42.4739 191.126L44.3438 185.678L44.4106 190.981L88.9965 191.926L89.6582 187.289L86.7714 187.171L86.4315 188.752Z" fill="url(#paint0_linear_155_48392)"></path>
      <path d="M86.4467 189.833C86.4467 189.833 74.5868 183.997 73.3848 184.13C72.1827 184.267 68.0179 187.677 68.0179 187.677C68.0179 187.677 67.1194 183.37 65.799 183.388C64.4755 183.407 59.7643 181.62 59.7643 181.62L26.8136 181.671L26.8379 183.646L1.29083 188.174L2.074 193.031L13.4998 193.973L42.4891 192.208L44.359 186.759L44.4258 192.062L89.0117 193.007L89.6734 188.37L86.7866 188.252L86.4467 189.833Z" fill="#661C2D"></path>
    </g>
    <defs>
      <linearGradient id="paint0_linear_155_48392" x1="46.6082" y1="171.725" x2="44.6856" y2="197.822" gradientUnits="userSpaceOnUse">
        <stop stop-color="#E9A828"></stop>
        <stop offset="0.99" stop-color="#DA1405"></stop>
      </linearGradient>
      <clipPath id="clip0_155_48392">
        <rect width="91" height="193" fill="white"></rect>
      </clipPath>
    </defs>
  </symbol>
  <symbol fill="none" xmlns="http://www.w3.org/2000/svg" viewBox="0 0 91 193" id="Frame-2">
    <g clip-path="url(#clip0_155_48396)">
      <path d="M38.0951 95.096C38.1292 94.567 38.0439 94.9168 38.0951 95.096C38.0951 95.0106 38.078 95.0362 38.0951 95.096Z" fill="#FF8800"></path>
      <path d="M69.6867 155.57C67.7764 154.135 67.4113 152.318 67.6576 150.119C66.5538 148.167 65.1699 146.367 63.7012 144.669C62.7672 143.59 62.2833 142.47 62.3088 141.026C62.3258 139.804 62.6059 138.165 63.8625 137.562C64.3719 137.316 63.5399 133.402 63.4295 132.893C62.2324 127.739 60.0504 122.603 57.1638 118.162C55.6865 115.879 54.1498 113.663 52.4008 111.566C50.8641 109.723 49.217 107.261 46.9417 106.429C41.941 104.587 39.7081 100.291 38.2223 95.4599C37.9676 99.7729 37.6705 106.735 32.6528 108.39C29.8681 109.171 29.9699 104.162 30.0464 102.49C30.1737 99.4927 30.4963 96.5127 28.7304 93.8977C28.3483 95.392 27.5078 96.7419 26.8371 98.1173C25.8692 100.104 25.4108 102.388 25.3004 104.587C25.1051 108.356 25.8947 111.999 28.0512 115.131C29.8511 113.17 32.967 114.639 32.5764 117.22C32.3557 120.591 30.6067 123.817 28.9002 126.653C25.156 132.893 21.6242 138.624 20.5035 145.959C19.9177 149.771 20.1214 153.396 20.5035 157.047C20.5205 157.192 21.6496 157.888 21.8109 158.057C22.9656 159.289 23.5939 162.515 20.9619 161.088C21.0723 162.031 21.1742 162.982 21.2676 163.933C21.7855 169.443 24.1967 174.681 28.0257 178.671C35.8876 186.873 48.7501 188.622 58.5052 182.798C67.8189 177.228 72.3866 165.962 69.8141 155.57H69.7037H69.6867Z" fill="#FF8800"></path>
      <path d="M35.6923 83.7094C35.7857 83.1831 37.1186 84.1764 37.2799 84.5839C37.696 85.5942 37.8573 86.698 37.9931 87.7762C38.2903 90.128 38.2648 92.4712 38.112 94.823C38.7912 93.94 39.3855 92.9722 39.7676 91.9194C41.7543 95.4683 47.2728 95.2815 47.8841 90.8751C48.4954 86.4263 45.5493 82.4529 43.5287 78.7682C40.1072 72.528 38.8591 65.6849 38.3921 58.6296C35.7857 66.6952 37.1696 75.4571 35.6923 83.7094C35.7093 83.633 35.6923 83.7434 35.6923 83.7094Z" fill="#FF8800"></path>
      <path d="M34.4358 63.5114C34.5037 63.7831 34.5716 64.0548 34.648 64.335C34.9791 58.8843 35.4376 53.4507 35.7347 48C33.7141 53.1026 33.1198 58.1542 34.4442 63.5199C34.5716 64.0293 34.3169 63.002 34.4442 63.5199L34.4358 63.5114Z" fill="#FF8800"></path>
      <path d="M26.3447 73.742C26.472 75.491 26.7776 76.9937 27.1682 78.7002C28.5776 76.6117 28.1531 74.2259 26.2852 72.5958C26.3022 72.9779 26.3277 73.3599 26.3447 73.742C26.3871 74.3703 26.3447 73.4194 26.3447 73.742Z" fill="#FF8800"></path>
      <path d="M31.617 94.5768C31.6765 94.6957 31.7359 94.823 31.7953 94.9419C32.2283 92.293 33.0519 90.0516 32.1859 87.3602C31.2519 89.7714 30.4199 92.0807 31.617 94.5768C31.5067 94.3476 31.7274 94.8061 31.617 94.5768Z" fill="#FF8800"></path>
      <path d="M67.8444 160.817C67.8019 160.112 67.4368 161.165 67.267 161.368C66.6048 162.124 65.7813 162.201 65.0766 161.428C63.421 159.552 64.6351 156.656 64.5672 154.381C64.4823 151.707 63.7861 148.761 62.1135 147.114C61.5023 146.426 60.2967 146.01 60.5089 144.668C60.7382 143.412 60.5938 142.053 60.4155 140.797C59.991 137.817 59.0486 134.939 57.9534 132.146C55.6016 126.551 52.7999 121.499 51.1698 115.59C52.1631 116.447 53.1055 117.347 53.9376 118.366C53.2074 114.461 50.2274 112.262 46.653 111.082C47.7653 112.236 50.3547 113.994 50.584 115.547C51.017 118.468 51.5179 121.439 52.3754 124.267C53.8527 129.123 55.8818 133.878 56.5271 138.946C56.7308 140.508 56.7648 141.731 55.763 143.03C55.6781 143.132 53.1395 141.96 52.9273 141.816C52.0782 141.272 51.815 140.33 51.433 139.464C51.1019 138.725 50.7453 137.995 50.4312 137.24C49.7944 135.686 49.3104 134.081 49.1661 132.409C48.6737 126.737 50.4057 121.482 45.1418 117.509C46.8993 121.626 45.3031 123.596 42.5693 126.635C39.3091 130.15 41.143 135.525 38.2988 139.175C36.5328 141.553 31.201 145.118 28.1531 143.106C25.5211 141.366 30.6577 134.718 31.0058 132.536C28.1361 136.458 24.6042 139.116 23.3477 144.1C22.7703 146.417 22.5666 148.897 22.9147 151.265C23.11 152.598 23.4496 153.94 24.0269 155.162C24.1033 155.324 24.7995 156.283 24.7401 156.487C28.0088 153.787 32.3133 156.325 32.967 160.256C33.9943 166.403 26.2768 166.284 23.4071 162.634C23.6618 174.817 34.1556 184.75 46.3304 184.377C58.692 183.995 68.583 173.127 67.8359 160.791L67.8444 160.817ZM55.2026 164.96C54.2262 167.065 52.3584 168.602 50.134 169.205C49.4378 169.392 48.6737 169.434 47.952 169.383C47.0351 169.324 46.0163 169.145 45.1503 168.823C45.1163 168.814 45.0824 168.797 45.0569 168.789C43.8598 168.339 42.9089 167.498 41.8816 166.734C40.8713 165.987 39.6572 163.423 39.6572 163.423C39.6572 163.423 40.9901 163.661 41.4486 163.78C42.2382 163.983 43.0787 164.034 43.8853 164C45.5833 163.924 47.2304 163.44 48.801 162.812C51.2207 161.844 52.6556 160.503 54.0904 158.439C54.5658 157.752 55.4488 156.521 55.3214 156.054C55.3214 156.054 55.4488 156.512 55.6101 157.276C55.7629 158.04 56.0007 159.11 56.0431 160.426C56.0856 161.725 55.9667 163.338 55.2111 164.951L55.2026 164.96Z" fill="#FFFF00"></path>
      <path d="M86.4315 188.752C86.4315 188.752 74.5716 182.916 73.3696 183.049C72.1675 183.183 68.0027 186.596 68.0027 186.596C68.0027 186.596 67.1042 182.289 65.7838 182.307C64.4603 182.325 59.7491 180.539 59.7491 180.539L26.3977 181.211L26.422 183.186L1.27563 187.092L2.0588 191.95L13.4846 192.892L42.4739 191.126L44.3438 185.678L44.4106 190.981L88.9965 191.926L89.6582 187.289L86.7714 187.171L86.4315 188.752Z" fill="url(#paint0_linear_155_48396)"></path>
      <path d="M86.4467 189.833C86.4467 189.833 74.5868 183.997 73.3848 184.13C72.1827 184.267 68.0179 187.677 68.0179 187.677C68.0179 187.677 67.1194 183.37 65.799 183.388C64.4755 183.407 59.7643 181.62 59.7643 181.62L26.8136 181.671L26.8379 183.646L1.29083 188.174L2.074 193.031L13.4998 193.973L42.4891 192.208L44.359 186.759L44.4258 192.062L89.0117 193.007L89.6734 188.37L86.7866 188.252L86.4467 189.833Z" fill="#661C2D"></path>
    </g>
    <defs>
      <linearGradient id="paint0_linear_155_48396" x1="46.6082" y1="171.725" x2="44.6856" y2="197.822" gradientUnits="userSpaceOnUse">
        <stop stop-color="#E9A828"></stop>
        <stop offset="0.99" stop-color="#DA1405"></stop>
      </linearGradient>
      <clipPath id="clip0_155_48396">
        <rect width="91" height="193" fill="white"></rect>
      </clipPath>
    </defs>
  </symbol>
  <symbol fill="none" xmlns="http://www.w3.org/2000/svg" viewBox="0 0 91 193" id="Frame-3">
    <g clip-path="url(#clip0_155_48400)">
      <path d="M26.9466 87.2877C27.0485 88.2386 27.1165 88.8668 27.1165 88.8668C27.1165 88.8668 27.2947 88.247 27.5664 87.3131C27.8381 86.3792 28.1862 85.1736 28.5852 83.9001C29.3578 81.3785 30.1474 78.7636 30.1814 78.3985C30.2578 77.6684 29.4343 76.9807 28.339 76.8618C27.2438 76.7429 26.2929 77.2354 26.2165 77.974C26.1741 78.3391 26.3863 81.0644 26.5985 83.6963C26.7004 85.0038 26.8448 86.3368 26.9466 87.2877Z" fill="#FF8800"></path>
      <path d="M38.3828 56.927C38.0517 56.095 37.814 55.3224 37.6697 54.7535C37.5338 54.1762 37.4574 53.8281 37.4574 53.8281C37.4574 53.8281 37.398 54.1762 37.2876 54.7451C37.2027 55.3224 37.1263 56.1544 37.1772 57.1138C37.2451 59.0411 37.8819 61.3843 38.5866 63.0824C39.2998 64.7974 40.4205 66.7076 41.0657 68.3717C41.227 68.7877 41.3968 69.1783 41.4987 69.5433C41.6176 69.9084 41.7364 70.231 41.7958 70.5027C41.9402 71.0631 42.0251 71.3942 42.0251 71.3942C42.0251 71.3942 42.0845 71.0715 42.1779 70.5197C42.2373 70.2395 42.2543 69.9084 42.2713 69.5179C42.3053 69.1273 42.3053 68.6943 42.2713 68.2274C42.2119 66.3426 41.6006 63.9908 40.8195 62.1399C40.1403 60.5014 39.0111 58.5911 38.3659 56.91L38.3828 56.927Z" fill="#FF8800"></path>
      <path d="M69.8896 157.509C70.1274 156.83 69.7878 155.879 69.6264 155.251C69.3972 154.376 69.2019 153.51 68.8963 152.661C68.285 150.997 67.5633 149.384 66.6379 147.873C66.12 147.024 65.5512 146.209 64.9399 145.428C64.5154 144.884 64.0739 144.367 63.6069 143.866C62.6815 143.152 61.773 142.363 60.992 141.565C60.8137 141.387 60.6439 141.2 60.4656 140.996C59.3788 139.756 58.3431 138.092 58.1478 136.471C58.0884 136.012 58.0204 135.571 58.0629 135.172C58.0798 134.841 58.0798 134.544 58.1223 134.28C58.1308 134.229 58.1308 134.161 58.1478 134.119C58.1648 134.026 58.1818 133.932 58.1987 133.847C58.1818 133.805 58.1563 133.771 58.1393 133.728C57.7912 132.998 57.4856 132.175 57.3073 131.249C57.0441 130.146 56.9761 128.915 56.8573 127.641C56.7299 126.368 56.696 125.026 56.5346 123.668C56.4328 122.309 56.1611 120.934 55.8554 119.584C55.5328 118.234 55.0234 116.952 54.4716 115.746C53.9876 114.685 53.3848 113.598 52.7311 112.495C52.4085 111.943 52.0604 111.391 51.7038 110.831C51.3302 110.287 50.9566 109.735 50.5831 109.184C49.0464 107.01 47.3653 104.922 45.922 103.028C44.4532 101.152 43.2901 99.4029 42.4835 98.1379C42.4071 98.0021 42.3307 97.8662 42.2543 97.7389C42.2118 97.6625 42.1694 97.5945 42.1354 97.5266C42.11 97.5436 42.0845 97.5691 42.059 97.586C41.7194 97.8492 41.3204 98.1039 40.8449 98.2822C40.395 98.452 39.8771 98.4775 39.4356 98.2483C38.9856 98.036 38.6375 97.586 38.3488 97.1276C38.1111 96.6436 38.0177 96.1257 38.1451 95.6248C38.2555 95.1154 38.5866 94.6654 38.9347 94.2749C40.1742 92.8995 42.908 91.7618 44.7334 92.9674C45.6164 93.4768 46.1343 94.2919 46.4399 94.8777C46.5588 95.0984 46.6437 95.2852 46.7116 95.438C46.7286 95.472 46.7455 95.5145 46.7625 95.5484C46.7625 95.523 46.771 95.4975 46.7795 95.4635C46.7965 95.3701 46.822 95.2598 46.8475 95.1409C46.9324 94.6909 47.0512 94.0457 47.0936 93.29C47.1531 92.5344 47.1446 91.6515 47.0427 90.7515C46.9408 89.8516 46.6946 88.9431 46.372 88.1196C45.7947 86.6763 44.4702 85.0461 43.0523 84.282C42.7127 84.0783 42.3816 83.9 42.0675 83.7811C41.9571 83.7387 41.8638 83.6962 41.7704 83.6538C41.694 83.6198 41.6175 83.5943 41.5411 83.5689C41.5241 83.6283 41.5072 83.6792 41.4902 83.7387C41.4223 83.9509 41.3289 84.1802 41.2185 84.4094C40.9723 84.9273 40.5818 85.4791 40.1233 85.9461C39.6648 86.4046 39.096 86.7781 38.5611 86.8715C38.0941 86.9649 37.5592 86.7866 37.1093 86.3791C36.7612 85.9885 36.5235 85.2924 36.4046 84.715C36.3452 84.4094 36.2942 84.1207 36.2603 83.8575C36.2433 83.7132 36.2348 83.5858 36.2263 83.4585C36.1584 83.5349 36.0905 83.6198 36.0226 83.6962C35.8273 83.9255 35.6405 84.1717 35.4622 84.4773C35.0037 85.2499 34.6472 86.2857 34.7066 87.3894C34.7406 88.4931 35.1226 89.5289 35.3603 90.4459C35.5726 91.2439 35.7169 92.1948 35.3688 92.9759C35.182 93.341 34.8594 93.5957 34.4434 93.6636C34.0359 93.74 33.5859 93.6381 33.2293 93.4344C32.7878 93.2136 32.4907 92.8486 32.3039 92.4835C32.2784 92.4325 32.2529 92.3816 32.2359 92.3307C32.1935 92.4156 32.1426 92.5005 32.0916 92.5854C31.6162 93.4514 31.0388 94.6145 30.5294 95.9899C29.3663 99.0463 28.5937 103.122 28.4578 106.45C28.3729 108.114 28.3984 109.973 28.5428 111.815C28.6192 112.732 28.7126 113.658 28.8569 114.541C29.0097 115.415 29.1541 116.273 29.2984 117.071C29.4427 117.945 29.604 118.752 29.7653 119.474C29.7993 119.618 29.8248 119.754 29.8587 119.89C29.9266 119.966 30.0031 120.042 30.071 120.127C30.088 120.144 30.1049 120.161 30.1219 120.178C30.6992 120.773 31.2172 121.605 31.6332 122.267C31.9388 122.861 32.2954 123.583 32.4991 124.279C32.4737 124.568 32.4312 124.865 32.3803 125.162C32.2954 125.748 32.1341 126.334 31.9898 126.945C31.786 127.539 31.6417 128.167 31.37 128.77C31.1238 129.382 30.8776 130.01 30.6229 130.638C30.3342 131.258 30.0455 131.886 29.7483 132.514C28.5343 135.019 27.1249 137.532 25.8344 139.909C24.7137 141.998 23.4742 144.443 22.4299 146.999C22.2516 147.448 22.0902 147.907 21.9289 148.365C21.8865 148.501 22.3705 149.206 22.4469 149.367C22.5997 149.715 22.727 150.072 22.8289 150.437C23.0242 151.142 23.1431 151.889 23.0921 152.627C22.9902 154.207 22.3874 156.372 20.3753 156.1C20.2989 157.238 20.2734 158.299 20.2903 159.233C20.2564 159.751 20.2394 160.269 20.2394 160.786C20.2394 174.574 31.4549 185.781 45.2343 185.781C46.4484 185.781 47.7304 185.527 48.9275 185.357C50.1331 185.179 51.3302 184.949 52.5103 184.635C54.8281 184.007 57.0271 183.005 59.0307 181.681C61.0344 180.348 62.8598 178.726 64.4135 176.892C65.9587 175.067 67.2067 173.012 68.0982 170.788C69.0151 168.487 69.533 166.067 69.983 163.648C70.0255 163.401 70.1868 163.002 70.1443 162.756C70.0509 162.153 69.4821 161.678 69.2953 161.092C69.1085 160.515 69.0321 159.92 69.1085 159.318C69.1934 158.655 69.4821 158.214 69.7793 157.645C69.8047 157.594 69.8302 157.543 69.8471 157.492L69.8896 157.509Z" fill="#FF8800"></path>
      <path d="M40.2337 54.2781C40.5563 54.5413 40.811 54.7365 41.0063 54.8469C41.1931 54.9573 41.295 55.0252 41.295 55.0252C41.295 55.0252 41.2271 54.9318 41.1082 54.7535C40.9808 54.5922 40.828 54.3205 40.6582 53.9979C40.3186 53.3357 40.0129 52.3508 39.8686 51.2046C39.5375 48.9123 39.8347 46.0087 40.013 43.6824C40.1743 41.3476 40.3101 38.3931 40.7346 36.0413C40.9299 34.8697 41.1846 33.8424 41.4393 33.1292C41.5667 32.7726 41.677 32.4839 41.7619 32.2972C41.8468 32.1019 41.8978 32 41.8978 32C41.8978 32 41.8129 32.0679 41.6601 32.2038C41.4988 32.3311 41.295 32.5434 41.0318 32.8235C40.5224 33.3839 39.8687 34.2499 39.2659 35.3451C38.0263 37.5271 36.982 40.6175 36.7783 43.4532C36.583 45.9323 37.0924 49.2349 38.3065 51.6291C38.8923 52.8263 39.6224 53.7602 40.2507 54.295L40.2337 54.2781Z" fill="#FF8800"></path>
      <path d="M64.354 163.885C62.6051 165.252 60.5674 166.22 58.4534 166.874C54.913 167.969 48.2058 167.859 46.805 163.401C45.3871 158.851 50.9057 155.998 54.4206 155.225C58.5043 154.334 62.9362 154.708 66.7567 156.44C66.4426 155.073 66.0011 153.731 65.4323 152.441C64.6767 150.717 64.1418 150.641 62.4862 149.885C62.4353 149.86 62.3928 149.834 62.3504 149.817C59.0987 148.297 56.5771 145.852 54.8281 142.728C54.8026 142.677 54.7687 142.635 54.7432 142.584C54.6668 142.439 54.5904 142.286 54.514 142.134C54.463 142.032 54.4121 141.938 54.3611 141.837C53.648 140.436 53.0622 138.975 52.5018 137.49C52.4169 137.26 52.332 137.031 52.2471 136.802C50.8208 132.973 49.5048 129.076 46.7455 126.002C47.1616 129.509 46.2786 133.075 44.0796 135.842C43.9268 136.038 43.7655 136.233 43.5957 136.42C43.5787 136.437 43.5617 136.454 43.5448 136.471C42.908 137.167 42.1524 137.846 41.2439 138.16C41.1675 138.186 41.2355 139.672 41.2355 139.502C41.2015 141.743 40.7006 144.078 39.4695 145.98C36.6593 150.403 32.7453 147.279 32.601 143.017C32.567 141.972 32.635 140.937 32.7369 139.892C32.7623 139.655 32.7878 139.408 32.8132 139.171C33.1359 136.309 33.6198 133.457 32.9151 130.613C32.2274 135.078 29.6295 138.907 27.8041 142.991C27.5834 143.484 27.3796 143.985 27.1843 144.485C26.8702 145.309 26.59 146.141 26.3778 147.007C26.2165 147.661 25.6816 149.24 26.2759 149.715C27.456 150.675 27.9993 152.177 28.0333 153.663C28.0842 156.193 26.1146 160.133 23.0666 158.511C21.4195 171.093 31.0643 182.818 43.74 183.599C56.2714 184.372 67.1558 174.184 67.3426 161.72C67.2492 161.618 64.9144 163.469 64.3965 163.877L64.354 163.885Z" fill="#FFFF00"></path>
      <path d="M36.2093 115.577C35.9716 114.55 36.6932 117.716 36.2093 115.577V115.577Z" fill="#FFFF00"></path>
      <path d="M40.3186 127.514C41.9147 122.912 40.5733 118.03 40.6667 113.31C40.6667 112.911 40.9638 111.816 40.6412 111.578C39.6479 110.848 39.3932 109.32 39.2403 108.19C39.0281 106.637 38.6121 103.75 39.996 102.587C37.4574 102.451 37.0669 106.042 37.1093 107.834C37.1093 108.437 38.0008 113.692 35.8528 112.775C35.8528 113.709 35.9971 114.668 36.2094 115.585C37.1433 119.711 39.6394 123.328 40.3186 127.522V127.514Z" fill="#FFFF00"></path>
      <path d="M46.304 111.323C45.905 110.287 46.6521 112.367 46.304 111.323V111.323Z" fill="#FFFF00"></path>
      <path d="M48.0869 116.621C48.919 112.384 47.3907 109.073 44.6399 105.889C45.1239 107.706 45.6248 109.557 46.304 111.315C46.8983 113.089 47.5775 114.804 48.0869 116.612V116.621Z" fill="#FFFF00"></path>
      <path d="M56.1356 142.125C56.1356 142.125 56.1356 142.151 56.1356 142.159C56.1356 142.151 56.1356 142.134 56.1356 142.125C56.3054 143.263 56.8318 144.392 57.6129 145.267C58.1647 145.886 58.8609 146.353 59.642 146.617C59.6675 146.625 59.7014 146.642 59.7269 146.651C59.8797 146.693 60.0156 146.736 60.1344 146.761C60.3467 146.803 60.5589 146.837 60.7797 146.846C60.525 146.549 60.3212 146.226 60.1429 145.895C59.7778 145.216 59.5316 144.469 59.2345 143.738C58.5637 142.1 57.2732 140.716 56.0507 139.459C55.9743 140.351 55.9913 141.242 56.1271 142.125C56.1101 142.04 56.0931 141.913 56.1271 142.125H56.1356Z" fill="#FFFF00"></path>
      <path d="M86.4315 188.752C86.4315 188.752 74.5716 182.916 73.3696 183.049C72.1675 183.183 68.0027 186.596 68.0027 186.596C68.0027 186.596 67.1042 182.289 65.7838 182.307C64.4603 182.325 59.7491 180.539 59.7491 180.539L26.3977 181.211L26.422 183.186L1.27563 187.092L2.0588 191.95L13.4846 192.892L42.4739 191.126L44.3438 185.678L44.4106 190.981L88.9965 191.926L89.6582 187.289L86.7714 187.171L86.4315 188.752Z" fill="url(#paint0_linear_155_48400)"></path>
      <path d="M86.4467 189.833C86.4467 189.833 74.5868 183.997 73.3848 184.13C72.1827 184.267 68.0179 187.677 68.0179 187.677C68.0179 187.677 67.1194 183.37 65.799 183.388C64.4755 183.407 59.7643 181.62 59.7643 181.62L26.8136 181.671L26.8379 183.646L1.29083 188.174L2.074 193.031L13.4998 193.973L42.4891 192.208L44.359 186.759L44.4258 192.062L89.0117 193.007L89.6734 188.37L86.7866 188.252L86.4467 189.833Z" fill="#661C2D"></path>
    </g>
    <defs>
      <linearGradient id="paint0_linear_155_48400" x1="46.6082" y1="171.725" x2="44.6856" y2="197.822" gradientUnits="userSpaceOnUse">
        <stop stop-color="#E9A828"></stop>
        <stop offset="0.99" stop-color="#DA1405"></stop>
      </linearGradient>
      <clipPath id="clip0_155_48400">
        <rect width="91" height="193" fill="white"></rect>
      </clipPath>
    </defs>
  </symbol>
  <symbol fill="none" xmlns="http://www.w3.org/2000/svg" viewBox="0 0 91 193" id="Frame-4">
    <g clip-path="url(#clip0_155_48448)">
      <path d="M69.68 162.514C69.6206 162.285 69.5441 162.047 69.4592 161.809C68.8989 160.205 67.931 158.464 67.7103 156.944C67.6593 156.062 67.8461 155.187 68.3555 154.924C68.4489 154.873 68.5423 154.847 68.6272 154.839C68.6272 154.813 68.6102 154.779 68.6017 154.754C68.6527 154.754 68.7036 154.754 68.7546 154.754C68.7546 154.779 68.7546 154.805 68.7546 154.805C68.7546 154.805 68.7546 154.788 68.763 154.754C68.78 154.635 68.8479 154.296 68.9413 153.786C68.9413 153.786 68.9413 153.778 68.9413 153.769C69.0178 153.455 69.0262 153.073 69.0517 152.632C69.0517 152.411 69.0857 152.182 69.0772 151.935C69.0602 151.689 69.0432 151.434 69.0262 151.18C68.9159 149.049 67.7867 146.561 66.632 144.787C65.4774 142.995 63.8048 141.017 62.6077 139.344C62.0219 138.538 61.5549 137.808 61.2323 137.264C61.2238 137.247 61.2068 137.222 61.1984 137.205C61.1899 137.188 61.1814 137.171 61.1729 137.154C61.1559 137.213 61.1389 137.273 61.1219 137.332C61.0965 137.409 61.071 137.494 61.054 137.579C60.9776 137.833 60.9012 138.122 60.8842 138.436C60.8503 138.75 60.7993 139.09 60.8248 139.455C60.8248 139.82 60.8418 140.202 60.9012 140.593C60.9437 140.992 61.0116 141.399 61.088 141.815C61.105 141.9 61.1219 141.985 61.1304 142.07C61.1899 142.375 61.2408 142.681 61.3002 142.995C61.3851 143.462 61.4616 143.946 61.5295 144.43C61.5804 144.88 61.6144 145.338 61.6059 145.788C61.5889 146.23 61.5295 146.688 61.3427 147.028C61.1729 147.376 60.8587 147.529 60.4852 147.546C60.1116 147.546 59.7211 147.402 59.3815 147.181C58.7023 146.714 58.1844 145.984 57.7853 145.279C57.3778 144.566 57.0297 143.742 56.758 142.885C56.6222 142.46 56.5373 141.993 56.4269 141.543L56.2656 140.856C56.2147 140.626 56.1977 140.389 56.1637 140.16C56.1213 139.913 56.0873 139.676 56.0618 139.429C56.0364 139.2 56.0109 138.962 55.9939 138.733C55.9515 138.275 55.926 137.825 55.9005 137.383C55.892 136.466 55.8581 135.575 55.9005 134.726C55.9175 134.055 55.9515 133.418 55.9854 132.833C55.9854 132.765 55.9939 132.688 56.0024 132.62C55.926 132.51 55.8496 132.391 55.7647 132.264C55.2043 131.355 54.6949 130.107 54.4063 128.647C54.0242 126.847 53.9393 124.767 53.9308 122.67C53.9308 121.626 53.9478 120.564 53.8629 119.512C53.778 118.459 53.5403 117.423 53.1497 116.523C52.4281 114.681 51.0017 113.034 49.9744 111.259C49.8386 111.038 49.7197 110.818 49.6094 110.588C49.499 110.359 49.3716 110.138 49.2952 109.901C49.2103 109.663 49.1084 109.434 49.049 109.196C48.9726 108.958 48.9132 108.721 48.8707 108.474C48.6754 107.507 48.6669 106.53 48.7434 105.613C48.7603 105.41 48.7858 105.206 48.8113 105.01C48.8452 104.73 48.8877 104.459 48.9301 104.195C48.8622 104.009 48.7943 103.813 48.7349 103.61C48.5651 103.066 48.4207 102.497 48.2509 101.903C47.9368 100.774 47.5972 99.6107 47.1812 98.541C46.8246 97.6071 46.3237 96.5458 45.6614 95.5694C45.0077 94.5931 44.1672 93.7101 43.2672 93.1413C42.5541 92.6573 41.8154 92.4451 41.2211 92.3177C41.1447 92.3008 41.0683 92.2838 41.0004 92.2668C40.9834 92.3177 40.9664 92.3602 40.9494 92.4111C40.7796 92.8526 40.5844 93.3535 40.3381 93.8714C39.8882 94.8393 39.2344 95.8921 38.275 96.6137C37.3411 97.3184 36.0167 97.6495 35.1592 97.0637C34.9639 96.9533 34.7941 96.7835 34.6328 96.5967C34.5564 96.5033 34.4885 96.3845 34.412 96.2826C34.3356 96.1722 34.2592 96.0704 34.2083 95.943C33.9451 95.4761 33.8602 94.8987 33.8432 94.3299C33.8347 93.1583 34.2762 91.9696 34.7516 90.9763C35.2356 89.9745 35.7874 89.1509 36.195 88.5736C36.3902 88.3019 36.5431 88.0981 36.6619 87.9453C36.7723 87.8095 36.8317 87.7246 36.8572 87.6991L36.8827 87.6736C36.8827 87.6736 36.8657 87.6906 36.8572 87.6991C36.7723 87.5208 36.6959 87.3256 36.6195 87.1218C36.0931 85.8058 36.0337 83.9804 35.9488 82.3588C35.8723 80.941 35.7195 79.0477 35.2526 77.5789C35.1167 77.1459 34.9554 76.7554 34.8026 76.4242C34.7601 76.3393 34.7262 76.2629 34.6922 76.1865C34.6752 76.3393 34.6583 76.4922 34.6328 76.6535C34.5054 77.6298 34.2592 78.8779 33.7923 80.2278C33.2489 81.7985 32.4763 83.5135 31.7461 85.2625C31.0075 87.0114 30.3962 88.8623 30.0566 90.5518C29.717 92.2498 29.5727 94.2025 29.7934 96.1298C29.8444 96.6137 29.8953 97.0892 30.0227 97.5561C30.15 98.0231 30.2009 98.4985 30.3877 98.9315C30.4641 99.1523 30.549 99.373 30.6255 99.5853C30.7104 99.7975 30.8207 100.001 30.9141 100.205C31.0924 100.621 31.3216 100.995 31.5339 101.36C31.7631 101.742 31.9924 102.09 32.2301 102.429C32.2895 102.54 32.3405 102.642 32.3999 102.752C32.9517 103.796 33.5206 105.027 33.58 106.301C33.6225 107.625 33.58 108.975 33.5545 110.189C33.5376 111.404 33.5206 112.77 33.614 114.137C33.631 114.477 33.6734 114.817 33.7074 115.156C33.7413 115.496 33.7753 115.827 33.8432 116.158C33.9451 116.812 34.0639 117.448 34.2507 118.034C34.5224 118.985 34.9299 119.775 35.3205 120.352C35.2526 120.471 35.2186 120.539 35.2186 120.539C35.2186 120.539 35.2611 120.479 35.329 120.369C35.3629 120.327 35.3969 120.267 35.4393 120.208C35.4393 120.199 35.4563 120.182 35.4648 120.174C35.6261 119.936 35.8554 119.588 36.178 119.18C36.3393 118.985 36.5261 118.764 36.7553 118.561C36.9761 118.365 37.2477 118.162 37.5619 118.111C37.8675 118.06 38.1901 118.187 38.4364 118.442C38.6826 118.697 38.8778 119.036 39.0392 119.41C39.3533 120.157 39.5571 121.014 39.7099 121.906C39.8627 122.814 40.007 123.714 39.9816 124.631C39.9646 125.548 39.8372 126.465 39.642 127.339C39.5486 127.772 39.4212 128.205 39.2939 128.63C39.175 129.063 39.0561 129.47 38.9203 129.87C38.6571 130.659 38.3345 131.483 37.927 132.272C37.5194 133.062 37.0015 133.834 36.3223 134.352C35.9742 134.59 35.6007 134.743 35.1846 134.785C34.7686 134.819 34.3866 134.743 34.1064 134.48C33.8262 134.225 33.631 133.843 33.5206 133.444C33.4017 133.045 33.3423 132.629 33.3083 132.221C33.1895 130.583 33.3847 129.122 33.5206 128.087C33.5376 127.959 33.5545 127.832 33.5715 127.713C33.5715 127.662 33.5885 127.62 33.5885 127.577C33.5461 127.671 33.4866 127.764 33.4272 127.874C33.2744 128.146 33.0706 128.46 32.8159 128.817C32.0942 129.886 30.7698 131.194 29.8359 133.121C28.9104 135.048 28.5793 137.451 27.7303 139.582C26.8389 141.696 25.2342 143.445 23.9607 145.169C23.6466 145.61 23.307 146.06 23.0608 146.578C22.8061 147.087 22.4665 147.58 22.2882 148.149C21.8297 149.244 21.5241 150.424 21.3288 151.604C21.176 152.53 21.0911 153.455 21.0571 154.372C20.4458 156.537 20.1062 158.812 20.1062 161.173C20.1062 168.228 23.0523 174.612 27.7728 179.163C28.1888 179.562 28.6133 179.953 29.0633 180.326C29.1991 180.377 29.335 180.437 29.4708 180.488C29.9038 180.657 30.3453 180.793 30.7868 180.929C30.9566 180.98 31.1264 181.031 31.2962 181.082C31.899 181.226 32.4848 181.371 33.0366 181.515C34.1064 181.778 35.2526 182.228 36.2459 182.941C36.9081 183.383 37.477 183.943 37.9694 184.529C38.1901 184.792 38.3939 185.055 38.5807 185.318C38.776 185.369 38.9627 185.42 39.158 185.471C41.0683 185.938 43.055 186.193 45.1096 186.193C47.4868 186.193 49.7876 185.853 51.9611 185.234C52.8356 183.629 54.593 183.187 56.1298 183.62C62.6926 180.377 67.6424 174.341 69.3998 167.065C69.663 165.961 69.8668 164.832 69.9771 163.677C69.9177 163.278 69.8413 162.879 69.7139 162.506L69.68 162.514Z" fill="#FF8800"></path>
      <path d="M37.6043 76.2205C38.0373 77.1374 38.4533 78.1987 38.8014 79.26C39.1071 80.3382 39.3533 81.4419 39.3872 82.4438C39.4042 82.69 39.4127 82.9362 39.4297 83.1654C39.4212 83.3947 39.4042 83.6239 39.3957 83.8361C39.3872 84.0484 39.3788 84.2522 39.3703 84.4389C39.3703 84.4984 39.3533 84.5578 39.3533 84.6087C39.3363 84.7021 39.3278 84.7955 39.3108 84.8889C39.3618 84.8635 39.4212 84.8295 39.4806 84.7955C39.7184 84.6597 39.9731 84.4729 40.2193 84.2182C40.6098 83.7852 40.9324 83.2333 41.2636 82.7239C41.5862 82.206 41.9513 81.7815 42.3248 81.4334C42.6899 81.0853 43.1484 80.7882 43.6238 80.7712C43.8615 80.7797 44.1078 80.8476 44.337 80.9835C44.5577 81.1278 44.77 81.2976 44.9398 81.4929C45.0247 81.5863 45.1011 81.6796 45.169 81.773C45.2115 81.824 45.2454 81.8749 45.2794 81.9259C45.3303 81.7985 45.3728 81.6627 45.4067 81.5098C45.4322 81.4165 45.4577 81.3231 45.4747 81.2212C45.5171 80.9071 45.6275 80.5505 45.6275 80.1599C45.7548 78.5893 45.1945 76.5856 44.4304 75.0234C44.0993 74.3272 43.6832 73.5546 43.1823 72.8245C42.6899 72.0943 42.1805 71.3896 41.79 70.7274C41.6117 70.4472 41.4758 70.167 41.357 69.9038C41.2721 69.7256 41.2041 69.5473 41.1447 69.386C41.1192 69.5388 41.0853 69.7086 41.0598 69.8784C41.0174 70.0906 40.9834 70.3029 40.9324 70.5321C40.7796 71.2029 40.5844 72.0519 40.1344 72.5952C40.024 72.7311 39.8967 72.799 39.7863 72.8414C39.6504 72.8754 39.5231 72.8754 39.4042 72.8245C39.1665 72.7311 38.9203 72.4424 38.7335 72.1368C38.3939 71.6019 38.1222 70.8123 37.8251 70.0652C37.6553 69.6916 37.5619 69.3011 37.4515 68.919C37.3411 68.537 37.2138 68.1634 37.1628 67.7983C37.1374 67.6795 37.1204 67.5606 37.0949 67.4502C37.061 67.2974 37.0355 67.1446 37.01 67.0002C37.01 67.0597 37.0015 67.1191 36.993 67.187C36.9506 67.4672 36.8742 67.8068 36.7893 68.1804C36.6874 68.6218 36.5685 69.1228 36.4412 69.6661C36.3987 69.9208 36.3563 70.184 36.3138 70.4557C36.2968 70.5916 36.2714 70.7274 36.2459 70.8717C36.2374 71.0161 36.2289 71.1604 36.2204 71.3047C36.2035 71.8821 36.2544 72.4849 36.3902 73.0707C36.628 74.2508 37.2053 75.3206 37.6043 76.2375V76.2205Z" fill="#FF8800"></path>
      <path d="M26.9832 79.9984C27.1615 80.3465 27.2719 80.5673 27.2719 80.5673C27.2719 80.5673 27.3058 80.3296 27.3653 79.9475C27.4247 79.5654 27.4587 79.0476 27.5945 78.4617C27.7558 77.2901 28.1973 75.9317 28.3331 74.8195C28.5284 73.7073 28.5454 72.2554 28.6473 71.0499C28.6812 70.4471 28.7067 69.9122 28.7322 69.5216C28.7492 69.1311 28.7577 68.9019 28.7577 68.9019C28.7577 68.9019 28.6218 69.0802 28.3926 69.3688C28.1718 69.666 27.8407 70.082 27.5266 70.5999C26.8559 71.6187 26.1767 73.062 25.9389 74.4459C25.7776 75.6685 25.9389 77.2986 26.3889 78.5212C26.5587 79.1325 26.8304 79.6419 27.0002 79.9984H26.9832Z" fill="#FF8800"></path>
      <path d="M64.8661 168.576C64.8916 169.119 64.7982 167.116 64.8661 168.576V168.576Z" fill="#FFFF00"></path>
      <path d="M64.8661 168.576C64.7642 166.368 63.8303 163.838 62.0389 162.446C61.2408 165.766 59.4069 168.423 55.9515 169.297C52.1903 170.257 48.1321 169.06 45.3898 166.368C42.5201 163.55 41.6371 160.179 43.2248 156.384C44.2945 153.82 46.1369 150.865 48.7434 149.651C46.052 145.067 48.65 138.427 49.1254 133.571C50.1697 139.03 51.4432 146.349 56.359 149.728C52.6488 145.347 52.946 138.478 52.2413 133.087C51.3753 126.405 49.6178 120.326 46.018 114.587C41.4843 120.318 41.6881 128.63 39.9816 135.439C39.158 138.708 38.5977 142.239 36.9251 145.22C36.0931 146.561 34.5734 148.964 32.6291 148.327C31.3386 147.911 30.583 146.357 30.0651 145.203C21.7533 152.563 20.2845 165.417 26.6436 174.502C27.3483 175.504 28.1294 176.446 28.9784 177.321C29.4878 177.847 30.0311 178.339 30.5915 178.815C30.9396 178.815 31.1943 178.849 31.4235 178.925C35.346 178.178 38.8948 180.403 41.3315 183.366C43.4201 184.614 46.7142 184.079 49.015 183.646C49.6603 183.527 50.1527 183.417 50.5942 183.255C51.2055 181.353 53.7101 180.071 55.7732 180.589C55.9345 180.674 56.1128 180.751 56.2911 180.836C58.4136 180.08 61.3512 176.947 62.8964 174.808C62.7605 175.028 62.6162 175.249 62.4634 175.47C64.2548 173.712 65.0019 171.038 64.8661 168.576Z" fill="#FFFF00"></path>
      <path d="M38.3515 107.591C38.776 108.007 39.2684 108.33 39.8203 108.542C38.1138 106.335 38.1902 102.616 37.46 99.9757C36.679 102.497 36.2884 105.545 38.36 107.583C38.7336 107.948 37.6214 106.861 38.36 107.583L38.3515 107.591Z" fill="#FFFF00"></path>
      <path d="M55.3232 151.604C55.0006 151.443 54.695 151.248 54.3893 151.052C55.3911 155.289 59.1438 155.391 62.7521 155.484C60.6465 153.217 57.8618 153.013 55.3232 151.604C55.5015 151.706 55.1364 151.511 55.3232 151.604Z" fill="#FFFF00"></path>
      <path d="M86.4315 188.752C86.4315 188.752 74.5716 182.916 73.3696 183.049C72.1675 183.183 68.0027 186.596 68.0027 186.596C68.0027 186.596 67.1042 182.289 65.7838 182.307C64.4603 182.325 59.7491 180.539 59.7491 180.539L26.3977 181.211L26.422 183.186L1.27563 187.092L2.0588 191.95L13.4846 192.892L42.4739 191.126L44.3438 185.678L44.4106 190.981L88.9965 191.926L89.6582 187.289L86.7714 187.171L86.4315 188.752Z" fill="url(#paint0_linear_155_48448)"></path>
      <path d="M86.4467 189.833C86.4467 189.833 74.5868 183.997 73.3848 184.13C72.1827 184.267 68.0179 187.677 68.0179 187.677C68.0179 187.677 67.1194 183.37 65.799 183.388C64.4755 183.407 59.7643 181.62 59.7643 181.62L26.8136 181.671L26.8379 183.646L1.29083 188.174L2.074 193.031L13.4998 193.973L42.4891 192.208L44.359 186.759L44.4258 192.062L89.0117 193.007L89.6734 188.37L86.7866 188.252L86.4467 189.833Z" fill="#661C2D"></path>
    </g>
    <defs>
      <linearGradient id="paint0_linear_155_48448" x1="46.6082" y1="171.725" x2="44.6856" y2="197.822" gradientUnits="userSpaceOnUse">
        <stop stop-color="#E9A828"></stop>
        <stop offset="0.99" stop-color="#DA1405"></stop>
      </linearGradient>
      <clipPath id="clip0_155_48448">
        <rect width="91" height="193" fill="white"></rect>
      </clipPath>
    </defs>
  </symbol>
  <symbol fill="none" xmlns="http://www.w3.org/2000/svg" viewBox="0 0 91 193" id="Frame-5">
    <g clip-path="url(#clip0_155_48474)">
      <path d="M64.3956 123.179C64.7182 125.743 65.287 128.273 66.0851 130.735C66.3822 131.652 68.3859 137.765 70.1858 134.691C71.1877 132.985 67.7577 129.292 66.9766 127.797C65.8729 125.683 64.888 123.493 64.2512 121.192C64.2682 121.854 64.2937 122.525 64.3956 123.179C64.3022 122.584 64.472 123.773 64.3956 123.179Z" fill="#FF8800"></path>
      <path d="M40.7166 74.301C40.9713 75.8462 41.8203 79.5819 43.8834 79.6498C46.5238 79.7432 43.824 75.3283 43.4504 74.4453C41.3788 69.5126 42.3976 63.2554 41.7014 58C41.5316 63.1875 39.5534 69.19 40.7081 74.2925C40.8864 75.3623 40.6487 74.0378 40.7081 74.2925L40.7166 74.301Z" fill="#FF8800"></path>
      <path d="M70.4322 164.441C70.3298 164.202 70.4152 164.416 70.4322 164.441V164.441Z" fill="#FF8800"></path>
      <path d="M64.0899 178.381C65.8643 176.454 67.3416 174.247 68.4369 171.87C69.184 170.239 71.1367 166.224 70.432 164.449C70.415 164.415 70.3301 164.211 70.432 164.449C68.301 159.381 66.4077 153.038 68.2331 147.596C68.3944 146.926 69.3029 145.499 69.15 144.837C68.7765 143.266 68.2586 141.73 67.6303 140.252C66.5011 137.782 65.0748 135.472 63.606 133.189C63.3598 136.432 59.9298 132.773 59.3864 131.711C57.994 128.986 57.7648 125.845 56.5167 123.06C55.2772 120.292 53.4943 118.305 51.5755 116.005C50.6755 114.926 47.8993 110.299 51.1595 110.24C50.3614 107.149 48.5021 104.551 46.006 102.599C45.3522 102.089 44.656 101.639 43.9344 101.24C42.992 100.714 43.1363 101.24 42.4062 101.919C40.3685 103.685 38.3054 101.283 37.7366 99.3979C36.9895 96.9613 37.2102 94.4227 37.0659 91.9181C37.0149 90.9927 36.8876 90.0758 36.7602 89.1589C37.2612 88.2759 37.7196 87.3335 38.0507 86.3656C39.7657 81.4413 36.9046 76.9161 35.1301 72.4673C35.215 76.7972 33.0161 80.6433 32.3369 84.8374C32.0907 86.3486 32.3199 88.0721 32.7274 89.5324C32.9057 90.1607 33.2029 91.1031 33.8991 91.3578C34.5698 91.604 34.2811 93.3954 34.2641 94.1425C34.1368 98.8546 30.7153 102.794 29.5946 107.277C29.0342 109.527 28.9408 111.861 29.7304 114.069C30.6049 116.039 32.3454 118.153 33.9585 115.453C34.0943 116.786 34.0179 118.085 33.8142 119.409C34.8584 119.52 35.4443 120.318 35.6226 121.294C35.8773 122.763 34.3575 123 33.2368 122.848C33.0331 124.215 32.8972 125.598 33.0076 126.982C33.135 128.629 30.6983 131.125 29.9512 132.781C28.6692 135.702 28.0494 138.843 26.8523 141.798C26.3344 143.071 25.6127 144.616 24.093 144.846C23.21 144.973 23.193 145.652 22.8449 146.518C21.6563 149.507 20.9516 152.775 21.0026 156.002C21.0281 157.267 21.028 158.285 21.7497 159.321C22.5138 160.416 23.0232 161.664 23.261 162.989C23.7619 165.799 21.8176 169.221 22.9553 171.742C27.6843 182.185 39.2733 188.213 50.5312 186.014C50.8283 185.955 51.1255 185.887 51.4227 185.819C53.7829 183.934 56.8394 182.143 59.9552 182.015C61.4665 180.971 62.8589 179.765 64.1069 178.407L64.0899 178.381Z" fill="#FF8800"></path>
      <path d="M39.4176 97.6915C39.494 97.8018 39.5704 97.9207 39.6468 98.0311C39.7827 96.6472 40.9883 92.3766 43.2127 93.5313C44.0023 91.5106 43.408 89.4306 42.1684 87.7495C39.7317 90.0758 37.4394 94.3378 39.4176 97.6999C39.494 97.8273 39.2308 97.3858 39.4176 97.6999V97.6915Z" fill="#FF8800"></path>
      <path d="M50.6246 99.8479C51.7198 100.671 53.0952 101.86 53.9188 102.955C54.3857 100.612 52.0594 98.1923 49.7076 99.3385C50.0388 99.4573 50.3444 99.6271 50.6246 99.8479C50.4038 99.6781 51.0746 100.187 50.6246 99.8479Z" fill="#FF8800"></path>
      <path d="M67.6897 160.272C67.6388 159.635 67.5624 159.007 67.4605 158.379C67.053 162.106 65.1682 167.021 60.4646 166.24C59.9128 166.147 57.7733 164.661 57.561 164.755C55.4894 165.68 53.0613 165.867 50.8708 165.34C46.5748 164.313 43.9429 160.56 45.4626 156.231C46.9229 152.07 51.4736 149.515 55.5828 151.552C56.6186 152.079 58.2997 152.682 59.1402 153.463C60.4816 154.711 61.3561 156.375 62.8334 157.504C64.1748 158.531 64.3956 157.105 64.8031 155.789C65.4738 153.641 65.6351 151.272 65.3804 149.039C65.1257 146.756 64.1409 144.981 62.6721 143.249C61.0335 141.313 59.9552 139.437 58.9874 137.094C57.4422 133.35 54.0885 130.624 52.815 126.795C51.6349 130.353 53.4433 133.231 53.265 136.703C53.1631 139.064 50.7859 137.094 50.2595 136.117C49.2067 134.173 49.003 131.923 48.8671 129.767C48.7483 127.95 48.6464 126.082 47.9842 124.367C48.5445 122.33 49.4105 120.122 49.0879 117.983C48.4426 113.644 43.6627 112.939 40.9289 110.367C44.1381 113.788 45.4371 118.348 44.291 122.881C44.0872 123.713 44.7325 125.301 44.8513 126.167C45.0466 127.653 45.1569 129.147 45.0975 130.641C44.9956 133.579 44.3589 136.533 43.0259 139.157C42.0666 141.042 40.3516 142.426 39.9186 144.421C39.3412 147.044 38.4413 149.71 36.531 151.68C32.4812 155.857 26.691 151.493 27.6164 146.331C25.1288 149.277 24.042 152.979 24.5175 156.808C24.7637 158.829 25.1627 160.45 26.5891 161.783C28.0409 163.141 28.7795 165.171 27.7862 166.988C27.3107 167.862 26.64 168.669 25.8674 169.297C24.976 170.018 24.6194 169.67 25.1118 170.808C25.8419 172.506 26.7928 174.111 27.922 175.571C30.1719 178.492 33.1434 180.843 36.514 182.346C40.1053 183.951 44.1212 184.571 48.0351 184.121C50.1152 183.883 50.2425 183.586 51.6859 182.448C53.3754 181.098 55.6422 180.325 57.7308 179.901C61.1523 179.213 63.8607 175.062 65.3804 172.082C67.2398 168.439 68.0378 164.322 67.7152 160.246C67.6643 159.61 67.7577 160.832 67.7152 160.246L67.6897 160.272Z" fill="#FFFF00"></path>
      <path d="M43.9598 108.228C44.3928 108.881 45.106 109.399 45.6493 109.968C46.1757 107.896 44.9277 106.351 42.8901 106.029C43.2212 106.742 43.4844 107.591 43.9598 108.219C44.1975 108.576 43.6966 107.871 43.9598 108.219V108.228Z" fill="#FFFF00"></path>
      <path d="M86.4315 188.752C86.4315 188.752 74.5716 182.916 73.3696 183.049C72.1675 183.183 68.0027 186.596 68.0027 186.596C68.0027 186.596 67.1042 182.289 65.7838 182.307C64.4603 182.325 59.7491 180.539 59.7491 180.539L26.3977 181.211L26.422 183.186L1.27563 187.092L2.0588 191.95L13.4846 192.892L42.4739 191.126L44.3438 185.678L44.4106 190.981L88.9965 191.926L89.6582 187.289L86.7714 187.171L86.4315 188.752Z" fill="url(#paint0_linear_155_48474)"></path>
      <path d="M86.4467 189.833C86.4467 189.833 74.5868 183.997 73.3848 184.13C72.1827 184.267 68.0179 187.677 68.0179 187.677C68.0179 187.677 67.1194 183.37 65.799 183.388C64.4755 183.407 59.7643 181.62 59.7643 181.62L26.8136 181.671L26.8379 183.646L1.29083 188.174L2.074 193.031L13.4998 193.973L42.4891 192.208L44.359 186.759L44.4258 192.062L89.0117 193.007L89.6734 188.37L86.7866 188.252L86.4467 189.833Z" fill="#661C2D"></path>
    </g>
    <defs>
      <linearGradient id="paint0_linear_155_48474" x1="46.6082" y1="171.725" x2="44.6856" y2="197.822" gradientUnits="userSpaceOnUse">
        <stop stop-color="#E9A828"></stop>
        <stop offset="0.99" stop-color="#DA1405"></stop>
      </linearGradient>
      <clipPath id="clip0_155_48474">
        <rect width="91" height="193" fill="white"></rect>
      </clipPath>
    </defs>
  </symbol>
  <symbol fill="none" xmlns="http://www.w3.org/2000/svg" viewBox="0 0 91 193" id="Frame-6">
    <g clip-path="url(#clip0_155_48499)">
      <path d="M70.0897 157.076C69.8095 155.344 67.9416 153.374 67.1606 151.744C66.0144 149.308 65.4965 146.701 65.3607 144.027C65.0126 138.542 65.8786 133.508 63.9598 128.193C61.2684 129.67 59.9185 125.603 59.6044 123.651C59.4261 122.504 59.2987 120.738 60.3685 119.94C60.7675 119.635 59.8421 117.928 59.6893 117.521C57.6601 112.002 53.899 106.382 48.8559 103.215C48.8559 104.191 48.8049 105.185 48.6521 106.152C48.3974 107.817 47.9304 108.402 46.2834 107.944C44.2033 107.367 40.3488 104.972 42.6326 102.434C42.8024 102.239 44.3391 101.551 44.3391 101.551C44.4155 99.8783 44.1524 98.1718 43.2949 96.703C42.5817 95.4804 41.4949 94.5295 40.2384 93.8928C38.9988 93.3154 37.0376 93.4003 36.2905 92.0674C35.5688 95.2682 36.0443 97.9256 37.131 100.982C38.1838 103.945 39.6101 107.528 36.9952 110.1C35.1358 106.815 37.9291 100.923 34.4736 98.3925C33.1152 100.574 31.4681 102.85 31.2219 105.49C31.0861 106.968 31.4426 108.521 32.0879 109.854C32.4275 110.55 32.869 111.213 33.4293 111.756C34.2189 112.529 33.9982 112.393 33.5567 113.471C31.0351 119.643 32.5548 126.41 31.2134 132.794C30.7974 134.798 30.7974 150.658 25.6524 147.584C23.6317 149.902 21.7215 152.517 21.0338 155.556C20.2697 158.919 20.2102 162.433 20.864 165.821C21.4498 168.835 22.596 171.73 24.2261 174.328C25.0326 175.602 25.9495 176.807 26.9684 177.928C27.4693 178.48 27.9957 179.006 28.5475 179.507C29.5239 179.634 30.4748 179.94 31.3662 180.348C32.8265 181.01 33.9048 181.986 34.4397 183.531C35.8405 184.219 37.3178 184.779 38.8205 185.187C42.2845 186.138 45.9608 186.333 49.5096 185.739C52.634 185.221 55.648 184.1 58.3478 182.462C61.2429 180.704 63.2721 179.015 64.1551 175.712C64.9022 172.902 66.32 170.737 68.6294 168.945C70.633 167.392 70.4887 162.637 70.4123 160.268C70.3783 159.207 70.2765 158.146 70.1067 157.093C70.0727 156.881 70.3189 158.392 70.1067 157.093L70.0897 157.076Z" fill="#FF8800"></path>
      <path d="M33.2086 65.5528C33.5142 68.4394 33.8963 71.4109 35.3651 73.9665C34.9406 69.9422 35.9339 65.7395 36.3924 61.7492C36.7914 57.6485 37.1735 53.5562 37.6319 49.464C34.7962 54.3967 32.5464 59.754 33.2086 65.5613C33.3529 66.9367 33.1322 64.8821 33.2086 65.5613V65.5528Z" fill="#FF8800"></path>
      <path d="M40.0601 35.2515C40.8412 40.5408 41.1638 45.8302 40.3488 51.128C41.6817 48.0376 42.5901 44.8113 42.3524 41.5172C42.1571 38.1975 40.4506 35.226 39.8139 31.9998C39.7205 33.0865 39.9073 34.1732 40.0601 35.2515C40.3403 37.1278 39.9327 34.3175 40.0601 35.2515Z" fill="#FF8800"></path>
      <path d="M67.4238 128.312C67.5426 128.549 68.6718 130.001 68.3407 130.264C68.7822 130.434 68.4001 128.626 68.4171 128.677C68.1369 127.658 67.4408 126.817 66.6682 126.13C66.8719 126.868 67.0842 127.624 67.4238 128.312C67.203 127.87 67.619 128.702 67.4238 128.312Z" fill="#FF8800"></path>
      <path d="M52.5321 100.43C52.7784 100.583 53.0246 100.719 53.2878 100.838C53.2198 99.1311 52.7444 98.1718 51.4199 97.0935C51.0549 98.418 51.2926 99.6915 52.5406 100.43C52.9566 100.685 52.1161 100.184 52.5406 100.43H52.5321Z" fill="#FF8800"></path>
      <path d="M33.684 83.1697C33.5737 83.7386 33.9217 84.4178 34.1849 84.8932C35.3311 83.9593 35.5009 83.0254 34.7793 81.7434C34.3378 82.083 33.7944 82.5924 33.684 83.1697C33.8114 82.4736 33.5737 83.781 33.684 83.1697Z" fill="#FF8800"></path>
      <path d="M33.3869 97.569C33.4548 97.6369 33.5312 97.7133 33.5991 97.7812C33.752 95.8709 33.8539 94.3767 33.4973 92.4664C32.0964 93.9777 31.9011 96.0238 33.3869 97.569C33.5142 97.6963 33.2511 97.4331 33.3869 97.569Z" fill="#FF8800"></path>
      <path d="M67.3813 159.793C66.9738 154.911 62.9156 151.184 60.3261 147.262C57.5413 143.042 56.964 138.814 56.8621 133.856C55.3848 135.18 53.8481 136.598 53.1264 138.491C52.4982 140.147 54.3151 141.446 55.1301 142.906C57.0998 146.43 59.5365 153.256 54.8584 155.794C54.349 156.066 54.6207 156.872 54.5358 157.433C54.366 158.613 53.8566 159.751 53.1349 160.701C51.7595 162.51 49.4417 163.631 47.1579 163.053C42.5478 162.077 40.5865 156.091 44.3731 152.882C32.5379 145.682 45.9183 132.217 38.3791 122.87C39.3215 125.459 39.729 128.252 38.8036 130.901C38.3536 132.2 37.649 133.482 36.6217 134.416C35.5943 135.341 34.7793 135.223 34.3718 136.573C33.5482 139.272 32.6823 141.964 31.8417 144.655C31.6295 145.326 29.7871 152.492 31.0182 152.424C33.8114 152.262 36.9613 154.257 37.7169 156.991C38.1414 158.52 37.3263 159.708 35.883 160.201C35.3057 160.404 33.0303 160.302 32.9624 160.651C32.3426 163.843 28.9466 163.605 27.1042 161.61C24.8544 159.199 25.0751 156.015 24.761 152.975C22.7233 157.755 22.4347 163.215 23.9629 168.181C24.6676 170.465 25.7458 172.639 27.1382 174.583C28.0721 175.882 31.3833 174.753 33.1492 175.372C35.1953 176.086 36.6726 177.758 37.2075 179.847C37.4622 180.823 37.0801 182.385 38.0565 182.716C39.4828 183.2 40.9601 183.548 42.4544 183.735C48.0239 184.44 53.7462 182.963 58.2884 179.66C57.847 180.127 57.3291 180.492 56.7432 180.755C60.5977 179.55 61.1326 174.252 63.1957 171.314C64.1551 169.956 65.2673 168.665 66.6342 167.706C67.3644 165.133 67.6106 162.459 67.3898 159.802L67.3813 159.793Z" fill="#FFFF00"></path>
      <path d="M49.3058 113.106C53.5679 117.359 55.0112 123.651 56.6243 129.28C58.2799 121.893 56.7771 113.641 48.1597 112.155C48.5417 112.478 48.9238 112.792 49.3058 113.106C49.4332 113.233 49.17 112.987 49.3058 113.106Z" fill="#FFFF00"></path>
      <path d="M86.4315 188.752C86.4315 188.752 74.5716 182.916 73.3696 183.049C72.1675 183.183 68.0027 186.596 68.0027 186.596C68.0027 186.596 67.1042 182.289 65.7838 182.307C64.4603 182.325 59.7491 180.539 59.7491 180.539L26.3977 181.211L26.422 183.186L1.27563 187.092L2.0588 191.95L13.4846 192.892L42.4739 191.126L44.3438 185.678L44.4106 190.981L88.9965 191.926L89.6582 187.289L86.7714 187.171L86.4315 188.752Z" fill="url(#paint0_linear_155_48499)"></path>
      <path d="M86.4467 189.833C86.4467 189.833 74.5868 183.997 73.3848 184.13C72.1827 184.267 68.0179 187.677 68.0179 187.677C68.0179 187.677 67.1194 183.37 65.799 183.388C64.4755 183.407 59.7643 181.62 59.7643 181.62L26.8136 181.671L26.8379 183.646L1.29083 188.174L2.074 193.031L13.4998 193.973L42.4891 192.208L44.359 186.759L44.4258 192.062L89.0117 193.007L89.6734 188.37L86.7866 188.252L86.4467 189.833Z" fill="#661C2D"></path>
    </g>
    <defs>
      <linearGradient id="paint0_linear_155_48499" x1="46.6082" y1="171.725" x2="44.6856" y2="197.822" gradientUnits="userSpaceOnUse">
        <stop stop-color="#E9A828"></stop>
        <stop offset="0.99" stop-color="#DA1405"></stop>
      </linearGradient>
      <clipPath id="clip0_155_48499">
        <rect width="91" height="193" fill="white"></rect>
      </clipPath>
    </defs>
  </symbol>
  <symbol fill="none" xmlns="http://www.w3.org/2000/svg" viewBox="0 0 91 193" id="Frame-7">
    <g clip-path="url(#clip0_155_48542)">
      <path d="M69.9578 168.595C69.9578 168.595 70.0088 168.697 69.9578 168.595C69.1513 167.05 68.956 164.927 69.2871 163.238C69.5843 161.65 69.8389 161.633 69.5163 161.039C69.5163 161.039 69.5163 161.03 69.5163 161.022C69.5163 161.022 69.4994 161.005 69.4909 160.996C69.389 160.818 69.2531 160.597 69.0409 160.266C67.3174 157.524 66.9523 154.221 69.0409 151.649C69.4993 151.089 68.1494 148.219 67.9117 147.616C67.1476 145.706 66.2137 143.863 65.4581 141.945C65.076 140.909 63.5138 133.786 65.8826 134.134C63.9638 124.158 54.4379 117.722 50.7192 108.553C50.8296 111.261 51.3305 113.944 52.3918 116.449C53.4361 118.911 55.0916 121.059 56.1444 123.513C52.8842 120.881 48.9024 118.979 46.6355 115.294C44.5809 111.958 45.3195 108.349 44.5639 104.724C44.496 105.378 43.7573 103.68 43.4262 103.247C42.7894 102.423 42.0848 101.651 41.3801 100.87C41.5924 103.264 41.5414 106.227 40.0217 108.23C38.9264 109.894 34.9785 111.482 34.0191 108.791C31.7778 110.166 31.8117 113.469 30.9967 115.659C36.8039 115.719 30.4278 124.132 29.0949 126.221C26.8365 129.744 24.2216 135.509 24.7989 139.788C25.3338 143.719 25.7753 149.611 23.0754 152.905C21.7085 154.578 21.6151 158.033 21.5387 160.114C21.4368 162.907 21.8019 165.725 22.6254 168.4C24.3404 167.449 26.7686 166.473 27.9742 168.655C29.1204 170.726 24.23 170.285 23.2452 170.166C25.0621 174.793 28.2629 178.826 32.3636 181.653C34.4692 183.105 36.8039 184.234 39.2491 184.981C40.616 185.397 42.0254 185.694 43.4432 185.873C45.0563 186.068 45.7525 185.703 47.2553 185.253C49.7429 184.506 52.222 185.533 54.5228 184.752C56.9934 183.92 59.3282 182.689 61.4168 181.135C63.4883 179.59 65.3222 177.731 66.825 175.633C67.8353 174.224 70.7813 170.285 69.9493 168.595H69.9578Z" fill="#FF8800"></path>
      <path d="M35.42 102.016C36.4558 102.067 37.3728 102.559 38.1454 103.23C38.3067 100.462 39.368 97.015 42.1188 95.7924C45.2261 94.417 48.0958 97.0575 50.2692 98.9168C49.8617 95.4104 51.3645 85.0439 44.912 86.0712C41.7876 86.5552 41.898 90.0701 39.8349 91.6323C38.6378 92.5322 36.2945 92.77 36.5322 90.6814C31.7778 90.7663 33.2041 99.2224 33.8409 101.871C33.9767 102.449 34.8682 102.007 35.4285 102.016H35.42Z" fill="#FF8800"></path>
      <path d="M33.8326 101.872C33.8156 101.787 33.7985 101.744 33.7985 101.719C33.8156 101.778 33.8497 101.932 33.8326 101.872Z" fill="#FF8800"></path>
      <path d="M54.6586 96.2085C59.6338 94.6633 56 87.192 51.704 90.1041C52.0012 90.2484 52.3069 90.4267 52.57 90.6304C53.9879 91.7257 54.9557 94.4595 54.6586 96.2085Z" fill="#FF8800"></path>
      <path d="M66.6636 169.122C66.0184 167.916 66.0184 166.405 66.0609 165.072C66.1118 163.391 66.1543 162.839 64.9487 161.515C62.1809 158.475 59.4386 156.599 58.0716 152.498C57.2057 154.892 57.1292 157.609 57.7405 160.071C58.0462 161.328 58.5556 162.542 59.2008 163.671C60.0159 165.097 60.9159 165.335 59.9989 166.923C58.5047 169.521 54.9133 169.037 53.1983 166.923C52.3748 165.938 51.8059 164.766 51.0673 163.722C50.1334 162.398 48.9193 161.583 47.6713 160.598C45.1242 158.603 46.7373 155.385 48.1382 153.194C48.6646 152.362 49.2504 151.573 49.8702 150.8C50.4221 150.121 49.6749 147.973 49.7598 146.98C50.1589 141.826 51.4324 138.235 47.6968 134.151C47.3487 137.055 46.7289 141.062 44.1309 142.896C40.4207 145.604 37.0246 141.291 35.7257 138.226C34.3503 140.34 34.0192 142.904 33.2551 145.265C32.8815 146.411 32.3721 147.608 31.2938 148.253C30.5722 148.678 28.526 148.372 28.2374 148.788C24.731 153.704 23.3726 159.935 24.5103 165.862C25.2829 163.697 27.1506 162.525 29.3581 162.067C30.8948 161.744 31.0391 161.956 32.2702 161.082C33.6456 160.105 35.87 159.978 36.719 161.744C37.4067 163.162 36.7784 164.945 36.0907 166.227C35.4115 167.483 35.471 168.162 35.0465 169.504C33.9003 172.492 29.5449 172.866 26.862 172.382C28.8402 175.965 31.8202 178.987 35.3776 181.008C37.203 182.044 39.6481 183.326 41.7791 183.292C44.0799 183.258 46.3213 182.655 48.5797 182.247C50.5155 181.899 52.587 181.696 54.4718 182.375C56.3906 181.619 58.199 180.6 59.8376 179.352C61.5696 178.028 63.1063 176.457 64.3798 174.691C65.3392 173.358 67.5042 170.65 66.6806 169.13L66.6636 169.122Z" fill="#FFFF00"></path>
      <path d="M43.4856 119.064C44.7081 120.55 46.491 121.373 48.4098 121.399C46.2279 119.251 44.1308 116.288 42.5007 113.724C42.1866 115.541 42.4243 117.51 43.4771 119.064C43.6638 119.285 42.8318 118.113 43.4771 119.064H43.4856Z" fill="#FFFF00"></path>
      <path d="M56.45 132.555C57.3415 135.959 57.3924 139.534 58.3348 142.947C59.3196 146.487 61.1111 149.603 63.4629 152.405C62.7921 151.42 62.1299 150.443 61.5865 149.391C60.746 146.945 61.0941 144.169 61.196 141.639C61.3997 136.63 59.9904 132.894 55.7368 130.008C55.9576 130.857 56.2208 131.697 56.4415 132.555C56.484 132.708 56.2293 131.723 56.4415 132.555H56.45Z" fill="#FFFF00"></path>
      <path d="M86.4315 188.752C86.4315 188.752 74.5716 182.916 73.3696 183.049C72.1675 183.183 68.0027 186.596 68.0027 186.596C68.0027 186.596 67.1042 182.289 65.7838 182.307C64.4603 182.325 59.7491 180.539 59.7491 180.539L26.3977 181.211L26.422 183.186L1.27563 187.092L2.0588 191.95L13.4846 192.892L42.4739 191.126L44.3438 185.678L44.4106 190.981L88.9965 191.926L89.6582 187.289L86.7714 187.171L86.4315 188.752Z" fill="url(#paint0_linear_155_48542)"></path>
      <path d="M86.4467 189.833C86.4467 189.833 74.5868 183.997 73.3848 184.13C72.1827 184.267 68.0179 187.677 68.0179 187.677C68.0179 187.677 67.1194 183.37 65.799 183.388C64.4755 183.407 59.7643 181.62 59.7643 181.62L26.8136 181.671L26.8379 183.646L1.29083 188.174L2.074 193.031L13.4998 193.973L42.4891 192.208L44.359 186.759L44.4258 192.062L89.0117 193.007L89.6734 188.37L86.7866 188.252L86.4467 189.833Z" fill="#661C2D"></path>
    </g>
    <defs>
      <linearGradient id="paint0_linear_155_48542" x1="46.6082" y1="171.725" x2="44.6856" y2="197.822" gradientUnits="userSpaceOnUse">
        <stop stop-color="#E9A828"></stop>
        <stop offset="0.99" stop-color="#DA1405"></stop>
      </linearGradient>
      <clipPath id="clip0_155_48542">
        <rect width="91" height="193" fill="white"></rect>
      </clipPath>
    </defs>
  </symbol>
  <symbol fill="none" xmlns="http://www.w3.org/2000/svg" viewBox="0 0 91 193" id="Frame-8">
    <g clip-path="url(#clip0_155_48578)">
      <path d="M65.6085 146.6C64.7849 144.928 64.1057 143.111 64.267 141.209C64.3774 140.029 65.1585 139.893 65.8462 140.691C64.4368 137.507 63.469 134.638 61.0917 131.972C58.8588 129.459 56.2269 127.2 54.2402 124.475C54.3421 125.765 54.4355 128.397 52.3894 127.879C50.1819 127.328 48.6198 124.823 47.2868 123.176C44.9096 120.255 43.2116 116.927 41.6494 113.514C40.8258 111.706 40.3928 110.678 40.8513 108.76C41.3437 106.688 41.955 104.633 41.8022 102.477C41.539 98.8262 39.0344 95.7613 38.5165 92.1021C38.0156 94.0888 35.6384 100.813 33.0489 96.7037C31.9961 94.8274 32.8961 92.62 32.9555 90.6418C32.998 88.9183 32.6583 87.2882 31.9706 85.7006C30.6802 87.3392 29.2283 88.9947 28.668 91.0493C28.3963 92.0596 29.3048 96.3896 30.6037 94.1482C30.5783 96.5424 30.2981 98.7838 29.5255 101.051C28.3284 104.209 26.4181 107.011 25.8917 110.407C25.4333 113.361 26.087 116.452 25.3059 119.364C26.3247 122.836 26.0785 126.563 25.1106 130.027C23.1155 137.032 20.0675 143.348 19.7619 150.76C19.7024 152.305 19.643 153.842 19.7109 155.387C19.7704 156.746 20.1015 156.135 21.2986 156.601C22.3598 157.162 22.9626 157.9 23.1749 159.081C23.2937 160.082 25.0003 159.811 25.7219 160.575C24.3295 161.602 22.3089 162.85 20.4835 162.502C20.7467 168.267 23.0475 173.836 26.919 178.115C28.6086 179.983 30.6886 182.225 33.2187 182.471C35.6469 182.709 38.2279 183.447 40.3249 184.712C39.9004 184.415 39.8749 184.441 40.257 184.772C41.0721 184.899 41.8786 185.12 42.6597 185.391C43.8059 185.791 44.6124 186.368 45.8605 186.342C48.3311 186.3 50.7932 185.901 53.1365 185.137C57.874 183.6 62.1021 180.629 65.167 176.706C71.9591 168.004 72.1544 155.506 65.6085 146.6C68.6479 150.743 65.0227 145.403 65.6085 146.6Z" fill="#FF8800"></path>
      <path d="M44.3748 105.134C44.7654 107.792 46.2596 110.084 48.0171 112.062C47.9491 111.222 47.5162 109.787 48.3057 109.15C49.1293 108.488 50.4707 109.329 51.2178 109.762C50.7424 107.164 49.2821 104.871 48.5095 102.367C48.3057 101.713 47.669 98.2745 47.1426 98.3509C46.7775 98.4018 46.6502 101.382 46.5907 102.027C44.7229 101.119 44.1031 103.835 44.3663 105.134C44.4003 105.347 44.1965 104.302 44.3663 105.134H44.3748Z" fill="#FF8800"></path>
      <path d="M36.0969 85.5646L36.3091 85.9976C38.3977 84.0109 42.4305 84.4779 44.8077 85.6241C44.2898 84.6392 43.0757 82.5591 42.6258 80.6828C41.9975 78.3395 42.4644 74.0945 39.5269 73.1351C36.4959 72.1417 36.5214 76.8962 37.3109 78.5942C36.0374 80.5979 35.146 83.2468 36.1053 85.5731C36.1733 85.7259 36.1053 85.5731 36.1053 85.5731L36.0969 85.5646Z" fill="#FF8800"></path>
      <path d="M32.8452 84.0875C32.9046 84.1893 32.9641 84.2912 33.0235 84.3931C33.4904 82.3045 35.4092 79.783 33.2697 77.8982C33.4735 80.0547 31.716 81.8715 32.8452 84.0875C32.9556 84.2912 32.7433 83.8837 32.8452 84.0875Z" fill="#FF8800"></path>
      <path d="M50.4282 85.3525C50.7339 85.5393 51.048 85.7006 51.3876 85.8195C51.7782 83.6375 51.2857 82.8904 50.0122 81.1924C48.8406 82.5593 48.8151 84.3677 50.4367 85.3525C50.6829 85.5138 49.9188 85.0384 50.4367 85.3525H50.4282Z" fill="#FF8800"></path>
      <path d="M66.8991 162.392C66.0416 159.208 63.5285 157.298 61.7796 154.666C56.6091 158.86 50.3264 158.291 46.2512 152.883C45.3088 151.652 45.2918 150.395 43.857 149.903C42.1335 149.317 40.6222 148.154 39.7138 146.566C38.3723 143.892 38.3299 141.065 38.6101 138.144C37.5573 139.494 35.7913 141.005 33.9405 140.598C31.0539 140.037 31.7585 136.709 32.2255 134.587C33.2868 129.79 36.4111 125.307 35.0103 120.281C34.5348 122.522 31.402 126.428 29.636 122.777C29.4917 124.398 23.8967 136.93 26.1041 137.159C29.5936 137.736 28.8549 143.051 28.4983 145.522C28.0144 148.867 25.3994 151.38 24.2703 154.606C25.2721 154.47 26.4267 155.048 27.3012 155.447C27.8361 155.693 29.0077 154.81 29.6105 154.64C31.9368 153.986 34.5433 154.318 36.6913 155.396C34.1867 156.338 31.9029 157.841 30.052 159.785C27.8955 162.052 26.5032 164.175 23.1156 164.064C23.6335 169.685 26.3758 174.974 30.6209 178.684C32.7943 180.586 35.9357 180.187 38.644 180.79C40.6732 181.231 42.8721 181.545 44.8163 182.301C45.971 182.751 47.0832 183.32 48.1105 184.008C49.5708 183.821 51.0056 183.49 52.398 183.014C55.1488 182.08 57.7043 180.603 59.8863 178.693C64.0974 175.008 68.4613 168.207 66.8991 162.392C67.1623 163.368 66.7718 161.916 66.8991 162.392Z" fill="#FFFF00"></path>
      <path d="M41.7768 125.298C44.3833 128.805 43.0334 133.084 44.2644 137.032C46.4973 135.173 49.9443 134.493 52.5678 135.894C51.4895 135.037 50.7169 133.831 50.1905 132.575C49.6811 131.36 49.7745 130.231 48.9 129.289C46.3275 126.504 45.1729 122.599 41.8193 120.519C42.2777 122.004 40.8684 124.263 41.7768 125.298C41.8193 125.358 41.6834 125.188 41.7768 125.298Z" fill="#FFFF00"></path>
      <path d="M55.4714 136.523C56.0827 137.703 55.9213 139.248 56.3628 140.504C57.11 142.652 58.5023 144.376 60.5315 145.412C59.5891 142.44 59.3938 132.736 53.7394 135.376C54.3761 135.58 55.1148 135.911 55.4629 136.523H55.4714Z" fill="#FFFF00"></path>
      <path d="M37.1836 112.419C37.5572 112.759 37.9562 113.064 38.3892 113.327C37.5657 111.154 35.8846 108.225 36.4195 105.848C34.3394 107.758 35.3413 110.78 37.1836 112.419C36.5384 111.842 37.8289 112.996 37.1836 112.419Z" fill="#FFFF00"></path>
      <path d="M86.4315 188.752C86.4315 188.752 74.5716 182.916 73.3696 183.049C72.1675 183.183 68.0027 186.596 68.0027 186.596C68.0027 186.596 67.1042 182.289 65.7838 182.307C64.4603 182.325 59.7491 180.539 59.7491 180.539L26.3977 181.211L26.422 183.186L1.27563 187.092L2.0588 191.95L13.4846 192.892L42.4739 191.126L44.3438 185.678L44.4106 190.981L88.9965 191.926L89.6582 187.289L86.7714 187.171L86.4315 188.752Z" fill="url(#paint0_linear_155_48578)"></path>
      <path d="M86.4466 189.833C86.4466 189.833 74.5868 183.997 73.3847 184.13C72.1826 184.267 68.0179 187.677 68.0179 187.677C68.0179 187.677 67.1194 183.37 65.7989 183.388C64.4754 183.407 59.7643 181.62 59.7643 181.62L26.8135 181.671L26.8378 183.646L1.29077 188.174L2.07394 193.031L13.4997 193.973L42.489 192.208L44.3589 186.759L44.4257 192.062L89.0116 193.007L89.6734 188.37L86.7866 188.252L86.4466 189.833Z" fill="#661C2D"></path>
    </g>
    <defs>
      <linearGradient id="paint0_linear_155_48578" x1="46.6082" y1="171.725" x2="44.6856" y2="197.822" gradientUnits="userSpaceOnUse">
        <stop stop-color="#E9A828"></stop>
        <stop offset="0.99" stop-color="#DA1405"></stop>
      </linearGradient>
      <clipPath id="clip0_155_48578">
        <rect width="91" height="193" fill="white"></rect>
      </clipPath>
    </defs>
  </symbol>
  <symbol fill="none" xmlns="http://www.w3.org/2000/svg" viewBox="0 0 91 193" id="Frame-9">
    <g clip-path="url(#clip0_155_48598)">
      <path d="M70.0613 157.231C69.9509 154.879 69.6622 153.843 68.2359 152.094C66.7332 150.235 64.9248 146.737 64.9757 143.315C64.1012 141.711 63.2182 140.115 62.4287 138.467C60.5778 134.63 58.71 130.478 57.9629 126.259C57.6742 124.62 57.4535 122.498 58.5742 121.105C59.1515 120.384 58.6251 119.178 58.3959 118.329C57.4365 114.721 55.2715 111.834 52.8943 109.032C52.3 111.019 49.1841 109.771 48.0549 109.092C47.9955 114.958 52.682 119 53.964 124.433C52.4358 124.382 51.3745 122.684 50.3387 121.759C48.9633 120.528 47.4097 119.552 45.8305 118.618C42.8759 116.869 39.344 115.145 37.7904 111.876C37.7224 111.732 37.5356 111.893 37.3998 111.927C36.3895 112.225 35.532 111.656 34.9801 110.832C34.0547 109.423 33.6472 107.58 33.5368 105.908C33.2906 102.104 33.8085 97.7489 36.0923 94.5906C38.4016 96.781 41.5769 92.7312 41.5685 90.5662C41.5515 87.4504 38.9195 84.6571 38.563 81.4988C40.0487 78.7565 40.6176 76.1331 39.9384 73.0681C39.1997 69.7655 37.3574 66.8194 36.6951 63.4913C34.7254 68.0675 34.3009 73.2719 35.3707 78.1368C35.8886 80.514 36.8734 82.7553 37.2809 85.158C37.4423 86.1259 37.5102 87.1023 37.4592 88.0871C36.5763 88.7494 35.5405 88.5371 34.7 87.8834C30.5823 84.6571 32.4755 77.466 33.1123 73.1615C33.8424 68.3646 33.0104 63.5337 31.4397 59C31.618 61.165 31.7029 63.2451 31.2105 65.3846C30.6841 67.6939 29.9964 69.9183 29.8945 72.304C29.6993 77.084 30.6162 82.0167 28.8248 86.5929C28.1031 88.4692 26.8806 89.938 25.8108 91.6106C25.5391 93.6652 26.1929 95.7113 26.7702 97.647C27.7465 101.06 28.0097 105.967 25.4712 108.845C26.3796 109.448 27.2286 110.11 27.9928 110.892C28.5022 111.409 28.9691 111.97 29.4021 112.556C30.1068 112.675 30.7945 112.887 31.3209 113.405C32.3652 114.423 32.4586 116.105 32.2888 117.463C32.1105 119.008 32.6369 120.57 32.6369 122.149C32.6284 128.492 29.0371 134.808 26.49 140.42C26.1844 139.35 25.9042 138.272 25.6834 137.185C24.2741 138.892 23.1279 141.116 22.8902 143.341C22.7629 144.538 22.8647 145.854 23.4081 146.941C23.7732 147.679 23.077 149.097 22.8732 149.972C19.9951 155.83 19.5366 162.732 21.6252 168.922C22.5421 171.638 23.9345 174.194 25.7174 176.444C27.8569 179.144 31.0407 179.313 34.0123 180.799C35.082 181.334 36.0753 182.047 36.7206 183.075C37.646 184.535 37.3828 184.739 39.2931 185.214C42.3326 185.97 45.423 185.842 48.3521 185.808C50.2623 183.779 52.4018 182.429 55.297 182.395C56.0611 182.438 56.8252 182.54 57.5723 182.735C58.4638 182.234 59.3298 181.674 60.1533 181.071C61.5032 180.078 62.7428 178.948 63.872 177.7C68.8642 172.182 71.148 164.592 70.0443 157.231C70.0188 156.704 70.2226 158.445 70.0443 157.231H70.0613Z" fill="#FF8800"></path>
      <path d="M43.3259 62.8291C43.3259 61.8867 42.9184 60.9103 42.5109 60.0698C41.5345 61.9971 41.6024 63.6442 42.5109 65.5799C42.9184 64.7394 43.3259 63.7715 43.3259 62.8206V62.8291Z" fill="#FF8800"></path>
      <path d="M67.1407 158.25C66.9964 157.256 65.9351 156.942 65.2219 156.271C64.2286 155.337 63.3711 154.259 62.5221 153.189C61.0957 151.398 59.7458 149.505 58.0648 147.943C55.8913 154.285 48.5898 148.995 46.8408 145.183C44.3108 139.665 44.8966 133.059 41.6958 127.796C40.1421 131.056 36.3046 134.571 33.6897 130.071C31.5671 136.821 27.0674 142.755 27.1692 150.091C31.2869 147.917 35.2433 141.397 40.6261 144.063C45.7371 146.593 44.5655 155.015 46.1022 159.54C41.5685 157.868 37.8243 159.922 33.6642 161.62C31.5501 162.486 29.088 163.276 26.8721 162.282C24.9109 161.408 24.0534 159.234 23.2893 157.384C22.6525 160.763 22.7968 164.252 23.7308 167.555C24.7411 171.138 27.1268 173.286 30.421 174.899C33.6132 176.461 36.9074 177.819 38.2743 181.402C38.9196 183.092 38.8007 182.947 40.7704 183.346C42.7826 183.754 44.8457 183.873 46.8918 183.711C48.7256 183.567 48.5558 183.414 49.7529 182.234C50.8397 181.164 52.1811 180.443 53.6159 179.942C54.9489 179.475 56.3328 179.22 57.7421 179.135C59.4147 179.033 60.5014 177.692 61.6051 176.478C66.0625 171.571 68.1171 164.812 67.1407 158.258C67.1068 158.037 67.302 159.328 67.1407 158.258V158.25Z" fill="#FFFF00"></path>
      <path d="M42.8928 122.863C44.8116 125.265 46.9256 126.352 49.3963 128.076C49.3878 123.576 45.8304 121.394 41.7212 121.284C42.1032 121.818 42.5023 122.336 42.8928 122.854C43.572 123.703 42.5617 122.421 42.8928 122.854V122.863Z" fill="#FFFF00"></path>
      <path d="M35.8207 121.292C37.5527 119.908 37.8753 117.514 35.5235 116.572C35.099 118.584 34.8273 119.356 35.8207 121.292Z" fill="#FFFF00"></path>
      <path d="M31.5416 100.474C32.3737 98.1565 31.9831 95.4227 33.0189 93.2407C30.1917 94.684 30.6587 98.0037 31.5416 100.474Z" fill="#FFFF00"></path>
      <path d="M86.4315 188.752C86.4315 188.752 74.5716 182.916 73.3696 183.049C72.1675 183.183 68.0027 186.596 68.0027 186.596C68.0027 186.596 67.1042 182.289 65.7838 182.307C64.4603 182.325 59.7491 180.539 59.7491 180.539L26.3977 181.211L26.422 183.186L1.27563 187.092L2.0588 191.95L13.4846 192.892L42.4739 191.126L44.3438 185.678L44.4106 190.981L88.9965 191.926L89.6582 187.289L86.7714 187.171L86.4315 188.752Z" fill="url(#paint0_linear_155_48598)"></path>
      <path d="M86.4466 189.833C86.4466 189.833 74.5868 183.997 73.3847 184.13C72.1826 184.267 68.0179 187.677 68.0179 187.677C68.0179 187.677 67.1194 183.37 65.7989 183.388C64.4754 183.407 59.7643 181.62 59.7643 181.62L26.8135 181.671L26.8378 183.646L1.29077 188.174L2.07394 193.031L13.4997 193.973L42.489 192.208L44.3589 186.759L44.4257 192.062L89.0116 193.007L89.6734 188.37L86.7866 188.252L86.4466 189.833Z" fill="#661C2D"></path>
    </g>
    <defs>
      <linearGradient id="paint0_linear_155_48598" x1="46.6082" y1="171.725" x2="44.6856" y2="197.822" gradientUnits="userSpaceOnUse">
        <stop stop-color="#E9A828"></stop>
        <stop offset="0.99" stop-color="#DA1405"></stop>
      </linearGradient>
      <clipPath id="clip0_155_48598">
        <rect width="91" height="193" fill="white"></rect>
      </clipPath>
    </defs>
  </symbol>
  <symbol fill="none" xmlns="http://www.w3.org/2000/svg" viewBox="0 0 91 193" id="Frame-10">
    <g clip-path="url(#clip0_155_48623)">
      <path d="M70.5663 156.335C69.9465 152.82 68.3758 149.67 67.0004 146.41C65.625 143.15 64.6827 139.873 64.0883 136.383C63.7148 134.066 61.8639 132.843 60.8621 130.678C59.6056 127.961 59.9706 124.786 58.6377 122.239C57.0755 119.242 54.8087 116.593 52.4484 114.19C51.2683 112.985 50.0542 111.821 48.8486 110.641C48.2712 110.073 47.6939 109.504 47.1251 108.926C46.2421 108.026 46.2421 107.627 45.9619 106.413C44.5696 100.3 39.5349 95.3507 40.5622 88.635C36.4785 90.5623 35.2135 95.6648 34.9842 99.774C34.8908 101.362 35.3918 114.98 31.2741 112.407C30.9684 113.273 30.1024 115.922 28.8119 114.725C27.496 113.579 27.3347 111.915 27.4875 110.285C25.73 114.555 23.7603 118.41 24.6178 123.19C31.291 120.796 29.7373 130.873 28.5572 134.354C26.6215 140.017 22.8094 145.026 21.9349 151.054C21.5274 153.89 21.0689 156.913 20.967 159.782C20.9076 161.336 21.001 162.898 21.2302 164.443C21.3661 165.352 21.5529 166.252 21.7906 167.143C22.0283 168.018 22.4953 168.026 23.2339 168.442C24.0999 168.935 24.9744 169.546 25.4329 170.471C25.747 171.091 26.5536 171.38 27.0375 171.906C27.8356 172.764 28.3195 173.782 28.4723 174.937C28.6421 176.227 27.9035 178.027 28.8374 178.91C36.886 186.475 49.3156 187.834 58.7905 182.128C60.8706 180.872 62.7639 179.318 64.4025 177.526C65.1666 176.686 65.8798 175.795 66.525 174.861C66.7203 173.392 67.0684 171.991 67.4759 170.573C67.8749 169.401 68.3589 168.272 69.0041 167.211C69.3862 166.591 70.422 165.785 70.5408 165.122C71.0587 162.219 71.0672 159.247 70.5493 156.344C70.1248 153.949 70.7955 157.762 70.5493 156.344L70.5663 156.335Z" fill="#FF8800"></path>
      <path d="M31.4184 66.6456C32.1995 61.7044 37.1832 58.7499 38.9662 54.2501C41.25 49.1136 38.5756 42.5847 36.1305 38C36.4022 47.857 29.5336 56.5254 31.4184 66.6456C31.4524 66.4164 31.359 66.3485 31.4184 66.6456Z" fill="#FF8800"></path>
      <path d="M28.3789 91.2076C30.0515 94.7479 34.1267 91.3689 34.4579 88.6096C34.6446 87.0474 34.3135 85.4428 33.872 83.957C33.7107 83.4221 32.4202 79.0412 31.9618 79.0158C31.325 79.7969 30.7222 80.561 30.2128 81.4354C30.6967 78.1752 30.4675 75.1188 28.4808 72.3595C29.2619 75.0254 28.345 78.3875 28.0139 81.0704C27.6148 84.3051 27.0884 88.1172 28.3789 91.2076C28.5572 91.5811 27.9035 90.0614 28.3789 91.2076Z" fill="#FF8800"></path>
      <path d="M45.3846 92.9395C45.6138 93.3725 45.9364 93.7375 46.3355 94.0092C46.5392 91.9292 49.5277 91.5726 51.056 92.3876C51.4125 87.7351 43.746 88.5671 45.3761 92.9395C45.4355 93.0583 45.3336 92.8206 45.3761 92.9395H45.3846Z" fill="#FF8800"></path>
      <path d="M67.7646 158.025C67.6627 157.312 66.4656 156.599 65.9732 156.098C64.9883 155.087 64.1987 153.933 63.5195 152.693C62.195 150.265 61.4734 147.582 60.7687 144.925C59.3848 139.763 58.0858 134.448 54.0955 130.636C53.1276 134.804 48.891 136.01 47.3968 139.703C46.6836 141.461 46.8534 143.66 45.3082 144.993C44.0941 146.045 42.3876 146.674 40.8254 146.096C40.5962 149.654 38.5925 151.971 34.9078 152.082C31.1127 152.192 29.644 149.331 29.7289 145.893C27.0799 148.652 25.1527 152.082 24.2103 155.792C23.7518 157.583 23.5226 159.434 23.5226 161.285C23.5226 163.56 24.3461 164.274 26.3158 165.403C29.3128 167.126 30.9854 169.936 31.308 173.4C31.4609 175.022 31.4693 176.652 31.4184 178.274C32.9381 179.556 34.6192 180.634 36.4276 181.475C43.746 184.871 52.5503 183.954 59.0112 179.14C62.628 176.448 63.2139 172.73 64.9289 168.799C65.6505 167.152 66.4571 165.522 67.5184 164.07C68.5542 162.66 68.0108 159.697 67.7646 158.033C67.7476 157.923 67.9259 159.095 67.7646 158.033V158.025Z" fill="#FFFF00"></path>
      <path d="M33.091 132.741C34.3136 131.205 38.3719 121.704 41.3349 123.903C41.6236 121.339 41.3179 118.597 39.7388 116.474C39.2718 115.846 37.9643 116.381 37.4125 116.729C36.1899 117.493 35.9522 118.767 35.9946 120.108C36.0116 121.042 35.9946 121.832 35.4258 122.655C34.5683 123.903 33.3797 123.462 33.108 124.956C32.6241 127.698 33.0656 130.483 32.6495 133.217C32.8108 133.073 32.9552 132.911 33.091 132.741C33.0401 132.809 33.1844 132.623 33.091 132.741Z" fill="#FFFF00"></path>
      <path d="M38.0916 108.612C38.4821 107.577 38.584 106.464 38.3633 105.378C37.7775 107.39 36.8096 109.232 36.3002 111.287C36.9879 110.48 37.6756 109.597 38.0916 108.612C37.8369 109.224 38.3293 107.993 38.0916 108.612Z" fill="#FFFF00"></path>
      <path d="M42.6847 108.961C44.196 112.688 48.458 114.182 49.9778 117.875C49.9013 112.441 43.8734 110.981 42.2008 106.456C42.2008 107.322 42.3536 108.154 42.6847 108.952C43.2536 110.353 42.3961 108.256 42.6847 108.952V108.961Z" fill="#FFFF00"></path>
      <path d="M86.4315 188.752C86.4315 188.752 74.5716 182.916 73.3696 183.049C72.1675 183.183 68.0027 186.596 68.0027 186.596C68.0027 186.596 67.1042 182.289 65.7838 182.307C64.4603 182.325 59.7491 180.539 59.7491 180.539L26.3977 181.211L26.422 183.186L1.27563 187.092L2.0588 191.95L13.4846 192.892L42.4739 191.126L44.3438 185.678L44.4106 190.981L88.9965 191.926L89.6582 187.289L86.7714 187.171L86.4315 188.752Z" fill="url(#paint0_linear_155_48623)"></path>
      <path d="M86.4466 189.833C86.4466 189.833 74.5868 183.997 73.3847 184.13C72.1826 184.267 68.0179 187.677 68.0179 187.677C68.0179 187.677 67.1194 183.37 65.7989 183.388C64.4754 183.407 59.7643 181.62 59.7643 181.62L26.8135 181.671L26.8378 183.646L1.29077 188.174L2.07394 193.031L13.4997 193.973L42.489 192.208L44.3589 186.759L44.4257 192.062L89.0116 193.007L89.6734 188.37L86.7866 188.252L86.4466 189.833Z" fill="#661C2D"></path>
    </g>
    <defs>
      <linearGradient id="paint0_linear_155_48623" x1="46.6082" y1="171.725" x2="44.6856" y2="197.822" gradientUnits="userSpaceOnUse">
        <stop stop-color="#E9A828"></stop>
        <stop offset="0.99" stop-color="#DA1405"></stop>
      </linearGradient>
      <clipPath id="clip0_155_48623">
        <rect width="91" height="193" fill="white"></rect>
      </clipPath>
    </defs>
  </symbol>
  <symbol fill="none" xmlns="http://www.w3.org/2000/svg" viewBox="0 0 91 193" id="Frame-11">
    <g clip-path="url(#clip0_155_48647)">
      <path d="M70.2105 161.486C69.8539 155.908 68.3002 150.95 65.2692 146.255C64.7428 145.44 64.242 144.625 63.7241 143.802C63.1892 142.859 63.3844 142.469 63.4948 141.399C63.5967 140.439 63.6986 136.22 61.6525 137.018C60.9478 132.077 59.5978 126.974 57.5942 122.398C56.5159 120.309 55.183 118.56 53.9689 116.574C53.2642 115.419 52.6954 114.18 52.2284 112.915C51.7869 111.734 51.7105 110.249 50.9464 109.247C47.6607 104.908 43.8657 100.502 41.7007 95.4674C40.7838 93.3279 41.013 91.927 41.446 89.728C39.9687 92.1647 38.848 94.7882 38.9669 97.6918C36.301 95.5777 36.1651 90.4921 37.583 87.6565C39.3149 84.5576 37.6 78.9541 36.9717 75.7618C36.0548 71.1262 35.3755 66.6943 35.6387 61.9484C35.868 57.8307 36.4623 53.7384 36.8698 49.6377C32.7521 59.7155 31.2748 69.4367 32.3616 80.2785C32.8964 85.5849 33.8558 90.8657 34.153 96.1975C34.2888 98.6172 34.4756 101.759 33.0493 103.881C31.589 106.055 29.4494 105.07 29.0504 102.786C28.4731 105.401 26.9194 107.753 26.6307 110.435C26.3081 113.322 26.5543 116.591 27.9043 119.206C28.5665 120.488 30.2136 121.184 30.0607 122.525C29.8655 124.291 29.6192 126.032 29.3221 127.781C28.8212 131.313 27.7599 134.828 26.7071 138.224C25.7732 141.39 24.7035 144.515 23.6422 147.631C22.9121 149.787 20.9593 153.557 22.5979 155.492C23.4469 156.494 23.9564 157.836 23.8715 159.152C23.7781 160.425 23.6847 160.204 24.3384 161.325C25.994 164.169 22.1649 165.112 20.0509 165.095C20.9593 171.462 24.3639 177.312 29.4325 181.277C32.0984 183.357 35.1803 184.894 38.449 185.751C40.1385 186.193 41.3271 186.167 42.9997 186.074C44.825 185.972 46.4467 186.583 48.2805 186.329C51.9992 185.811 55.5735 184.435 58.6894 182.347C60.1157 181.387 61.4402 180.292 62.6458 179.061C63.1637 178.535 65.906 175.928 65.6088 175.224C64.8957 173.84 64.9721 172.159 65.8296 170.868C66.5003 169.858 65.8975 168.796 66.8654 167.812C67.7483 166.912 69.0389 166.419 70.185 165.935C70.4312 164.509 70.3208 162.896 70.202 161.461C70.0661 159.406 70.2869 162.48 70.202 161.461L70.2105 161.486Z" fill="#FF8800"></path>
      <path d="M26.6393 96.7918C27.3694 95.0937 28.626 93.7268 28.8552 91.8165C29.059 90.1185 28.7194 88.5308 28.1675 86.9347C27.5987 90.2883 26.2997 93.8541 26.3931 97.2756C26.478 97.1143 26.5544 96.9531 26.6393 96.7918C26.4865 97.0889 26.7666 96.4946 26.6393 96.7918Z" fill="#FF8800"></path>
      <path d="M44.8165 85.8819L44.9863 86.1536C45.4618 84.2943 45.8013 82.5284 46.1664 80.6436C44.1373 81.7558 43.6873 83.9292 44.8165 85.8819C44.9184 86.0517 44.7146 85.7121 44.8165 85.8819Z" fill="#FF8800"></path>
      <path d="M34.7812 38.0316C34.8407 38.176 34.9001 38.3203 34.9595 38.4646C36.3689 35.5016 36.9801 32.7763 34.7642 30C34.119 32.8951 33.6605 35.162 34.7812 38.0316C34.8916 38.3033 34.6708 37.76 34.7812 38.0316Z" fill="#FF8800"></path>
      <path d="M66.7805 160.281C66.6192 158.362 63.1128 156.987 61.5931 156.104C59.6658 155 58.2055 153.548 56.966 151.723C57.4329 154.992 57.2716 159.678 53.8331 161.325C50.3182 163.006 46.0137 161.215 43.2035 158.982C41.9724 158.023 41.5224 156.24 40.0367 156.46C37.9396 156.774 35.834 156.384 33.9153 155.543C30.5192 154.049 27.7175 151.29 25.7987 148.14C25.094 149.762 24.3045 151.341 23.6932 153.005C27.4968 153.183 29.7382 155.484 30.757 159.126C31.0287 160.086 31.8776 162.123 31.6229 163.108C31.0032 165.553 27.9213 166.054 25.8497 166.343C25.0516 166.453 24.2535 166.564 23.4639 166.742C22.4706 166.963 23.1413 167.973 23.3876 168.771C23.9989 170.732 24.8818 172.609 26.011 174.332C28.1165 177.55 31.0626 180.207 34.4841 181.973C36.1227 182.814 37.8632 183.45 39.6546 183.866C41.5903 184.308 43.4497 183.518 45.4534 183.815C46.7354 184.011 47.4485 184.291 48.7645 184.045C49.7493 183.858 50.7257 183.603 51.6766 183.289C53.7737 182.584 55.7689 181.566 57.5688 180.267C59.1564 179.129 60.5912 177.779 61.8223 176.276C62.3826 175.597 62.892 174.884 63.3675 174.137C62.8496 173.228 62.5439 172.226 62.5609 171.174C62.5949 169.162 63.7496 167.328 65.0486 165.876C65.6429 165.214 66.7465 164.602 66.806 163.702C66.8824 162.565 66.8739 161.419 66.772 160.281C66.7551 160.043 66.823 160.909 66.772 160.281H66.7805Z" fill="#FFFF00"></path>
      <path d="M33.3719 114.18C33.6266 115.02 33.9662 115.835 34.3652 116.616C36.2585 113.619 36.7594 111.259 36.1396 107.761C34.0341 109.417 32.7861 111.454 33.3719 114.18C33.4568 114.451 33.3125 113.908 33.3719 114.18Z" fill="#FFFF00"></path>
      <path d="M48.9937 134.021C50.7511 136.203 51.6171 138.818 53.0944 141.17C53.5868 141.951 54.1302 142.706 54.7754 143.377C55.2848 143.903 55.8791 144.404 56.5753 144.676C55.9555 144.43 57.9677 145.151 57.6875 144.931C54.9197 139.947 55.7008 134.097 55.4037 128.63C55.1575 124.045 53.6462 120.14 50.3011 116.922C50.7002 118.458 51.0228 120.131 50.7936 121.719C50.5304 123.408 49.0107 123.833 49.2908 125.403C49.5965 127.169 49.7832 129.046 49.5115 130.829C49.3248 132.034 48.3144 133.121 48.9937 134.012C49.138 134.191 48.9342 133.927 48.9937 134.012V134.021Z" fill="#FFFF00"></path>
      <path d="M86.4315 188.752C86.4315 188.752 74.5716 182.916 73.3696 183.049C72.1675 183.183 68.0027 186.596 68.0027 186.596C68.0027 186.596 67.1042 182.289 65.7838 182.307C64.4603 182.325 59.7491 180.539 59.7491 180.539L26.3977 181.211L26.422 183.186L1.27563 187.092L2.0588 191.95L13.4846 192.892L42.4739 191.126L44.3438 185.678L44.4106 190.981L88.9965 191.926L89.6582 187.289L86.7714 187.171L86.4315 188.752Z" fill="url(#paint0_linear_155_48647)"></path>
      <path d="M86.4466 189.833C86.4466 189.833 74.5868 183.997 73.3847 184.13C72.1826 184.267 68.0179 187.677 68.0179 187.677C68.0179 187.677 67.1194 183.37 65.7989 183.388C64.4754 183.407 59.7643 181.62 59.7643 181.62L26.8135 181.671L26.8378 183.646L1.29077 188.174L2.07394 193.031L13.4997 193.973L42.489 192.208L44.3589 186.759L44.4257 192.062L89.0116 193.007L89.6734 188.37L86.7866 188.252L86.4466 189.833Z" fill="#661C2D"></path>
    </g>
    <defs>
      <linearGradient id="paint0_linear_155_48647" x1="46.6082" y1="171.725" x2="44.6856" y2="197.822" gradientUnits="userSpaceOnUse">
        <stop stop-color="#E9A828"></stop>
        <stop offset="0.99" stop-color="#DA1405"></stop>
      </linearGradient>
      <clipPath id="clip0_155_48647">
        <rect width="91" height="193" fill="white"></rect>
      </clipPath>
    </defs>
  </symbol>
</svg>