<svg xmlns="http://www.w3.org/2000/svg" width="238" height="88" fill="none" viewBox="0 0 238 88"><path fill="#65AC1E" d="M-115 0h353v87.041h-353z"/><path fill="#fff" d="m91.613 62.698-2.218-8.153-2.268 8.153h-1.34l-2.484-9.709h1.308l1.904 8.078 2.176-8.078h1.424l2.193 8.078 1.97-8.078h1.291l-2.607 9.709h-1.349ZM100.791 62.25a3.218 3.218 0 0 1-1.986.597c-.502.011-1.001-.082-1.465-.273-.4-.17-.753-.431-1.035-.762a3.185 3.185 0 0 1-.637-1.167 5.552 5.552 0 0 1-.232-1.481 4.14 4.14 0 0 1 .24-1.465c.15-.428.384-.822.687-1.159a3.203 3.203 0 0 1 1.051-.778 3.162 3.162 0 0 1 1.325-.273 2.916 2.916 0 0 1 1.556.389c.401.25.74.586.993.985.247.402.42.845.513 1.307.094.44.133.891.116 1.341h-5.264c-.01.297.03.593.116.878.072.271.205.523.389.736.191.22.429.395.695.513.315.131.653.196.993.19a1.96 1.96 0 0 0 1.2-.347c.332-.249.555-.617.621-1.026h1.142a2.84 2.84 0 0 1-1.018 1.78v.016Zm-.281-4.518a2.124 2.124 0 0 0-.422-.63 2.07 2.07 0 0 0-2.227-.421 1.937 1.937 0 0 0-1.026 1.06c-.1.245-.16.505-.182.769h4.039a2.27 2.27 0 0 0-.182-.778ZM111.088 56.896a1.731 1.731 0 0 0-1.167-.373 2.213 2.213 0 0 0-1.06.232 1.845 1.845 0 0 0-.67.613 2.487 2.487 0 0 0-.348.877 4.66 4.66 0 0 0-.107 1.026c.001.321.04.64.116.952.07.295.19.575.356.828.165.242.386.441.645.58.287.155.609.233.935.223.489.026.97-.137 1.341-.456.335-.339.543-.783.588-1.258h1.184a3.268 3.268 0 0 1-.969 2.012 3.053 3.053 0 0 1-2.127.703 3.646 3.646 0 0 1-1.424-.256 2.771 2.771 0 0 1-1.034-.737 3.206 3.206 0 0 1-.621-1.134 4.476 4.476 0 0 1-.215-1.448 4.964 4.964 0 0 1 .207-1.474c.121-.442.329-.856.612-1.216.28-.353.636-.636 1.043-.828.457-.209.955-.31 1.457-.298.377-.001.752.046 1.117.14.334.092.648.243.927.448.271.202.496.459.662.753.18.336.29.705.323 1.084h-1.192a1.754 1.754 0 0 0-.579-1.034v.04ZM115.234 55.67v1.482c.239-.51.611-.948 1.076-1.266a2.626 2.626 0 0 1 1.556-.38v1.224a3.306 3.306 0 0 0-1.183.19 1.84 1.84 0 0 0-.828.555c-.184.27-.311.574-.372.894a4.802 4.802 0 0 0-.133 1.2v3.129h-1.159V55.67h1.043ZM123.445 62.251a3.177 3.177 0 0 1-1.978.596 3.618 3.618 0 0 1-1.465-.273 2.848 2.848 0 0 1-1.043-.762 3.177 3.177 0 0 1-.629-1.167 5.906 5.906 0 0 1-.24-1.481c-.006-.5.078-.996.248-1.465.151-.428.384-.822.687-1.159a3.126 3.126 0 0 1 2.368-1.035 2.873 2.873 0 0 1 1.556.39c.402.246.742.584.993.984.249.402.426.845.521 1.308.093.44.135.89.124 1.34h-5.272a2.74 2.74 0 0 0 .108.878 1.935 1.935 0 0 0 1.092 1.25c.315.131.653.196.993.19.428.019.849-.104 1.201-.347.331-.25.554-.617.62-1.026h1.143a2.817 2.817 0 0 1-1.027 1.779Zm-.273-4.52a2.087 2.087 0 0 0-.422-.628 2.216 2.216 0 0 0-.629-.422 2.061 2.061 0 0 0-.828-.157 2.109 2.109 0 0 0-.827.157c-.232.1-.441.246-.613.43a2.037 2.037 0 0 0-.414.63c-.1.244-.159.504-.174.769h4.039a2.455 2.455 0 0 0-.182-.778h.05ZM132.037 62.673a1.66 1.66 0 0 1-.828.174.994.994 0 0 1-.712-.248 1.113 1.113 0 0 1-.215-.388 1.114 1.114 0 0 1-.05-.44 2.812 2.812 0 0 1-1.109.828 3.704 3.704 0 0 1-1.365.248 3.548 3.548 0 0 1-.903-.108 2.19 2.19 0 0 1-.744-.339 1.689 1.689 0 0 1-.497-.604 2.146 2.146 0 0 1-.199-.902 2.033 2.033 0 0 1 .182-.994c.129-.243.313-.453.538-.612.229-.168.487-.292.762-.364.281-.083.571-.15.877-.207.306-.058.613-.108.902-.14.254-.027.506-.071.753-.133.189-.047.364-.134.514-.257a.628.628 0 0 0 .19-.496 1.093 1.093 0 0 0-.141-.613.995.995 0 0 0-.364-.356 1.657 1.657 0 0 0-.505-.165 4.267 4.267 0 0 0-.554 0 2.485 2.485 0 0 0-1.217.281 1.159 1.159 0 0 0-.53 1.051h-1.158c.004-.383.098-.76.273-1.1.156-.293.38-.543.654-.729.282-.188.596-.323.927-.397a4.822 4.822 0 0 1 1.125-.124c.316.001.631.023.944.066.29.045.57.14.827.281.254.138.465.34.613.588.167.303.247.647.232.993v3.609c-.007.2.009.4.049.596 0 .124.141.19.315.19.121 0 .241-.02.356-.058v.902l.058-.033Zm-1.912-3.6c-.172.118-.366.2-.571.24-.243.05-.491.09-.745.124l-.778.108c-.244.036-.483.1-.712.19-.198.086-.371.22-.505.389-.143.2-.213.442-.199.687a.903.903 0 0 0 .414.828c.131.085.277.145.431.173.168.041.34.06.513.058a2.8 2.8 0 0 0 .976-.157c.245-.088.473-.22.671-.389.161-.146.291-.323.381-.521.077-.16.119-.336.124-.514v-1.216ZM136.076 55.671v1.018h-1.399v4.362c-.015.11-.015.221 0 .331a.385.385 0 0 0 .124.19.593.593 0 0 0 .265.083c.149.01.298.01.447 0h.53v1.018h-.853a4.14 4.14 0 0 1-.769-.058 1.163 1.163 0 0 1-.513-.223.95.95 0 0 1-.29-.464 2.572 2.572 0 0 1-.099-.828v-4.469h-1.192v-.96h1.192v-2.11h1.158v2.11h1.399ZM142.324 62.251a3.177 3.177 0 0 1-1.978.596 3.616 3.616 0 0 1-1.465-.273 2.74 2.74 0 0 1-1.051-.762 3.187 3.187 0 0 1-.637-1.167 5.925 5.925 0 0 1-.191-1.481c-.006-.5.078-.996.249-1.465a3.42 3.42 0 0 1 .687-1.159 3.111 3.111 0 0 1 2.375-1.035c.548-.02 1.09.116 1.564.39.375.257.688.593.919.984.253.4.43.844.521 1.308.09.441.129.891.116 1.341h-5.239c-.007.296.029.592.108.877a1.935 1.935 0 0 0 1.092 1.25c.315.131.653.196.993.19.428.019.849-.104 1.201-.347.331-.25.554-.617.62-1.026h1.143a2.817 2.817 0 0 1-1.027 1.779Zm-.273-4.52a2.087 2.087 0 0 0-.422-.628 2.216 2.216 0 0 0-.629-.422 2.11 2.11 0 0 0-1.597 0 1.921 1.921 0 0 0-1.027 1.06 2.403 2.403 0 0 0-.182.769h4.039a2.483 2.483 0 0 0-.182-.778ZM152.628 56.896a1.728 1.728 0 0 0-1.167-.373c-.361-.01-.72.07-1.043.232a1.941 1.941 0 0 0-.678.613c-.162.27-.272.567-.323.877a4.66 4.66 0 0 0-.108 1.026c-.006.321.03.641.108.952.067.296.188.576.356.828.164.24.382.438.637.58a2.146 2.146 0 0 0 2.276-.233c.341-.335.552-.781.596-1.258h1.184a3.313 3.313 0 0 1-.977 2.012 3.036 3.036 0 0 1-2.127.703 3.599 3.599 0 0 1-1.415-.256 2.767 2.767 0 0 1-1.035-.737 3.103 3.103 0 0 1-.654-1.134 4.706 4.706 0 0 1-.207-1.448 5.315 5.315 0 0 1 .199-1.474c.127-.441.338-.854.621-1.216a2.839 2.839 0 0 1 1.043-.828c.456-.209.954-.31 1.456-.298.377-.001.753.046 1.118.14.333.094.646.245.927.448.27.2.493.457.653.753.183.335.295.704.331 1.084h-1.2a1.743 1.743 0 0 0-.571-.993ZM156.866 52.99v3.716c.082-.212.213-.402.381-.555.159-.152.344-.275.546-.364.204-.095.417-.167.637-.215.213-.042.429-.064.646-.067.395-.01.788.054 1.158.19.288.114.544.296.745.53.196.243.334.525.406.828.079.342.118.692.116 1.043v4.619h-1.159v-4.776a1.395 1.395 0 0 0-.381-1.035 1.44 1.44 0 0 0-1.043-.38 2.363 2.363 0 0 0-.918.165c-.25.1-.471.259-.646.464a1.922 1.922 0 0 0-.389.695c-.08.285-.114.581-.099.877v3.973h-1.134v-9.709h1.134ZM168.263 62.25a3.217 3.217 0 0 1-1.986.597 3.552 3.552 0 0 1-1.457-.273 2.847 2.847 0 0 1-1.043-.762 3.192 3.192 0 0 1-.629-1.167 5.597 5.597 0 0 1-.24-1.481 4.322 4.322 0 0 1 .24-1.465c.154-.426.387-.82.687-1.159a3.206 3.206 0 0 1 1.052-.778 3.158 3.158 0 0 1 1.324-.273 2.914 2.914 0 0 1 1.556.389c.403.247.743.584.993.985.25.4.424.844.513 1.307.094.44.133.891.116 1.341h-5.256c-.011.297.025.593.108.878.076.27.208.521.389.736.192.22.429.395.695.513.315.131.653.196.993.19.428.02.85-.102 1.201-.347.331-.249.554-.617.62-1.026h1.142a2.832 2.832 0 0 1-1.018 1.78v.016Zm-.281-4.518a1.826 1.826 0 0 0-.422-.63 1.948 1.948 0 0 0-1.415-.579 2.11 2.11 0 0 0-.828.158 1.943 1.943 0 0 0-.621.43 2.002 2.002 0 0 0-.405.63c-.101.244-.16.504-.174.769h4.031a2.294 2.294 0 0 0-.182-.778h.016ZM171.673 55.671v1.035a2.74 2.74 0 0 1 3.484-.944 1.55 1.55 0 0 1 .745.927c.226-.371.546-.677.927-.886.392-.209.83-.317 1.275-.314.323-.002.646.037.96.116.266.067.515.191.728.364.21.166.375.382.48.629.121.297.177.615.166.935v5.148h-1.151v-4.593a2.863 2.863 0 0 0-.058-.613 1.21 1.21 0 0 0-.198-.496 1.076 1.076 0 0 0-.422-.331 1.657 1.657 0 0 0-.687-.125 1.793 1.793 0 0 0-1.341.497 1.748 1.748 0 0 0-.489 1.3v4.378h-1.158v-4.61a2.94 2.94 0 0 0-.058-.62 1.367 1.367 0 0 0-.215-.498 1.05 1.05 0 0 0-.398-.33 1.577 1.577 0 0 0-.645-.117c-.289 0-.573.071-.828.207a1.91 1.91 0 0 0-.588.489c-.141.18-.253.38-.331.596a1.674 1.674 0 0 0-.099.505v4.378h-1.15V55.67h1.051ZM182.25 54.405v-1.416h1.151v1.416h-1.151Zm1.151 1.266v7.027h-1.151V55.67h1.151ZM186.083 61.125c.104.176.252.322.43.422.183.111.385.187.596.224.226.047.456.07.687.066.191.002.382-.012.571-.041.188-.022.373-.072.546-.15a.971.971 0 0 0 .414-.314.826.826 0 0 0 .165-.538.773.773 0 0 0-.339-.679 2.707 2.707 0 0 0-.828-.372c-.339-.1-.703-.182-1.1-.265a5.426 5.426 0 0 1-1.109-.322 2.343 2.343 0 0 1-.828-.588 1.573 1.573 0 0 1-.339-1.068c-.007-.32.076-.635.24-.91.154-.25.363-.459.612-.613.255-.162.534-.282.828-.356a4.07 4.07 0 0 1 .935-.116 5.73 5.73 0 0 1 1.101.1c.316.067.618.187.894.356.259.17.47.403.612.678.169.332.262.697.273 1.068h-1.15a1.263 1.263 0 0 0-.182-.563 1.141 1.141 0 0 0-.381-.364 2.051 2.051 0 0 0-.505-.19 2.687 2.687 0 0 0-.571-.067 3.806 3.806 0 0 0-.521 0c-.166.024-.328.071-.48.141a1.086 1.086 0 0 0-.356.273.701.701 0 0 0-.133.447.655.655 0 0 0 .207.497c.159.138.341.248.538.323.24.09.486.163.737.215l.827.182c.29.066.572.14.828.232.262.086.51.208.737.364.208.15.383.342.513.563.137.254.206.539.199.827.012.371-.08.738-.265 1.06a2.183 2.183 0 0 1-.696.678c-.299.177-.627.3-.968.365-.352.066-.709.099-1.068.099a4.795 4.795 0 0 1-1.109-.124 2.845 2.845 0 0 1-.943-.397 2.055 2.055 0 0 1-.695-.712 2.49 2.49 0 0 1-.274-1.11h1.151c.006.228.069.45.182.646l.017.033ZM194.997 55.671v1.018h-1.399v4.362c-.015.11-.015.221 0 .331a.38.38 0 0 0 .133.19c.079.05.171.078.264.083.146.01.293.01.439 0h.53v1.018h-.853a4.015 4.015 0 0 1-.761-.058 1.161 1.161 0 0 1-.522-.223 1.01 1.01 0 0 1-.289-.464 2.573 2.573 0 0 1-.1-.828v-4.469h-1.191v-.96h1.208v-2.11h1.159v2.11h1.382ZM197.323 55.671v1.482a3.172 3.172 0 0 1 1.034-1.267 2.601 2.601 0 0 1 1.548-.38v1.224a3.31 3.31 0 0 0-1.175.19 1.862 1.862 0 0 0-.828.555 2.355 2.355 0 0 0-.43.894c-.067.397-.084.8-.05 1.2v3.129h-1.151V55.67h1.052ZM203.563 63.633a7.317 7.317 0 0 1-.405.87c-.11.215-.255.411-.43.579a1.657 1.657 0 0 1-.53.33 2.114 2.114 0 0 1-.671.1 3.47 3.47 0 0 1-.413 0 2.052 2.052 0 0 1-.389-.1v-1.084c.11.046.223.085.339.116.111.03.225.047.339.05a.969.969 0 0 0 .588-.174c.165-.122.291-.288.364-.48l.472-1.184-2.781-6.985h1.299l2.053 5.794 1.978-5.794h1.217l-3.054 7.962h.024ZM127.476 21.662h12.299c4.511 0 6.572 3.004 6.572 5.794 0 1.978-.762 3.26-2.806 4.444 2.582.952 3.981 2.674 3.981 5.322 0 3.17-2.301 6.539-7.73 6.539h-12.316V21.662Zm6.721 17.083h4.461a2.136 2.136 0 0 0 2.301-2.135 1.924 1.924 0 0 0-2.078-1.83h-4.684v3.965Zm0-8.392h3.575c1.656 0 2.293-.762 2.293-1.88a1.654 1.654 0 0 0-1.125-1.6 1.654 1.654 0 0 0-.688-.08h-4.047l-.008 3.56ZM154.515 21.662h7.11l8.095 22.04h-7.292l-1.068-3.31h-6.811l-.911 3.31h-7.242l8.119-22.04Zm3.311 6.539-1.879 7.358h4.014l-2.135-7.358ZM181.059 28.217h6.786c0-3.74-2.838-7.217-9.46-7.217-7.325 0-9.601 4.047-9.601 7.002 0 4.776 5.844 6.042 6.026 6.1.869.273 4.502 1.25 5.404 1.572a2.07 2.07 0 0 1 1.482 1.747c0 1.291-1.531 1.903-2.814 1.903-.828 0-3.576-.264-3.576-3.186h-7.002c0 3.873 2.674 8.219 10.164 8.219 8.277 0 9.99-4.966 9.99-7.549a6.07 6.07 0 0 0-4.006-5.644c-1.655-.68-4.478-1.275-5.876-1.656-.704-.207-3.063-.678-3.063-2.118 0-1.838 3.038-1.598 2.591-1.598 1.382-.033 2.955.737 2.955 2.425ZM189.617 21.654h16.926v5.826h-10.156v3.882h9.055v5.57h-9.088v6.787h-6.762l.025-22.065ZM83.336 21.662v22.066h22.074V21.662H83.336Zm15.279 15.279H90.13v-8.492h8.484v8.492ZM120.689 28.449h-8.492v8.492h8.492v-8.492Z"/></svg>