<svg width="226" height="82" viewBox="0 0 226 82" fill="none" xmlns="http://www.w3.org/2000/svg">
<path d="M16.0279 76.0919L11.9802 61.2148L7.8418 76.0919H5.39502L0.863953 58.3754H3.25032L6.72414 73.1165L10.6964 58.3754H13.2942L17.2966 73.1165L20.8913 58.3754H23.2474L18.4898 76.0919H16.0279Z" fill="white"/>
<path d="M32.7765 75.2762C31.7213 76.0285 30.4468 76.4109 29.1517 76.3636C28.2356 76.3849 27.3252 76.2151 26.4783 75.8652C25.75 75.5543 25.1038 75.0786 24.5904 74.4757C24.0573 73.8555 23.661 73.1298 23.4274 72.3461C23.1649 71.4682 23.0226 70.5587 23.0045 69.6425C22.9882 68.7323 23.1366 67.8266 23.4425 66.9692C23.7171 66.1887 24.1431 65.4701 24.6961 64.8547C25.2311 64.2546 25.884 63.7713 26.6143 63.435C27.3744 63.0965 28.1988 62.9265 29.0308 62.9366C30.0251 62.9029 31.0089 63.1488 31.8703 63.6464C32.602 64.1015 33.2216 64.7159 33.6827 65.4438C34.1333 66.1777 34.4503 66.9856 34.6192 67.8301C34.7905 68.6338 34.8616 69.4557 34.8306 70.2769H25.2247C25.2083 70.8185 25.2797 71.3591 25.4362 71.8779C25.5683 72.3738 25.811 72.8334 26.1461 73.2221C26.4958 73.6228 26.9288 73.9424 27.4148 74.1585C27.9887 74.3974 28.6056 74.5157 29.2272 74.5059C30.0068 74.5388 30.7759 74.3161 31.4172 73.8715C32.0225 73.417 32.4285 72.7459 32.55 71.9987H34.6343C34.4411 73.2747 33.7786 74.4327 32.7765 75.246V75.2762ZM32.263 67.0296C32.0779 66.6035 31.8169 66.2146 31.4927 65.8818C30.9638 65.3721 30.2977 65.0278 29.5761 64.891C28.8545 64.7542 28.1086 64.8308 27.4299 65.1115C27.0044 65.2964 26.6195 65.5633 26.2971 65.8969C25.9805 66.2296 25.7294 66.619 25.557 67.0447C25.3757 67.4934 25.2636 67.967 25.2247 68.4494H32.5953C32.5691 67.9602 32.4566 67.4796 32.263 67.0296Z" fill="white"/>
<path d="M51.5664 65.5043C50.9632 65.0255 50.2058 64.7838 49.4368 64.8246C48.7673 64.8028 48.1028 64.9481 47.5036 65.2475C47.009 65.5124 46.5885 65.8965 46.2802 66.3652C45.9683 66.8534 45.753 67.3968 45.6458 67.9661C45.511 68.5812 45.4451 69.2094 45.4495 69.839C45.4509 70.4243 45.5219 71.0074 45.6609 71.5759C45.7884 72.1131 46.0082 72.6242 46.3104 73.0863C46.6117 73.5288 47.016 73.8916 47.4885 74.1435C48.0111 74.4285 48.6001 74.5693 49.1952 74.5513C50.0872 74.5993 50.9635 74.3018 51.6419 73.7206C52.2531 73.1017 52.6319 72.2908 52.7143 71.4249H54.8741C54.7352 72.818 54.1094 74.1176 53.107 75.095C52.0225 75.9992 50.6351 76.4581 49.2254 76.3788C48.3368 76.398 47.4535 76.2388 46.6275 75.9106C45.9027 75.6147 45.2564 75.1545 44.7396 74.5664C44.2253 73.9608 43.8399 73.2568 43.6068 72.4972C43.3315 71.6438 43.1988 70.7507 43.2141 69.8541C43.2043 68.9441 43.3316 68.0378 43.5917 67.1657C43.8123 66.3584 44.1924 65.6035 44.7094 64.9454C45.219 64.3022 45.8703 63.7854 46.6124 63.4351C47.4458 63.0546 48.3548 62.8687 49.2707 62.8913C49.9585 62.8891 50.6438 62.9754 51.3097 63.1481C51.9185 63.3146 52.4918 63.591 53.0013 63.9637C53.4951 64.333 53.9066 64.8011 54.2095 65.3381C54.537 65.9513 54.7374 66.6243 54.7986 67.3167H52.6237C52.501 66.5838 52.1272 65.9163 51.5664 65.4287V65.5043Z" fill="white"/>
<path d="M59.1329 63.2688V65.9724C59.569 65.0404 60.2471 64.2424 61.0964 63.6615C61.9473 63.1396 62.9401 62.8967 63.9359 62.9667V65.2021C63.2008 65.1855 62.4688 65.3032 61.776 65.5495C61.189 65.7412 60.6663 66.0914 60.2657 66.5614C59.9295 67.0527 59.6982 67.608 59.586 68.1926C59.4136 68.9095 59.3324 69.6453 59.3444 70.3826V76.0918H57.2299V63.2688H59.1329Z" fill="white"/>
<path d="M74.1161 75.2763C73.0675 76.0307 71.7971 76.4134 70.5064 76.3638C69.5903 76.385 68.6799 76.2153 67.833 75.8654C67.1004 75.5545 66.4492 75.0791 65.93 74.4758C65.4015 73.8548 65.0104 73.1291 64.7821 72.3462C64.5216 71.4674 64.3744 70.5589 64.3441 69.6427C64.3326 68.7316 64.4861 67.8258 64.7972 66.9694C65.0718 66.1889 65.4978 65.4703 66.0508 64.8549C66.5943 64.25 67.261 63.7685 68.0061 63.4429C68.7512 63.1172 69.5574 62.9549 70.3704 62.9669C71.3651 62.9291 72.35 63.1753 73.2099 63.6768C73.945 64.1276 74.5654 64.7429 75.0223 65.4741C75.4776 66.2073 75.7997 67.0152 75.9739 67.8605C76.1429 68.6647 76.2189 69.4857 76.2004 70.3073H66.5794C66.5581 70.848 66.6244 71.3887 66.7758 71.9082C66.9192 72.4119 67.1724 72.8776 67.5171 73.2719C67.8618 73.6662 68.2895 73.9794 68.7695 74.1889C69.3434 74.4278 69.9603 74.546 70.5819 74.5363C71.3615 74.5692 72.1305 74.3464 72.7719 73.9019C73.3772 73.4474 73.7832 72.7762 73.9047 72.0291H75.989C75.7962 73.3088 75.1273 74.4686 74.1161 75.2763ZM73.6177 67.0298C73.4326 66.6037 73.1716 66.2147 72.8474 65.8819C72.512 65.561 72.1237 65.3004 71.6995 65.1116C71.2212 64.913 70.707 64.8153 70.1892 64.8247C69.6716 64.8178 69.1579 64.9154 68.6788 65.1116C68.2559 65.2932 67.8753 65.5606 67.5612 65.897C67.24 66.2291 66.9838 66.6185 66.806 67.0449C66.6227 67.4921 66.5155 67.9669 66.4888 68.4495H73.8594C73.826 67.9614 73.7138 67.482 73.5271 67.0298H73.6177Z" fill="white"/>
<path d="M89.7938 76.0467C89.3263 76.2814 88.8059 76.3907 88.2835 76.3638C87.8078 76.3894 87.3412 76.2266 86.9846 75.9107C86.8079 75.7036 86.6743 75.4634 86.5913 75.2041C86.5083 74.9448 86.4777 74.6716 86.5013 74.4004C85.9629 75.0644 85.2672 75.5836 84.4774 75.9107C83.6826 76.2173 82.8371 76.371 81.9853 76.3638C81.4304 76.3693 80.8771 76.3033 80.339 76.1675C79.8512 76.0479 79.3901 75.8378 78.9797 75.5482C78.5959 75.2563 78.2856 74.8788 78.0735 74.4457C77.834 73.9299 77.7102 73.368 77.711 72.7994C77.6665 72.1769 77.7808 71.5532 78.0433 70.987C78.2778 70.5422 78.6142 70.1592 79.025 69.8693C79.4419 69.5618 79.9135 69.3363 80.4145 69.2047C80.928 69.0537 81.4567 68.9329 82.0155 68.8272C82.5743 68.7214 83.1332 68.6308 83.6618 68.5704C84.1251 68.5223 84.5843 68.4416 85.0362 68.3287C85.3793 68.2444 85.6993 68.0844 85.9726 67.8605C86.0941 67.7446 86.1882 67.6032 86.2483 67.4465C86.3084 67.2898 86.3329 67.1217 86.32 66.9543C86.3448 66.5647 86.2556 66.1763 86.0633 65.8366C85.9014 65.5665 85.6725 65.3428 85.3987 65.1872C85.1099 65.0376 84.7987 64.9355 84.4774 64.8851C84.1404 64.8632 83.8024 64.8632 83.4654 64.8851C82.6937 64.8644 81.9295 65.0411 81.2452 65.3986C80.9274 65.6029 80.6702 65.8885 80.5002 66.2258C80.3302 66.5632 80.2537 66.9399 80.2786 67.3168H78.1641C78.173 66.6177 78.3436 65.9302 78.6625 65.308C78.9472 64.7753 79.3566 64.3193 79.8557 63.9789C80.3702 63.6353 80.9436 63.3895 81.5473 63.2539C82.2207 63.0982 82.9102 63.0222 83.6014 63.0274C84.1773 63.0301 84.7525 63.0704 85.3232 63.1482C85.8525 63.2308 86.3635 63.4046 86.8335 63.6617C87.2955 63.9125 87.6816 64.2829 87.9512 64.7341C88.2566 65.2877 88.4029 65.9149 88.3741 66.5465V73.1317C88.3615 73.4965 88.392 73.8615 88.4647 74.2191C88.4647 74.4457 88.7215 74.5665 89.0387 74.5665C89.2593 74.5649 89.4784 74.5292 89.6881 74.4608V76.1071L89.7938 76.0467ZM86.3049 69.4766C85.9916 69.6932 85.6367 69.8424 85.2628 69.9146C84.8197 70.0052 84.3666 70.0808 83.9034 70.1412L82.4837 70.3375C82.0392 70.4046 81.6035 70.5211 81.1848 70.6849C80.8242 70.8425 80.5078 71.0862 80.2635 71.3948C80.0033 71.7591 79.8754 72.2014 79.901 72.6484C79.8788 72.9448 79.9372 73.2418 80.0702 73.5077C80.2031 73.7737 80.4056 73.9986 80.6562 74.1587C80.8943 74.3156 81.1613 74.4234 81.4416 74.4759C81.7479 74.5509 82.0626 74.5864 82.378 74.5816C82.9844 74.5923 83.5878 74.4951 84.1602 74.2946C84.6073 74.1334 85.0217 73.893 85.3836 73.5848C85.6779 73.3185 85.9143 72.9946 86.0784 72.6333C86.2193 72.3407 86.2965 72.0215 86.3049 71.6968V69.4766Z" fill="white"/>
<path d="M97.1651 63.269V65.1268H94.6126V73.0863C94.5847 73.2867 94.5847 73.4901 94.6126 73.6905C94.651 73.8266 94.73 73.9478 94.8392 74.0379C94.9859 74.1261 95.1516 74.1779 95.3225 74.1889C95.594 74.2073 95.8665 74.2073 96.1381 74.1889H97.1047V76.0466H95.549C95.0785 76.0552 94.6083 76.0198 94.1444 75.9409C93.8038 75.8829 93.4824 75.743 93.208 75.5331C92.9529 75.3089 92.7691 75.0149 92.6793 74.6873C92.5375 74.197 92.4763 73.6869 92.4981 73.177V65.021H90.3232V63.269H92.4981V59.4176H94.6126V63.269H97.1651Z" fill="white"/>
<path d="M108.567 75.2764C107.518 76.0307 106.248 76.4135 104.957 76.3638C104.041 76.3851 103.131 76.2153 102.284 75.8654C101.543 75.5626 100.885 75.086 100.366 74.4759C99.8327 73.8557 99.4364 73.13 99.2028 72.3463C98.973 71.4635 98.8563 70.555 98.8555 69.6428C98.844 68.7316 98.9975 67.8259 99.3086 66.9694C99.5831 66.1889 100.009 65.4703 100.562 64.8549C101.107 64.2481 101.776 63.7655 102.524 63.4398C103.272 63.114 104.081 62.9528 104.897 62.967C105.896 62.9312 106.885 63.1772 107.751 63.6768C108.435 64.1464 109.007 64.7599 109.428 65.4742C109.889 66.2042 110.212 67.0132 110.379 67.8605C110.543 68.6653 110.614 69.4863 110.591 70.3073H101.03C101.017 70.8477 101.083 71.3872 101.227 71.9083C101.37 72.412 101.623 72.8777 101.968 73.272C102.313 73.6663 102.74 73.9794 103.22 74.1889C103.794 74.4278 104.411 74.5461 105.033 74.5363C105.812 74.5692 106.581 74.3465 107.223 73.902C107.828 73.4474 108.234 72.7763 108.356 72.0291H110.44C110.247 73.3089 109.578 74.4686 108.567 75.2764ZM108.069 67.0298C107.883 66.6037 107.622 66.2148 107.298 65.882C106.963 65.561 106.575 65.3005 106.15 65.1117C105.216 64.7298 104.17 64.7298 103.235 65.1117C102.81 65.2966 102.425 65.5635 102.103 65.8971C101.786 66.2298 101.535 66.6192 101.363 67.0449C101.174 67.4914 101.062 67.9661 101.03 68.4496H108.401C108.368 67.9615 108.255 67.482 108.069 67.0298Z" fill="white"/>
<path d="M127.371 65.5043C126.767 65.0255 126.01 64.7838 125.241 64.8246C124.581 64.8059 123.928 64.9512 123.338 65.2475C122.842 65.5159 122.417 65.8991 122.099 66.3652C121.804 66.8567 121.604 67.4 121.51 67.9661C121.376 68.5812 121.31 69.2094 121.314 69.839C121.303 70.4241 121.369 71.008 121.51 71.5759C121.633 72.1147 121.853 72.6266 122.16 73.0863C122.46 73.5247 122.858 73.8868 123.323 74.1435C123.984 74.4725 124.726 74.6073 125.461 74.5325C126.196 74.4576 126.895 74.1762 127.476 73.7206C128.098 73.1077 128.484 72.2945 128.564 71.4249H130.724C130.573 72.8179 129.943 74.1153 128.941 75.095C127.858 76.0019 126.47 76.4611 125.06 76.3788C124.176 76.3981 123.298 76.2388 122.477 75.9106C121.752 75.6147 121.106 75.1545 120.589 74.5664C120.048 73.9699 119.641 73.2643 119.396 72.4972C119.133 71.6412 119.006 70.7494 119.018 69.8541C119.012 68.9453 119.134 68.0402 119.381 67.1657C119.613 66.3599 119.998 65.6062 120.514 64.9454C121.02 64.2987 121.672 63.781 122.417 63.4351C123.25 63.0546 124.159 62.8687 125.075 62.8913C125.763 62.8891 126.448 62.9754 127.114 63.1481C127.722 63.3177 128.294 63.5939 128.805 63.9637C129.299 64.3294 129.706 64.7985 129.999 65.3381C130.331 65.9502 130.537 66.6232 130.603 67.3167H128.413C128.279 66.6125 127.912 65.974 127.371 65.5043Z" fill="white"/>
<path d="M135.103 58.3754V65.1569C135.254 64.7705 135.492 64.4242 135.798 64.145C136.09 63.8676 136.427 63.6428 136.795 63.4804C137.167 63.307 137.557 63.1753 137.958 63.0877C138.346 63.0116 138.741 62.9712 139.136 62.9669C139.857 62.9474 140.574 63.0653 141.251 63.3143C141.776 63.5213 142.242 63.8531 142.61 64.2809C142.967 64.7226 143.22 65.2387 143.35 65.7913C143.494 66.4152 143.565 67.0539 143.561 67.6943V76.1221H141.447V67.4073C141.466 67.0619 141.414 66.7162 141.295 66.3916C141.175 66.0669 140.991 65.7701 140.752 65.5194C140.497 65.2834 140.197 65.1005 139.87 64.9813C139.544 64.862 139.197 64.8088 138.849 64.8246C138.276 64.813 137.706 64.9157 137.173 65.1267C136.717 65.3088 136.313 65.5991 135.995 65.9725C135.672 66.3409 135.43 66.7731 135.285 67.2412C135.138 67.7616 135.077 68.3022 135.103 68.8422V76.0919H133.034V58.3754H135.103Z" fill="white"/>
<path d="M155.902 75.2762C154.847 76.0285 153.572 76.4109 152.277 76.3636C151.366 76.3863 150.46 76.2165 149.619 75.8652C148.886 75.5544 148.235 75.0789 147.716 74.4757C147.187 73.8547 146.796 73.1289 146.568 72.3461C146.3 71.4689 146.153 70.5594 146.13 69.6425C146.12 68.7328 146.268 67.8283 146.568 66.9692C146.848 66.1915 147.274 65.474 147.821 64.8547C148.356 64.2546 149.009 63.7713 149.74 63.435C150.5 63.0965 151.324 62.9265 152.156 62.9366C153.15 62.9029 154.134 63.1488 154.996 63.6464C155.731 64.0973 156.351 64.7125 156.808 65.4438C157.265 66.1746 157.582 66.9837 157.744 67.8301C157.916 68.6338 157.987 69.4557 157.956 70.2769H148.365C148.344 70.8177 148.41 71.3583 148.562 71.8779C148.7 72.3714 148.942 72.8297 149.271 73.2221C149.621 73.6228 150.054 73.9424 150.54 74.1585C151.114 74.3974 151.731 74.5157 152.353 74.5059C153.132 74.5411 153.902 74.3181 154.543 73.8715C155.148 73.417 155.554 72.7459 155.675 71.9987H157.76C157.566 73.2747 156.904 74.4327 155.902 75.246V75.2762ZM155.388 67.0296C155.214 66.5974 154.952 66.2064 154.618 65.8818C154.281 65.5409 153.878 65.2715 153.434 65.0899C152.991 64.9082 152.515 64.8179 152.035 64.8245C151.518 64.8177 151.004 64.9153 150.525 65.1115C150.099 65.2964 149.715 65.5633 149.392 65.8969C149.076 66.2296 148.825 66.619 148.652 67.0447C148.469 67.492 148.362 67.9667 148.335 68.4494H155.69C155.664 67.9602 155.552 67.4796 155.358 67.0296H155.388Z" fill="white"/>
<path d="M162.124 63.269V65.157C162.795 64.1481 163.81 63.4174 164.979 63.1006C166.149 62.7839 167.394 62.9028 168.483 63.4352C168.809 63.6136 169.098 63.8549 169.331 64.1452C169.564 64.4355 169.738 64.7691 169.842 65.1268C170.255 64.4493 170.838 63.892 171.533 63.5107C172.249 63.1284 173.048 62.9311 173.859 62.9367C174.45 62.9326 175.039 63.0037 175.611 63.1482C176.098 63.2703 176.551 63.4971 176.94 63.8127C177.324 64.1158 177.625 64.5106 177.817 64.9606C178.036 65.5019 178.139 66.0835 178.119 66.6673V76.0617H176.019V67.6793C176.024 67.304 175.988 66.9294 175.913 66.5616C175.862 66.2362 175.738 65.9266 175.551 65.6554C175.35 65.3917 175.085 65.1838 174.781 65.0512C174.384 64.8875 173.956 64.8102 173.527 64.8247C173.079 64.8001 172.631 64.8679 172.21 65.0238C171.789 65.1797 171.404 65.4204 171.08 65.7309C170.778 66.0448 170.544 66.4169 170.39 66.8247C170.237 67.2324 170.169 67.6671 170.189 68.1022V76.0919H168.075V67.6793C168.08 67.299 168.044 66.9192 167.969 66.5465C167.901 66.221 167.767 65.9127 167.576 65.6403C167.389 65.3812 167.14 65.1735 166.851 65.0361C166.478 64.8841 166.076 64.812 165.673 64.8247C165.146 64.8237 164.627 64.9535 164.163 65.2023C163.749 65.4241 163.384 65.7272 163.091 66.0934C162.832 66.421 162.628 66.7882 162.486 67.1808C162.378 67.4766 162.317 67.7875 162.305 68.1022V76.0919H160.206V63.269H162.124Z" fill="white"/>
<path d="M181.426 60.9581V58.3754H183.526V60.9581H181.426ZM183.526 63.269V76.0919H181.426V63.269H183.526Z" fill="white"/>
<path d="M188.419 73.2223C188.609 73.5434 188.88 73.809 189.205 73.9926C189.538 74.1952 189.907 74.3335 190.292 74.4003C190.704 74.4868 191.125 74.5274 191.546 74.5212C191.894 74.525 192.243 74.4998 192.588 74.4457C192.932 74.4055 193.268 74.3138 193.585 74.1738C193.884 74.0549 194.145 73.8564 194.34 73.5999C194.552 73.3179 194.659 72.9706 194.642 72.6181C194.653 72.376 194.602 72.1351 194.493 71.9183C194.385 71.7015 194.223 71.516 194.023 71.3796C193.561 71.0697 193.05 70.8399 192.512 70.7C191.893 70.5187 191.228 70.3677 190.503 70.2167C189.81 70.0928 189.131 69.8954 188.48 69.6276C187.904 69.3849 187.388 69.0188 186.969 68.5553C186.531 68.0038 186.31 67.3103 186.35 66.6069C186.338 66.0231 186.49 65.4475 186.788 64.9455C187.069 64.4913 187.451 64.1087 187.906 63.8278C188.371 63.5312 188.881 63.3119 189.416 63.1784C189.975 63.0421 190.548 62.9711 191.123 62.9669C191.797 62.9625 192.469 63.0232 193.131 63.1482C193.708 63.2706 194.26 63.4902 194.763 63.7976C195.236 64.1072 195.621 64.5338 195.88 65.0361C196.187 65.6411 196.358 66.3063 196.379 66.9845H194.279C194.252 66.6206 194.138 66.2685 193.947 65.9574C193.77 65.6848 193.533 65.4572 193.252 65.2929C192.962 65.1371 192.652 65.0203 192.331 64.9455C191.989 64.8681 191.64 64.8276 191.289 64.8247C190.972 64.8028 190.654 64.8028 190.337 64.8247C190.034 64.8669 189.739 64.9535 189.461 65.0814C189.213 65.2012 188.992 65.3709 188.812 65.5799C188.641 65.8164 188.556 66.104 188.57 66.3954C188.565 66.5646 188.596 66.7329 188.661 66.8892C188.727 67.0454 188.824 67.186 188.948 67.3017C189.238 67.5543 189.57 67.7538 189.93 67.8907C190.367 68.0566 190.816 68.1879 191.274 68.2834L192.784 68.6157C193.313 68.7365 193.826 68.8724 194.294 69.0386C194.772 69.1955 195.224 69.4192 195.639 69.7031C196.019 69.977 196.337 70.3267 196.575 70.7302C196.826 71.1934 196.95 71.7141 196.938 72.2405C196.959 72.9174 196.792 73.5869 196.454 74.1738C196.13 74.6769 195.696 75.1003 195.186 75.4123C194.639 75.734 194.041 75.9589 193.418 76.0768C192.776 76.1974 192.124 76.258 191.47 76.2581C190.789 76.2616 190.11 76.1856 189.446 76.0315C188.833 75.8959 188.25 75.6503 187.724 75.3066C187.202 74.9837 186.766 74.5377 186.456 74.0077C186.135 73.3809 185.964 72.688 185.957 71.9838H188.057C188.068 72.3979 188.183 72.8026 188.389 73.1618L188.419 73.2223Z" fill="white"/>
<path d="M204.686 63.269V65.1268H202.133V73.0863C202.106 73.2867 202.106 73.4901 202.133 73.6905C202.176 73.8286 202.26 73.95 202.375 74.0379C202.521 74.1284 202.687 74.1803 202.858 74.1889C203.125 74.2076 203.392 74.2076 203.659 74.1889H204.626V76.0466H203.07C202.604 76.0556 202.139 76.0202 201.68 75.9409C201.334 75.8859 201.007 75.7458 200.729 75.5331C200.478 75.3051 200.295 75.0125 200.2 74.6873C200.058 74.197 199.997 73.6869 200.019 73.177V65.021H197.844V63.269H200.049V59.4176H202.164V63.269H204.686Z" fill="white"/>
<path d="M208.93 63.2689V65.9724C209.346 65.0503 209.997 64.2535 210.818 63.6616C211.663 63.1399 212.651 62.8968 213.642 62.9668V65.2021C212.912 65.1874 212.186 65.3051 211.498 65.5495C210.912 65.7434 210.389 66.0932 209.987 66.5614C209.613 67.0436 209.345 67.5995 209.202 68.1926C209.08 68.9159 209.049 69.6517 209.111 70.3826V76.0918H207.012V63.2689H208.93Z" fill="white"/>
<path d="M220.319 77.7985C220.107 78.3427 219.86 78.8725 219.579 79.3844C219.379 79.7785 219.113 80.136 218.794 80.4417C218.513 80.7026 218.185 80.9076 217.827 81.0458C217.432 81.1717 217.019 81.2329 216.604 81.227C216.352 81.2421 216.1 81.2421 215.849 81.227C215.607 81.1899 215.369 81.1292 215.139 81.0458V79.0672C215.34 79.1514 215.547 79.222 215.758 79.2787C215.96 79.3332 216.168 79.3636 216.377 79.3693C216.759 79.3824 217.136 79.2711 217.449 79.0521C217.75 78.8294 217.98 78.5254 218.114 78.1761L218.975 76.0163L213.9 63.2689H216.271L220.017 73.8414L223.627 63.2689H225.847L220.274 77.7985H220.319Z" fill="white"/>
<path d="M81.472 1.20816H103.916C112.147 1.20816 115.908 6.69076 115.908 11.7807C115.908 15.3904 114.519 17.7315 110.788 19.8913C115.5 21.6282 118.053 24.7697 118.053 29.6029C118.053 35.3876 113.854 41.5347 103.946 41.5347H81.472V1.20816ZM93.7361 32.3819H101.877C102.413 32.4237 102.953 32.3538 103.461 32.1767C103.969 31.9997 104.435 31.7193 104.83 31.3532C105.224 30.9871 105.539 30.5433 105.753 30.0497C105.967 29.5561 106.077 29.0234 106.076 28.4852C106.055 28.014 105.939 27.5519 105.736 27.1264C105.532 26.701 105.245 26.3211 104.891 26.0094C104.537 25.6977 104.123 25.4607 103.676 25.3126C103.228 25.1645 102.755 25.1082 102.285 25.1473H93.7361V32.3819ZM93.7361 17.0669H100.261C103.282 17.0669 104.445 15.6774 104.445 13.6384C104.453 13.2126 104.371 12.7898 104.204 12.3978C104.038 12.0059 103.79 11.6535 103.478 11.364C103.166 11.0745 102.795 10.8543 102.392 10.7178C101.989 10.5814 101.561 10.5318 101.137 10.5724H93.7512L93.7361 17.0669Z" fill="white"/>
<path d="M130.815 1.20816H143.789L158.56 41.429H145.254L143.305 35.3876H130.875L129.214 41.429H115.998L130.815 1.20816ZM136.856 13.14L133.428 26.5671H140.753L136.856 13.14Z" fill="white"/>
<path d="M179.252 13.1703H191.637C191.637 6.34347 186.456 -3.05176e-05 174.373 -3.05176e-05C161.007 -3.05176e-05 156.853 7.38562 156.853 12.7776C156.853 21.4924 167.516 23.8032 167.849 23.9089C169.435 24.4073 176.065 26.1896 177.711 26.7786C178.426 26.9847 179.063 27.397 179.544 27.9639C180.025 28.5308 180.328 29.2271 180.415 29.9655C180.415 32.3216 177.621 33.4393 175.28 33.4393C173.769 33.4393 168.755 32.956 168.755 27.6244H155.977C155.977 34.6929 160.856 42.6223 174.524 42.6223C189.628 42.6223 192.754 33.5601 192.754 28.8478C192.732 26.5903 192.019 24.3938 190.713 22.5527C189.406 20.7116 187.568 19.314 185.444 18.5472C182.424 17.3087 177.273 16.2212 174.721 15.5264C173.437 15.1489 169.132 14.288 169.132 11.6599C169.132 8.30694 174.675 8.74494 173.86 8.74494C176.382 8.68453 179.252 10.0892 179.252 13.1703Z" fill="white"/>
<path d="M194.869 1.19302H225.756V11.8259H207.224V18.9095H223.747V29.0742H207.163V41.4591H194.824L194.869 1.19302Z" fill="white"/>
<path d="M0.9245 1.20819V41.4743H41.2057V1.20819H0.9245ZM28.8057 29.0894H13.3245V13.5931H28.8057V29.0894Z" fill="white"/>
<path d="M69.0868 13.5932H53.5905V29.0895H69.0868V13.5932Z" fill="white"/>
</svg>
