<svg xmlns="http://www.w3.org/2000/svg" width="226" height="82" fill="none" viewBox="0 0 226 82"><path fill="#fff" d="M16.028 76.092 11.98 61.215 7.842 76.092H5.395L.864 58.375H3.25l3.474 14.742 3.972-14.742h2.598l4.003 14.742 3.594-14.742h2.356L18.49 76.092h-2.462ZM32.776 75.276a5.875 5.875 0 0 1-3.624 1.088 6.6 6.6 0 0 1-2.674-.499 5.12 5.12 0 0 1-1.888-1.39 5.816 5.816 0 0 1-1.163-2.129 10.136 10.136 0 0 1-.422-2.704 7.553 7.553 0 0 1 .438-2.673c.274-.78.7-1.499 1.253-2.114a5.845 5.845 0 0 1 1.918-1.42 5.768 5.768 0 0 1 2.417-.498 5.317 5.317 0 0 1 2.84.71 5.724 5.724 0 0 1 1.812 1.797c.45.734.767 1.542.936 2.386a9.94 9.94 0 0 1 .212 2.447h-9.606a5.017 5.017 0 0 0 .211 1.6c.132.497.375.956.71 1.345.35.4.783.72 1.269.937a4.53 4.53 0 0 0 1.812.347c.78.033 1.549-.19 2.19-.635A2.93 2.93 0 0 0 32.55 72h2.084a5.181 5.181 0 0 1-1.858 3.247v.03Zm-.513-8.246a3.834 3.834 0 0 0-.77-1.148 3.775 3.775 0 0 0-4.063-.77c-.426.184-.81.451-1.133.785a3.656 3.656 0 0 0-.74 1.148 4.774 4.774 0 0 0-.332 1.404h7.37a4.155 4.155 0 0 0-.332-1.42ZM51.566 65.504a3.156 3.156 0 0 0-2.13-.68 4.032 4.032 0 0 0-1.932.424 3.367 3.367 0 0 0-1.224 1.117 4.53 4.53 0 0 0-.634 1.601 8.473 8.473 0 0 0-.197 1.873c.002.585.073 1.168.212 1.737.127.537.347 1.048.65 1.51.3.443.705.806 1.178 1.058a3.353 3.353 0 0 0 1.706.407 3.474 3.474 0 0 0 2.447-.83c.611-.62.99-1.43 1.072-2.296h2.16a5.95 5.95 0 0 1-1.767 3.67 5.573 5.573 0 0 1-3.882 1.284 6.646 6.646 0 0 1-2.598-.468 5.059 5.059 0 0 1-1.887-1.345 5.846 5.846 0 0 1-1.133-2.069 8.156 8.156 0 0 1-.393-2.643c-.01-.91.118-1.816.378-2.688a6.27 6.27 0 0 1 1.117-2.22 5.331 5.331 0 0 1 1.903-1.51 6.042 6.042 0 0 1 2.659-.545 8.02 8.02 0 0 1 2.039.257 5.18 5.18 0 0 1 1.691.816c.494.369.906.837 1.209 1.374.327.613.527 1.286.589 1.979h-2.175a3.203 3.203 0 0 0-1.058-1.888v.075ZM59.133 63.269v2.703a5.755 5.755 0 0 1 1.963-2.31 4.789 4.789 0 0 1 2.84-.695v2.235a6.04 6.04 0 0 0-2.16.347 3.352 3.352 0 0 0-1.51 1.012 4.335 4.335 0 0 0-.68 1.632 8.757 8.757 0 0 0-.242 2.19v5.709H57.23V63.269h1.903ZM74.116 75.276a5.8 5.8 0 0 1-3.61 1.088 6.601 6.601 0 0 1-2.673-.499 5.18 5.18 0 0 1-1.903-1.39 5.784 5.784 0 0 1-1.148-2.129 10.764 10.764 0 0 1-.438-2.703 7.55 7.55 0 0 1 .453-2.674c.275-.78.7-1.499 1.254-2.114a5.694 5.694 0 0 1 4.32-1.888 5.241 5.241 0 0 1 2.839.71 5.572 5.572 0 0 1 1.812 1.797c.456.733.778 1.541.952 2.386.169.805.245 1.626.226 2.447h-9.62c-.022.541.044 1.082.196 1.601a3.548 3.548 0 0 0 1.993 2.28c.574.24 1.191.358 1.813.348a3.58 3.58 0 0 0 2.19-.634 2.93 2.93 0 0 0 1.133-1.873h2.084a5.135 5.135 0 0 1-1.873 3.247Zm-.498-8.246a3.835 3.835 0 0 0-.77-1.148 4.032 4.032 0 0 0-1.148-.77 3.76 3.76 0 0 0-1.51-.287 3.85 3.85 0 0 0-1.511.287 3.323 3.323 0 0 0-1.118.785 3.699 3.699 0 0 0-.755 1.148c-.183.447-.29.922-.317 1.404h7.37a4.53 4.53 0 0 0-.332-1.42h.09ZM89.794 76.047a3.02 3.02 0 0 1-1.51.317 1.812 1.812 0 0 1-1.3-.453 2.052 2.052 0 0 1-.483-1.51 5.136 5.136 0 0 1-2.024 1.51c-.794.306-1.64.46-2.492.453a6.466 6.466 0 0 1-1.646-.197 4.017 4.017 0 0 1-1.36-.619 3.096 3.096 0 0 1-.906-1.102 3.896 3.896 0 0 1-.362-1.647 3.685 3.685 0 0 1 .332-1.812c.235-.445.571-.828.982-1.118a4.093 4.093 0 0 1 1.39-.664 16.559 16.559 0 0 1 1.6-.378 23.02 23.02 0 0 1 1.647-.257 9.878 9.878 0 0 0 1.374-.241 2.37 2.37 0 0 0 .937-.468 1.133 1.133 0 0 0 .347-.907 2.01 2.01 0 0 0-.257-1.117 1.828 1.828 0 0 0-.664-.65c-.29-.15-.6-.251-.922-.302a7.802 7.802 0 0 0-1.012 0 4.532 4.532 0 0 0-2.22.514 2.115 2.115 0 0 0-.966 1.918h-2.115c.009-.7.18-1.387.498-2.009a3.746 3.746 0 0 1 1.194-1.33 5.031 5.031 0 0 1 1.691-.724 8.824 8.824 0 0 1 2.054-.227c.576.003 1.151.043 1.722.121.53.083 1.04.257 1.51.514.463.25.849.62 1.118 1.072.306.554.452 1.18.423 1.813v6.585c-.012.364.018.73.09 1.087 0 .227.258.348.575.348.22-.002.44-.038.65-.106v1.646l.105-.06Zm-3.49-6.57a2.75 2.75 0 0 1-1.041.438c-.443.09-.896.166-1.36.226l-1.42.197a6.04 6.04 0 0 0-1.298.347c-.36.157-.677.401-.922.71-.26.364-.388.806-.362 1.253a1.646 1.646 0 0 0 .755 1.51c.238.158.505.265.786.318a3.7 3.7 0 0 0 .936.106c.606.01 1.21-.087 1.782-.287a3.957 3.957 0 0 0 1.224-.71c.294-.266.53-.59.694-.952.141-.292.218-.611.227-.936v-2.22ZM97.165 63.269v1.858h-2.552v7.96c-.028.2-.028.403 0 .603a.695.695 0 0 0 .226.348c.147.088.313.14.484.15.271.02.544.02.815 0h.967v1.859h-1.556c-.47.008-.94-.027-1.405-.106a2.13 2.13 0 0 1-.936-.408 1.737 1.737 0 0 1-.529-.846c-.142-.49-.203-1-.18-1.51v-8.156h-2.176v-1.752h2.175v-3.851h2.115v3.851h2.552ZM108.567 75.276a5.8 5.8 0 0 1-3.61 1.088 6.598 6.598 0 0 1-2.673-.499 5.003 5.003 0 0 1-1.918-1.39 5.813 5.813 0 0 1-1.163-2.129 10.77 10.77 0 0 1-.347-2.703 7.551 7.551 0 0 1 .453-2.674c.274-.78.7-1.499 1.253-2.114a5.69 5.69 0 0 1 4.335-1.888 5.33 5.33 0 0 1 2.854.71 5.675 5.675 0 0 1 1.677 1.797c.461.73.784 1.54.951 2.386.164.805.235 1.626.212 2.447h-9.561c-.013.54.053 1.08.197 1.601a3.538 3.538 0 0 0 1.993 2.28 4.532 4.532 0 0 0 1.813.348 3.582 3.582 0 0 0 2.19-.634 2.934 2.934 0 0 0 1.133-1.873h2.084a5.137 5.137 0 0 1-1.873 3.247Zm-.498-8.246a3.857 3.857 0 0 0-.771-1.148 4.014 4.014 0 0 0-1.148-.77 3.852 3.852 0 0 0-2.915 0c-.425.185-.81.452-1.132.785a3.641 3.641 0 0 0-.74 1.148 4.337 4.337 0 0 0-.333 1.405h7.371a4.539 4.539 0 0 0-.332-1.42ZM127.371 65.504a3.159 3.159 0 0 0-2.13-.68 3.986 3.986 0 0 0-1.903.424 3.539 3.539 0 0 0-1.239 1.117 4.564 4.564 0 0 0-.589 1.601 8.545 8.545 0 0 0-.196 1.873 6.686 6.686 0 0 0 .196 1.737c.123.539.343 1.05.65 1.51.3.439.698.8 1.163 1.058a3.911 3.911 0 0 0 4.153-.423 3.7 3.7 0 0 0 1.088-2.296h2.16a6.043 6.043 0 0 1-1.783 3.67 5.542 5.542 0 0 1-3.881 1.284 6.57 6.57 0 0 1-2.583-.468 5.06 5.06 0 0 1-1.888-1.345 5.63 5.63 0 0 1-1.193-2.069 8.606 8.606 0 0 1-.378-2.643 9.656 9.656 0 0 1 .363-2.688 6.555 6.555 0 0 1 1.133-2.22 5.193 5.193 0 0 1 1.903-1.51 6.039 6.039 0 0 1 2.658-.545 8.02 8.02 0 0 1 2.039.257c.608.17 1.18.446 1.691.816.494.365.901.835 1.194 1.374a5.18 5.18 0 0 1 .604 1.979h-2.19a3.19 3.19 0 0 0-1.042-1.813ZM135.103 58.375v6.782a2.7 2.7 0 0 1 .695-1.012c.292-.277.629-.502.997-.665a5.563 5.563 0 0 1 1.163-.392 6.493 6.493 0 0 1 1.178-.121 5.68 5.68 0 0 1 2.115.347c.525.207.991.54 1.359.967.357.442.61.958.74 1.51.144.624.215 1.263.211 1.903v8.428h-2.114v-8.715a2.545 2.545 0 0 0-.695-1.888 2.62 2.62 0 0 0-1.903-.694 4.317 4.317 0 0 0-1.676.302c-.456.182-.86.472-1.178.846-.323.368-.565.8-.71 1.268a5.003 5.003 0 0 0-.182 1.601v7.25h-2.069V58.375h2.069ZM155.902 75.276a5.875 5.875 0 0 1-3.625 1.088 6.478 6.478 0 0 1-2.658-.499 5.176 5.176 0 0 1-1.903-1.39 5.773 5.773 0 0 1-1.148-2.129 10.121 10.121 0 0 1-.438-2.704c-.01-.91.138-1.814.438-2.673a6.545 6.545 0 0 1 1.253-2.114 5.841 5.841 0 0 1 1.919-1.42 5.765 5.765 0 0 1 2.416-.498 5.32 5.32 0 0 1 2.84.71 5.573 5.573 0 0 1 1.812 1.797c.457.73.774 1.54.936 2.386.172.804.243 1.626.212 2.447h-9.591c-.021.54.045 1.081.197 1.6.138.494.38.953.709 1.345.35.4.783.72 1.269.937a4.532 4.532 0 0 0 1.813.347 3.552 3.552 0 0 0 2.19-.635A2.928 2.928 0 0 0 155.675 72h2.085a5.186 5.186 0 0 1-1.858 3.247v.03Zm-.514-8.246a3.339 3.339 0 0 0-.77-1.148 3.56 3.56 0 0 0-2.583-1.058 3.852 3.852 0 0 0-1.51.288c-.426.184-.81.451-1.133.785a3.676 3.676 0 0 0-.74 1.148c-.183.447-.29.922-.317 1.404h7.355a4.14 4.14 0 0 0-.332-1.42h.03ZM162.124 63.269v1.888a5 5 0 0 1 6.359-1.722 2.83 2.83 0 0 1 1.359 1.692 4.536 4.536 0 0 1 1.691-1.616 4.866 4.866 0 0 1 2.326-.574 6.958 6.958 0 0 1 1.752.211c.487.122.94.35 1.329.665.384.303.685.698.877 1.148a4.17 4.17 0 0 1 .302 1.706v9.395h-2.1v-8.383a5.244 5.244 0 0 0-.106-1.117 2.196 2.196 0 0 0-.362-.907 1.947 1.947 0 0 0-.77-.604 3.024 3.024 0 0 0-1.254-.226 3.274 3.274 0 0 0-2.447.906 3.214 3.214 0 0 0-.891 2.371v7.99h-2.114v-8.413c.005-.38-.031-.76-.106-1.133a2.453 2.453 0 0 0-.393-.906 1.9 1.9 0 0 0-.725-.604 2.883 2.883 0 0 0-1.178-.211 3.183 3.183 0 0 0-1.51.377 3.474 3.474 0 0 0-1.072.891 3.882 3.882 0 0 0-.605 1.088 3.022 3.022 0 0 0-.181.921v7.99h-2.099V63.269h1.918ZM181.426 60.958v-2.583h2.1v2.583h-2.1Zm2.1 2.311v12.823h-2.1V63.269h2.1ZM188.419 73.222c.19.321.461.587.786.77.333.203.702.341 1.087.408.412.087.833.127 1.254.121.348.004.697-.021 1.042-.075.344-.04.68-.132.997-.272a1.77 1.77 0 0 0 .755-.574c.212-.282.319-.63.302-.982a1.414 1.414 0 0 0-.619-1.238 4.949 4.949 0 0 0-1.511-.68 26.212 26.212 0 0 0-2.009-.483 9.9 9.9 0 0 1-2.023-.59 4.275 4.275 0 0 1-1.511-1.072 2.872 2.872 0 0 1-.619-1.948 3.13 3.13 0 0 1 .438-1.662 3.438 3.438 0 0 1 1.118-1.117 5.107 5.107 0 0 1 1.51-.65 7.436 7.436 0 0 1 1.707-.211 10.45 10.45 0 0 1 2.008.181 5.199 5.199 0 0 1 1.632.65c.473.31.858.736 1.117 1.238.307.605.478 1.27.499 1.948h-2.1a2.287 2.287 0 0 0-.332-1.027 2.08 2.08 0 0 0-.695-.664 3.74 3.74 0 0 0-.921-.348 4.902 4.902 0 0 0-1.042-.12 6.906 6.906 0 0 0-.952 0 3.128 3.128 0 0 0-.876.256c-.248.12-.469.29-.649.499a1.286 1.286 0 0 0-.242.815 1.194 1.194 0 0 0 .378.907c.29.252.622.452.982.589a8.91 8.91 0 0 0 1.344.392l1.51.333c.529.12 1.042.256 1.51.423.478.156.93.38 1.345.664.38.274.698.624.936 1.027.251.463.375.984.363 1.51a3.647 3.647 0 0 1-.484 1.934 3.977 3.977 0 0 1-1.268 1.238 5.508 5.508 0 0 1-1.768.665c-.642.12-1.294.181-1.948.181a8.752 8.752 0 0 1-2.024-.227 5.201 5.201 0 0 1-1.722-.724 3.761 3.761 0 0 1-1.268-1.3 4.54 4.54 0 0 1-.499-2.023h2.1c.011.414.126.819.332 1.178l.03.06ZM204.686 63.269v1.858h-2.553v7.96c-.027.2-.027.403 0 .603.043.139.127.26.242.348.146.09.312.142.483.15.267.02.534.02.801 0h.967v1.859h-1.556a7.33 7.33 0 0 1-1.39-.106 2.11 2.11 0 0 1-.951-.408 1.84 1.84 0 0 1-.529-.846 4.7 4.7 0 0 1-.181-1.51v-8.156h-2.175v-1.752h2.205v-3.851h2.115v3.851h2.522ZM208.93 63.269v2.703a5.778 5.778 0 0 1 1.888-2.31 4.74 4.74 0 0 1 2.824-.695v2.235a6.04 6.04 0 0 0-2.144.347 3.4 3.4 0 0 0-1.511 1.012 4.311 4.311 0 0 0-.785 1.632 8.73 8.73 0 0 0-.091 2.19v5.709h-2.099V63.269h1.918ZM220.319 77.799a13.414 13.414 0 0 1-.74 1.585c-.2.394-.466.752-.785 1.058-.281.26-.609.466-.967.604a3.847 3.847 0 0 1-1.223.181 6.297 6.297 0 0 1-.755 0 3.751 3.751 0 0 1-.71-.181v-1.979c.201.084.408.155.619.212.202.054.41.085.619.09.382.013.759-.098 1.072-.317.301-.223.531-.527.665-.876l.861-2.16L213.9 63.27h2.371l3.746 10.572 3.61-10.572h2.22l-5.573 14.53h.045ZM81.472 1.208h22.444c8.231 0 11.992 5.483 11.992 10.573 0 3.61-1.389 5.95-5.12 8.11 4.712 1.737 7.265 4.879 7.265 9.712 0 5.785-4.199 11.932-14.107 11.932H81.472V1.208Zm12.264 31.174h8.141a3.895 3.895 0 0 0 4.199-3.897 3.51 3.51 0 0 0-3.791-3.338h-8.549v7.235Zm0-15.315h6.525c3.021 0 4.184-1.39 4.184-3.429a3.02 3.02 0 0 0-3.308-3.066h-7.386l-.015 6.495ZM130.815 1.208h12.974L158.56 41.43h-13.306l-1.949-6.041h-12.43l-1.661 6.041h-13.216l14.817-40.22Zm6.041 11.932-3.428 13.427h7.325l-3.897-13.427ZM179.252 13.17h12.385c0-6.827-5.181-13.17-17.264-13.17-13.366 0-17.52 7.386-17.52 12.778 0 8.714 10.663 11.025 10.996 11.13 1.586.5 8.216 2.282 9.862 2.87a3.774 3.774 0 0 1 2.704 3.188c0 2.356-2.794 3.473-5.135 3.473-1.511 0-6.525-.483-6.525-5.815h-12.778c0 7.069 4.879 14.998 18.547 14.998 15.104 0 18.23-9.062 18.23-13.774a11.068 11.068 0 0 0-7.31-10.3c-3.02-1.24-8.171-2.327-10.723-3.022-1.284-.377-5.589-1.238-5.589-3.866 0-3.353 5.543-2.915 4.728-2.915 2.522-.06 5.392 1.344 5.392 4.425ZM194.869 1.193h30.887v10.633h-18.532v7.084h16.523v10.164h-16.584V41.46h-12.339l.045-40.266ZM.924 1.208v40.266h40.282V1.208H.924ZM28.806 29.09H13.324V13.593h15.482V29.09ZM69.087 13.593H53.59V29.09h15.497V13.593Z"/></svg>