<svg xmlns="http://www.w3.org/2000/svg" width="129" height="210" fill="none" viewBox="0 0 129 210"><path fill="#A0FFFF" d="M92.952 40.13c0 1.383-1.116 2.499-2.5 2.499a2.495 2.495 0 0 1-2.499-2.5c0-1.383 1.116-2.499 2.5-2.499 1.383 0 2.499 1.116 2.499 2.5ZM36.426 75.48a2.345 2.345 0 0 1-2.347 2.346 2.345 2.345 0 0 1-2.346-2.346 2.345 2.345 0 0 1 2.346-2.347 2.345 2.345 0 0 1 2.347 2.347ZM81.992 138.978a3.09 3.09 0 1 1-6.181 0 3.09 3.09 0 1 1 6.18 0ZM117.895 97.667a2.29 2.29 0 1 1-4.579 0 2.29 2.29 0 0 1 4.579 0ZM39.344 128.467a1.459 1.459 0 1 1-2.917 0 1.459 1.459 0 0 1 2.917 0ZM126.127 76.119a2.137 2.137 0 1 0 0-4.274 2.137 2.137 0 0 0 0 4.274ZM122.397 62.898a1.593 1.593 0 1 0 0-3.185 1.593 1.593 0 0 0 0 3.185ZM6.76 92.144a3.09 3.09 0 1 1-6.18 0 3.09 3.09 0 1 1 6.18 0ZM24.932 209.25a2.29 2.29 0 1 0 0-4.579 2.29 2.29 0 0 0 0 4.579ZM48.855 136.87c0 .878-.716 1.593-1.593 1.593a1.596 1.596 0 0 1-1.593-1.593c0-.877.715-1.593 1.593-1.593.877 0 1.593.716 1.593 1.593ZM33.43 5.365a3.243 3.243 0 1 0-6.344-1.348 3.243 3.243 0 0 0 6.345 1.348Z" /></svg>