<svg xmlns="http://www.w3.org/2000/svg" width="155" height="344" fill="none" viewBox="0 0 155 344"><path fill="url(#paint0_linear_11_4112)" d="M155 146.697c0 4.339-.037 8.697-.111 13.045-.037 2.377-.39 15.923-.547 20.243-.065 1.82-2.123 158.082-2.531 163.713l.38.302H4.541s-2.986-157.601-3.3-163.562c-.112-2.113-.214-4.255-.316-6.443-.028-.698-.065-1.405-.093-2.113-.065-1.594-.139-3.198-.195-4.82-.463-11.715-.723-24.1-.611-36.071 0-.556.009-1.122.018-1.679.084-6.744.297-13.328.677-19.572 0-.132.018-.255.028-.387.083-1.302.167-2.585.26-3.849.074-1.056.157-2.103.25-3.131.945-10.98 2.503-20.526 4.885-27.393 2.003-5.763 5.248-11.62 9.309-17.403.157-.226.315-.443.473-.66a123.472 123.472 0 0 1 3.8-5.037c9.318-11.706 21.454-22.884 32.727-32.128 1.604-1.32 3.19-2.594 4.747-3.82A380.318 380.318 0 0 1 78.913 0c6.925 5.009 14.518 10.781 22.083 17.092.825.689 1.651 1.377 2.476 2.085 1.548 1.32 3.096 2.66 4.635 4.018 10.347 9.16 20.239 19.167 27.823 29.392a119.371 119.371 0 0 1 2.957 4.179 90.734 90.734 0 0 1 3.365 5.339c2.29 3.933 4.172 7.876 5.526 11.772.742 2.132 1.409 4.48 2.021 7.027l.139.604c.121.51.232 1.018.352 1.547.028.15.065.31.093.462l.111.519.084.415a142.824 142.824 0 0 1 1.224 6.942c.027.17.055.35.074.519.055.349.102.698.157 1.056.056.35.102.708.149 1.066.009.095.027.198.037.293l.028.236.139 1.084c.046.34.092.68.129 1.028v.067l.139 1.103c.019.189.047.368.065.557 0 .066.019.122.019.188.055.5.12 1 .167 1.5l.055.566c.121 1.141.241 2.292.353 3.471l.055.585c.056.585.102 1.179.158 1.773l.111 1.293.084 1.103c.027.406.065.812.092 1.227.056.782.112 1.565.167 2.358.009.236.028.471.047.707.018.198.027.406.037.604.027.377.046.754.074 1.132l.083 1.368c.047.839.093 1.679.13 2.527 0 .066 0 .142.009.208.047.915.084 1.839.13 2.764l.084 2.122v.113c.027.793.064 1.594.083 2.396.037 1.057.065 2.113.093 3.17 0 .311.018.622.028.933.009.444.027.887.027 1.33l.028 1.33c.009.651.028 1.302.037 1.953 0 .424.019.839.019 1.264.009.896.028 1.802.037 2.698 0 .717.009 1.433.018 2.16v.217c0 .471 0 .943.01 1.415v3.801l.046.019Z"/><defs><linearGradient id="paint0_linear_11_4112" x1="117.035" x2="45.885" y1="380.684" y2="90.737" gradientUnits="userSpaceOnUse"><stop stop-color="#68A5FB"/><stop offset="1" stop-color="#5A76AE"/></linearGradient></defs></svg>