<svg width="91" height="193" viewBox="0 0 91 193" fill="none" xmlns="http://www.w3.org/2000/svg">
<g clip-path="url(#clip0_155_48598)">
<path d="M70.0613 157.231C69.9509 154.879 69.6622 153.843 68.2359 152.094C66.7332 150.235 64.9248 146.737 64.9757 143.315C64.1012 141.711 63.2182 140.115 62.4287 138.467C60.5778 134.63 58.71 130.478 57.9629 126.259C57.6742 124.62 57.4535 122.498 58.5742 121.105C59.1515 120.384 58.6251 119.178 58.3959 118.329C57.4365 114.721 55.2715 111.834 52.8943 109.032C52.3 111.019 49.1841 109.771 48.0549 109.092C47.9955 114.958 52.682 119 53.964 124.433C52.4358 124.382 51.3745 122.684 50.3387 121.759C48.9633 120.528 47.4097 119.552 45.8305 118.618C42.8759 116.869 39.344 115.145 37.7904 111.876C37.7224 111.732 37.5356 111.893 37.3998 111.927C36.3895 112.225 35.532 111.656 34.9801 110.832C34.0547 109.423 33.6472 107.58 33.5368 105.908C33.2906 102.104 33.8085 97.7489 36.0923 94.5906C38.4016 96.781 41.5769 92.7312 41.5685 90.5662C41.5515 87.4504 38.9195 84.6571 38.563 81.4988C40.0487 78.7565 40.6176 76.1331 39.9384 73.0681C39.1997 69.7655 37.3574 66.8194 36.6951 63.4913C34.7254 68.0675 34.3009 73.2719 35.3707 78.1368C35.8886 80.514 36.8734 82.7553 37.2809 85.158C37.4423 86.1259 37.5102 87.1023 37.4592 88.0871C36.5763 88.7494 35.5405 88.5371 34.7 87.8834C30.5823 84.6571 32.4755 77.466 33.1123 73.1615C33.8424 68.3646 33.0104 63.5337 31.4397 59C31.618 61.165 31.7029 63.2451 31.2105 65.3846C30.6841 67.6939 29.9964 69.9183 29.8945 72.304C29.6993 77.084 30.6162 82.0167 28.8248 86.5929C28.1031 88.4692 26.8806 89.938 25.8108 91.6106C25.5391 93.6652 26.1929 95.7113 26.7702 97.647C27.7465 101.06 28.0097 105.967 25.4712 108.845C26.3796 109.448 27.2286 110.11 27.9928 110.892C28.5022 111.409 28.9691 111.97 29.4021 112.556C30.1068 112.675 30.7945 112.887 31.3209 113.405C32.3652 114.423 32.4586 116.105 32.2888 117.463C32.1105 119.008 32.6369 120.57 32.6369 122.149C32.6284 128.492 29.0371 134.808 26.49 140.42C26.1844 139.35 25.9042 138.272 25.6834 137.185C24.2741 138.892 23.1279 141.116 22.8902 143.341C22.7629 144.538 22.8647 145.854 23.4081 146.941C23.7732 147.679 23.077 149.097 22.8732 149.972C19.9951 155.83 19.5366 162.732 21.6252 168.922C22.5421 171.638 23.9345 174.194 25.7174 176.444C27.8569 179.144 31.0407 179.313 34.0123 180.799C35.082 181.334 36.0753 182.047 36.7206 183.075C37.646 184.535 37.3828 184.739 39.2931 185.214C42.3326 185.97 45.423 185.842 48.3521 185.808C50.2623 183.779 52.4018 182.429 55.297 182.395C56.0611 182.438 56.8252 182.54 57.5723 182.735C58.4638 182.234 59.3298 181.674 60.1533 181.071C61.5032 180.078 62.7428 178.948 63.872 177.7C68.8642 172.182 71.148 164.592 70.0443 157.231C70.0188 156.704 70.2226 158.445 70.0443 157.231H70.0613Z" fill="#FF8800"/>
<path d="M43.3259 62.8291C43.3259 61.8867 42.9184 60.9103 42.5109 60.0698C41.5345 61.9971 41.6024 63.6442 42.5109 65.5799C42.9184 64.7394 43.3259 63.7715 43.3259 62.8206V62.8291Z" fill="#FF8800"/>
<path d="M67.1407 158.25C66.9964 157.256 65.9351 156.942 65.2219 156.271C64.2286 155.337 63.3711 154.259 62.5221 153.189C61.0957 151.398 59.7458 149.505 58.0648 147.943C55.8913 154.285 48.5898 148.995 46.8408 145.183C44.3108 139.665 44.8966 133.059 41.6958 127.796C40.1421 131.056 36.3046 134.571 33.6897 130.071C31.5671 136.821 27.0674 142.755 27.1692 150.091C31.2869 147.917 35.2433 141.397 40.6261 144.063C45.7371 146.593 44.5655 155.015 46.1022 159.54C41.5685 157.868 37.8243 159.922 33.6642 161.62C31.5501 162.486 29.088 163.276 26.8721 162.282C24.9109 161.408 24.0534 159.234 23.2893 157.384C22.6525 160.763 22.7968 164.252 23.7308 167.555C24.7411 171.138 27.1268 173.286 30.421 174.899C33.6132 176.461 36.9074 177.819 38.2743 181.402C38.9196 183.092 38.8007 182.947 40.7704 183.346C42.7826 183.754 44.8457 183.873 46.8918 183.711C48.7256 183.567 48.5558 183.414 49.7529 182.234C50.8397 181.164 52.1811 180.443 53.6159 179.942C54.9489 179.475 56.3328 179.22 57.7421 179.135C59.4147 179.033 60.5014 177.692 61.6051 176.478C66.0625 171.571 68.1171 164.812 67.1407 158.258C67.1068 158.037 67.302 159.328 67.1407 158.258V158.25Z" fill="#FFFF00"/>
<path d="M42.8928 122.863C44.8116 125.265 46.9256 126.352 49.3963 128.076C49.3878 123.576 45.8304 121.394 41.7212 121.284C42.1032 121.818 42.5023 122.336 42.8928 122.854C43.572 123.703 42.5617 122.421 42.8928 122.854V122.863Z" fill="#FFFF00"/>
<path d="M35.8207 121.292C37.5527 119.908 37.8753 117.514 35.5235 116.572C35.099 118.584 34.8273 119.356 35.8207 121.292Z" fill="#FFFF00"/>
<path d="M31.5416 100.474C32.3737 98.1565 31.9831 95.4227 33.0189 93.2407C30.1917 94.684 30.6587 98.0037 31.5416 100.474Z" fill="#FFFF00"/>
<path d="M86.4315 188.752C86.4315 188.752 74.5716 182.916 73.3696 183.049C72.1675 183.183 68.0027 186.596 68.0027 186.596C68.0027 186.596 67.1042 182.289 65.7838 182.307C64.4603 182.325 59.7491 180.539 59.7491 180.539L26.3977 181.211L26.422 183.186L1.27563 187.092L2.0588 191.95L13.4846 192.892L42.4739 191.126L44.3438 185.678L44.4106 190.981L88.9965 191.926L89.6582 187.289L86.7714 187.171L86.4315 188.752Z" fill="url(#paint0_linear_155_48598)"/>
<path d="M86.4466 189.833C86.4466 189.833 74.5868 183.997 73.3847 184.13C72.1826 184.267 68.0179 187.677 68.0179 187.677C68.0179 187.677 67.1194 183.37 65.7989 183.388C64.4754 183.407 59.7643 181.62 59.7643 181.62L26.8135 181.671L26.8378 183.646L1.29077 188.174L2.07394 193.031L13.4997 193.973L42.489 192.208L44.3589 186.759L44.4257 192.062L89.0116 193.007L89.6734 188.37L86.7866 188.252L86.4466 189.833Z" fill="#661C2D"/>
</g>
<defs>
<linearGradient id="paint0_linear_155_48598" x1="46.6082" y1="171.725" x2="44.6856" y2="197.822" gradientUnits="userSpaceOnUse">
<stop stop-color="#E9A828"/>
<stop offset="0.99" stop-color="#DA1405"/>
</linearGradient>
<clipPath id="clip0_155_48598">
<rect width="91" height="193" fill="white"/>
</clipPath>
</defs>
</svg>
