<svg width="91" height="193" viewBox="0 0 91 193" fill="none" xmlns="http://www.w3.org/2000/svg">
<g clip-path="url(#clip0_145_48231)">
<path d="M68.5308 151.167L68.8365 151.812C65.4149 142.889 56.8229 135.18 56.0758 125.297C59.4888 127.573 58.487 120.602 58.071 119.354C57.4512 117.495 56.4833 115.771 55.3966 114.15C54.3438 112.579 53.8344 111.62 53.4524 109.794C52.5779 106.356 50.7695 103.197 48.8592 100.243C46.6093 96.7534 43.434 93.4762 42.0501 89.5199C37.0749 93.5442 35.3345 84.4937 35.326 81.3354C35.292 78.0497 34.1204 74.6537 33.9081 71.1133C33.9336 65.2806 35.742 59.9148 36.8287 54.2434C37.4061 51.2125 37.6608 48.0626 37.1259 45.0062C36.6419 42.7988 35.6911 40.829 35.5722 38.5792C35.5722 39.0801 35.5722 39.581 35.5552 40.0819C35.0883 39.0291 34.5534 38.0103 33.993 37C34.4515 37.9849 34.91 38.9697 35.3005 39.98C35.8014 41.2705 35.3769 42.9176 35.2071 44.259C34.7402 47.8419 33.8572 51.3568 33.0931 54.8887C32.3035 58.4885 31.6413 62.1392 31.5903 65.8324C31.5309 69.9501 32.7195 73.7197 34.4175 77.4299C35.1052 78.9327 34.9694 79.1874 34.5279 80.7581C34.0525 82.4815 33.8402 84.2899 34.044 86.0729C34.3411 89.5199 35.5722 92.797 35.9712 96.2355C36.2005 98.0779 34.3751 104.148 32.9148 99.9967C31.879 97.0336 33.1355 93.7055 31.9894 90.7339C31.7431 93.9602 30.6649 96.9996 29.6461 100.056C28.882 102.365 26.5642 107.612 28.3216 109.701C30.2149 111.968 32.5073 114.557 32.6601 117.597C32.8384 121.213 32.7535 124.856 32.0743 128.422C30.7243 135.477 26.4453 141.386 23.8388 147.974C21.3512 154.265 20.0098 161.278 21.8691 167.901C24.9086 178.742 35.2411 186.35 46.499 186.035C57.7229 185.73 67.6224 177.571 70.059 166.61C71.2052 161.457 70.6703 155.98 68.5223 151.158C68.7176 151.566 69.8892 154.232 68.5223 151.158L68.5308 151.167Z" fill="#FF8800"/>
<path d="M24.6964 96.0062C24.7728 96.1591 24.8577 96.3034 24.9426 96.4477C26.717 93.4932 27.7019 91.7612 27.1076 88.1783C24.3568 90.0971 23.0493 92.8394 24.6964 96.0062C24.552 95.7261 24.8407 96.2864 24.6964 96.0062Z" fill="#FF8800"/>
<path d="M43.1369 77.1498C43.1114 78.8394 43.4765 80.011 44.3255 81.4883C45.0896 79.6374 45.0047 77.2602 43.0435 76.1735C43.1284 76.4961 43.1624 76.8187 43.1284 77.1498C43.1284 77.6932 43.1369 76.8697 43.1284 77.1498H43.1369Z" fill="#FF8800"/>
<path d="M67.6988 162.28C66.7309 152.491 53.3166 149.749 52.892 139.425C49.946 145.088 54.1995 150.81 54.1316 156.549C54.1061 158.876 52.6034 161.295 49.9375 160.794C47.7131 160.378 46.2952 157.729 45.3104 155.946C43.2897 159.156 39.8682 161.541 35.9118 160.591C32.1932 159.699 30.3678 155.165 29.6631 151.769C29.332 152.754 29.1452 153.765 29.0943 154.8C28.1688 151.795 28.7292 148.195 29.8923 145.317C30.6904 143.627 30.3168 143.432 30.198 141.624C30.1131 140.333 30.0027 138.975 30.2574 137.693C26.6406 143.992 24.9766 151.107 23.8049 158.23C23.1172 162.382 23.6521 166.703 25.3246 170.566C26.0633 172.264 27.0142 173.869 28.1434 175.329C29.0773 176.535 30.3763 176.569 31.6243 177.452C32.9573 178.386 34.0864 179.676 34.8506 181.103C36.4382 181.986 38.1277 182.682 39.8852 183.149C43.6039 184.151 47.5857 184.151 51.3044 183.149C58.0456 181.349 63.6575 176.297 66.1961 169.794C66.1281 170.049 66.0517 170.303 65.9753 170.558C66.9517 167.926 67.9705 165.124 67.6818 162.28H67.6988ZM52.7732 140.036C52.8666 139.722 52.9005 140.019 52.8666 140.936C52.3572 140.885 52.3232 140.588 52.7732 140.036C52.7732 140.036 52.6883 140.274 52.7732 140.036Z" fill="#FFFF00"/>
<path d="M41.4134 118.327C41.1927 117.376 40.9719 116.578 40.7427 116.026C40.5305 115.483 40.3946 115.151 40.3946 115.151C40.3946 115.151 40.3352 115.483 40.2333 116.034C40.1569 116.578 39.9701 117.342 39.7918 118.191C39.3843 119.906 38.6796 121.91 38.0938 123.667C37.958 124.049 37.8306 124.474 37.7202 124.915C37.5844 125.365 37.4401 125.841 37.3127 126.324C37.1854 126.842 37.075 127.403 36.9816 127.929C36.8967 128.464 36.8627 128.99 36.8203 129.474C36.7863 129.958 36.8203 130.442 36.8288 130.85C36.8288 131.257 36.9052 131.631 36.9561 131.928C37.0665 132.531 37.1429 132.879 37.1429 132.879C37.1429 132.879 37.2618 132.548 37.457 131.996C37.6099 131.453 37.9834 130.731 38.3655 129.95C38.5777 129.568 38.807 129.152 39.0447 128.736C39.2994 128.328 39.5456 127.912 39.7918 127.488C40.072 127.029 40.3437 126.571 40.5899 126.112C40.8106 125.62 41.0144 125.136 41.1842 124.669C41.32 124.193 41.4389 123.676 41.5408 123.141C41.6172 122.606 41.6596 122.045 41.6936 121.494C41.6936 120.933 41.6681 120.381 41.6342 119.855C41.5663 119.32 41.4898 118.811 41.4049 118.335L41.4134 118.327Z" fill="#FFFF00"/>
<path d="M53.9024 124.61C53.8005 124.253 53.6816 123.752 53.5713 123.192C53.342 122.071 53.1892 120.67 52.7817 119.507C52.5864 118.938 52.2553 118.293 51.8732 117.656C52.0515 117.851 52.2129 118.03 52.3232 118.208C52.6798 118.7 52.8921 118.989 52.8921 118.989C52.8921 118.989 52.8751 118.658 52.8072 118.055C52.7902 117.749 52.7053 117.401 52.6034 117.002C52.5525 116.799 52.493 116.586 52.4336 116.366C52.3487 116.153 52.2638 115.933 52.1789 115.703C51.8223 114.761 51.2704 113.785 50.6592 112.834C50.0479 111.9 49.3602 111 48.7319 110.253C48.4602 109.939 48.1716 109.599 47.8659 109.251C47.5603 108.92 47.2716 108.529 46.9575 108.147C46.3462 107.366 45.7264 106.492 45.1406 105.702C44.5548 104.912 43.9944 104.233 43.5699 103.766C43.1369 103.316 42.8652 103.053 42.8652 103.053C42.8652 103.053 42.9586 103.41 43.1114 103.996C43.2558 104.581 43.4341 105.396 43.6378 106.33C43.8501 107.273 44.1048 108.342 44.5293 109.421C44.75 109.956 44.9878 110.499 45.2934 110.991C45.4462 111.238 45.6075 111.484 45.7604 111.722C45.9217 111.959 46.083 112.146 46.2443 112.341C47.1612 113.428 48.3583 114.413 49.4451 115.338C49.4111 115.686 49.3772 116.111 49.3517 116.569C49.2753 117.809 49.3007 119.38 49.7168 120.577C50.1243 121.774 51.1346 123.115 52.1449 123.981C52.6543 124.414 53.1383 124.728 53.4949 124.924C53.8599 125.11 54.0807 125.204 54.0807 125.204C54.0807 125.204 54.0128 124.983 53.9024 124.618V124.61Z" fill="#FFFF00"/>
<path d="M37.3466 117.902C37.3466 117.902 37.2957 117.775 37.2108 117.563C37.1768 117.452 37.1599 117.325 37.1259 117.189C37.1089 117.045 37.1004 116.892 37.0919 116.722C37.0919 116.051 37.2193 115.245 37.2108 114.549C37.2023 113.861 37.0325 112.97 36.8287 112.248C36.7269 111.883 36.608 111.569 36.5146 111.356C36.4127 111.144 36.3448 111.017 36.3448 111.017C36.3448 111.017 36.2259 111.535 36.0137 112.205C35.8099 112.885 35.5722 113.759 35.5807 114.583C35.5807 115.296 35.8609 116.272 36.3024 116.96C36.4127 117.13 36.5401 117.283 36.642 117.41C36.7693 117.529 36.8797 117.631 36.9816 117.707C37.2023 117.843 37.3212 117.902 37.3212 117.902H37.3466Z" fill="#FFFF00"/>
<path d="M86.4315 188.752C86.4315 188.752 74.5716 182.916 73.3696 183.049C72.1675 183.183 68.0027 186.596 68.0027 186.596C68.0027 186.596 67.1042 182.289 65.7838 182.307C64.4603 182.325 59.7491 180.539 59.7491 180.539L26.3977 181.211L26.422 183.186L1.27563 187.092L2.0588 191.95L13.4846 192.892L42.4739 191.126L44.3438 185.678L44.4106 190.981L88.9965 191.926L89.6582 187.289L86.7714 187.171L86.4315 188.752Z" fill="url(#paint0_linear_145_48231)"/>
<path d="M86.4467 189.833C86.4467 189.833 74.5868 183.997 73.3848 184.13C72.1827 184.267 68.0179 187.677 68.0179 187.677C68.0179 187.677 67.1194 183.37 65.799 183.388C64.4755 183.407 59.7643 181.62 59.7643 181.62L26.8136 181.671L26.8379 183.646L1.29083 188.174L2.074 193.031L13.4998 193.973L42.4891 192.208L44.359 186.759L44.4258 192.062L89.0117 193.007L89.6734 188.37L86.7866 188.252L86.4467 189.833Z" fill="#661C2D"/>
</g>
<defs>
<linearGradient id="paint0_linear_145_48231" x1="46.6082" y1="171.725" x2="44.6856" y2="197.822" gradientUnits="userSpaceOnUse">
<stop stop-color="#E9A828"/>
<stop offset="0.99" stop-color="#DA1405"/>
</linearGradient>
<clipPath id="clip0_145_48231">
<rect width="91" height="193" fill="white"/>
</clipPath>
</defs>
</svg>
