<svg width="91" height="193" viewBox="0 0 91 193" fill="none" xmlns="http://www.w3.org/2000/svg">
<g clip-path="url(#clip0_155_48578)">
<path d="M65.6085 146.6C64.7849 144.928 64.1057 143.111 64.267 141.209C64.3774 140.029 65.1585 139.893 65.8462 140.691C64.4368 137.507 63.469 134.638 61.0917 131.972C58.8588 129.459 56.2269 127.2 54.2402 124.475C54.3421 125.765 54.4355 128.397 52.3894 127.879C50.1819 127.328 48.6198 124.823 47.2868 123.176C44.9096 120.255 43.2116 116.927 41.6494 113.514C40.8258 111.706 40.3928 110.678 40.8513 108.76C41.3437 106.688 41.955 104.633 41.8022 102.477C41.539 98.8262 39.0344 95.7613 38.5165 92.1021C38.0156 94.0888 35.6384 100.813 33.0489 96.7037C31.9961 94.8274 32.8961 92.62 32.9555 90.6418C32.998 88.9183 32.6583 87.2882 31.9706 85.7006C30.6802 87.3392 29.2283 88.9947 28.668 91.0493C28.3963 92.0596 29.3048 96.3896 30.6037 94.1482C30.5783 96.5424 30.2981 98.7838 29.5255 101.051C28.3284 104.209 26.4181 107.011 25.8917 110.407C25.4333 113.361 26.087 116.452 25.3059 119.364C26.3247 122.836 26.0785 126.563 25.1106 130.027C23.1155 137.032 20.0675 143.348 19.7619 150.76C19.7024 152.305 19.643 153.842 19.7109 155.387C19.7704 156.746 20.1015 156.135 21.2986 156.601C22.3598 157.162 22.9626 157.9 23.1749 159.081C23.2937 160.082 25.0003 159.811 25.7219 160.575C24.3295 161.602 22.3089 162.85 20.4835 162.502C20.7467 168.267 23.0475 173.836 26.919 178.115C28.6086 179.983 30.6886 182.225 33.2187 182.471C35.6469 182.709 38.2279 183.447 40.3249 184.712C39.9004 184.415 39.8749 184.441 40.257 184.772C41.0721 184.899 41.8786 185.12 42.6597 185.391C43.8059 185.791 44.6124 186.368 45.8605 186.342C48.3311 186.3 50.7932 185.901 53.1365 185.137C57.874 183.6 62.1021 180.629 65.167 176.706C71.9591 168.004 72.1544 155.506 65.6085 146.6C68.6479 150.743 65.0227 145.403 65.6085 146.6Z" fill="#FF8800"/>
<path d="M44.3748 105.134C44.7654 107.792 46.2596 110.084 48.0171 112.062C47.9491 111.222 47.5162 109.787 48.3057 109.15C49.1293 108.488 50.4707 109.329 51.2178 109.762C50.7424 107.164 49.2821 104.871 48.5095 102.367C48.3057 101.713 47.669 98.2745 47.1426 98.3509C46.7775 98.4018 46.6502 101.382 46.5907 102.027C44.7229 101.119 44.1031 103.835 44.3663 105.134C44.4003 105.347 44.1965 104.302 44.3663 105.134H44.3748Z" fill="#FF8800"/>
<path d="M36.0969 85.5646L36.3091 85.9976C38.3977 84.0109 42.4305 84.4779 44.8077 85.6241C44.2898 84.6392 43.0757 82.5591 42.6258 80.6828C41.9975 78.3395 42.4644 74.0945 39.5269 73.1351C36.4959 72.1417 36.5214 76.8962 37.3109 78.5942C36.0374 80.5979 35.146 83.2468 36.1053 85.5731C36.1733 85.7259 36.1053 85.5731 36.1053 85.5731L36.0969 85.5646Z" fill="#FF8800"/>
<path d="M32.8452 84.0875C32.9046 84.1893 32.9641 84.2912 33.0235 84.3931C33.4904 82.3045 35.4092 79.783 33.2697 77.8982C33.4735 80.0547 31.716 81.8715 32.8452 84.0875C32.9556 84.2912 32.7433 83.8837 32.8452 84.0875Z" fill="#FF8800"/>
<path d="M50.4282 85.3525C50.7339 85.5393 51.048 85.7006 51.3876 85.8195C51.7782 83.6375 51.2857 82.8904 50.0122 81.1924C48.8406 82.5593 48.8151 84.3677 50.4367 85.3525C50.6829 85.5138 49.9188 85.0384 50.4367 85.3525H50.4282Z" fill="#FF8800"/>
<path d="M66.8991 162.392C66.0416 159.208 63.5285 157.298 61.7796 154.666C56.6091 158.86 50.3264 158.291 46.2512 152.883C45.3088 151.652 45.2918 150.395 43.857 149.903C42.1335 149.317 40.6222 148.154 39.7138 146.566C38.3723 143.892 38.3299 141.065 38.6101 138.144C37.5573 139.494 35.7913 141.005 33.9405 140.598C31.0539 140.037 31.7585 136.709 32.2255 134.587C33.2868 129.79 36.4111 125.307 35.0103 120.281C34.5348 122.522 31.402 126.428 29.636 122.777C29.4917 124.398 23.8967 136.93 26.1041 137.159C29.5936 137.736 28.8549 143.051 28.4983 145.522C28.0144 148.867 25.3994 151.38 24.2703 154.606C25.2721 154.47 26.4267 155.048 27.3012 155.447C27.8361 155.693 29.0077 154.81 29.6105 154.64C31.9368 153.986 34.5433 154.318 36.6913 155.396C34.1867 156.338 31.9029 157.841 30.052 159.785C27.8955 162.052 26.5032 164.175 23.1156 164.064C23.6335 169.685 26.3758 174.974 30.6209 178.684C32.7943 180.586 35.9357 180.187 38.644 180.79C40.6732 181.231 42.8721 181.545 44.8163 182.301C45.971 182.751 47.0832 183.32 48.1105 184.008C49.5708 183.821 51.0056 183.49 52.398 183.014C55.1488 182.08 57.7043 180.603 59.8863 178.693C64.0974 175.008 68.4613 168.207 66.8991 162.392C67.1623 163.368 66.7718 161.916 66.8991 162.392Z" fill="#FFFF00"/>
<path d="M41.7768 125.298C44.3833 128.805 43.0334 133.084 44.2644 137.032C46.4973 135.173 49.9443 134.493 52.5678 135.894C51.4895 135.037 50.7169 133.831 50.1905 132.575C49.6811 131.36 49.7745 130.231 48.9 129.289C46.3275 126.504 45.1729 122.599 41.8193 120.519C42.2777 122.004 40.8684 124.263 41.7768 125.298C41.8193 125.358 41.6834 125.188 41.7768 125.298Z" fill="#FFFF00"/>
<path d="M55.4714 136.523C56.0827 137.703 55.9213 139.248 56.3628 140.504C57.11 142.652 58.5023 144.376 60.5315 145.412C59.5891 142.44 59.3938 132.736 53.7394 135.376C54.3761 135.58 55.1148 135.911 55.4629 136.523H55.4714Z" fill="#FFFF00"/>
<path d="M37.1836 112.419C37.5572 112.759 37.9562 113.064 38.3892 113.327C37.5657 111.154 35.8846 108.225 36.4195 105.848C34.3394 107.758 35.3413 110.78 37.1836 112.419C36.5384 111.842 37.8289 112.996 37.1836 112.419Z" fill="#FFFF00"/>
<path d="M86.4315 188.752C86.4315 188.752 74.5716 182.916 73.3696 183.049C72.1675 183.183 68.0027 186.596 68.0027 186.596C68.0027 186.596 67.1042 182.289 65.7838 182.307C64.4603 182.325 59.7491 180.539 59.7491 180.539L26.3977 181.211L26.422 183.186L1.27563 187.092L2.0588 191.95L13.4846 192.892L42.4739 191.126L44.3438 185.678L44.4106 190.981L88.9965 191.926L89.6582 187.289L86.7714 187.171L86.4315 188.752Z" fill="url(#paint0_linear_155_48578)"/>
<path d="M86.4466 189.833C86.4466 189.833 74.5868 183.997 73.3847 184.13C72.1826 184.267 68.0179 187.677 68.0179 187.677C68.0179 187.677 67.1194 183.37 65.7989 183.388C64.4754 183.407 59.7643 181.62 59.7643 181.62L26.8135 181.671L26.8378 183.646L1.29077 188.174L2.07394 193.031L13.4997 193.973L42.489 192.208L44.3589 186.759L44.4257 192.062L89.0116 193.007L89.6734 188.37L86.7866 188.252L86.4466 189.833Z" fill="#661C2D"/>
</g>
<defs>
<linearGradient id="paint0_linear_155_48578" x1="46.6082" y1="171.725" x2="44.6856" y2="197.822" gradientUnits="userSpaceOnUse">
<stop stop-color="#E9A828"/>
<stop offset="0.99" stop-color="#DA1405"/>
</linearGradient>
<clipPath id="clip0_155_48578">
<rect width="91" height="193" fill="white"/>
</clipPath>
</defs>
</svg>
