<svg width="91" height="193" viewBox="0 0 91 193" fill="none" xmlns="http://www.w3.org/2000/svg">
<g clip-path="url(#clip0_155_48396)">
<path d="M38.0951 95.096C38.1292 94.567 38.0439 94.9168 38.0951 95.096C38.0951 95.0106 38.078 95.0362 38.0951 95.096Z" fill="#FF8800"/>
<path d="M69.6867 155.57C67.7764 154.135 67.4113 152.318 67.6576 150.119C66.5538 148.167 65.1699 146.367 63.7012 144.669C62.7672 143.59 62.2833 142.47 62.3088 141.026C62.3258 139.804 62.6059 138.165 63.8625 137.562C64.3719 137.316 63.5399 133.402 63.4295 132.893C62.2324 127.739 60.0504 122.603 57.1638 118.162C55.6865 115.879 54.1498 113.663 52.4008 111.566C50.8641 109.723 49.217 107.261 46.9417 106.429C41.941 104.587 39.7081 100.291 38.2223 95.4599C37.9676 99.7729 37.6705 106.735 32.6528 108.39C29.8681 109.171 29.9699 104.162 30.0464 102.49C30.1737 99.4927 30.4963 96.5127 28.7304 93.8977C28.3483 95.392 27.5078 96.7419 26.8371 98.1173C25.8692 100.104 25.4108 102.388 25.3004 104.587C25.1051 108.356 25.8947 111.999 28.0512 115.131C29.8511 113.17 32.967 114.639 32.5764 117.22C32.3557 120.591 30.6067 123.817 28.9002 126.653C25.156 132.893 21.6242 138.624 20.5035 145.959C19.9177 149.771 20.1214 153.396 20.5035 157.047C20.5205 157.192 21.6496 157.888 21.8109 158.057C22.9656 159.289 23.5939 162.515 20.9619 161.088C21.0723 162.031 21.1742 162.982 21.2676 163.933C21.7855 169.443 24.1967 174.681 28.0257 178.671C35.8876 186.873 48.7501 188.622 58.5052 182.798C67.8189 177.228 72.3866 165.962 69.8141 155.57H69.7037H69.6867Z" fill="#FF8800"/>
<path d="M35.6923 83.7094C35.7857 83.1831 37.1186 84.1764 37.2799 84.5839C37.696 85.5942 37.8573 86.698 37.9931 87.7762C38.2903 90.128 38.2648 92.4712 38.112 94.823C38.7912 93.94 39.3855 92.9722 39.7676 91.9194C41.7543 95.4683 47.2728 95.2815 47.8841 90.8751C48.4954 86.4263 45.5493 82.4529 43.5287 78.7682C40.1072 72.528 38.8591 65.6849 38.3921 58.6296C35.7857 66.6952 37.1696 75.4571 35.6923 83.7094C35.7093 83.633 35.6923 83.7434 35.6923 83.7094Z" fill="#FF8800"/>
<path d="M34.4358 63.5114C34.5037 63.7831 34.5716 64.0548 34.648 64.335C34.9791 58.8843 35.4376 53.4507 35.7347 48C33.7141 53.1026 33.1198 58.1542 34.4442 63.5199C34.5716 64.0293 34.3169 63.002 34.4442 63.5199L34.4358 63.5114Z" fill="#FF8800"/>
<path d="M26.3447 73.742C26.472 75.491 26.7776 76.9937 27.1682 78.7002C28.5776 76.6117 28.1531 74.2259 26.2852 72.5958C26.3022 72.9779 26.3277 73.3599 26.3447 73.742C26.3871 74.3703 26.3447 73.4194 26.3447 73.742Z" fill="#FF8800"/>
<path d="M31.617 94.5768C31.6765 94.6957 31.7359 94.823 31.7953 94.9419C32.2283 92.293 33.0519 90.0516 32.1859 87.3602C31.2519 89.7714 30.4199 92.0807 31.617 94.5768C31.5067 94.3476 31.7274 94.8061 31.617 94.5768Z" fill="#FF8800"/>
<path d="M67.8444 160.817C67.8019 160.112 67.4368 161.165 67.267 161.368C66.6048 162.124 65.7813 162.201 65.0766 161.428C63.421 159.552 64.6351 156.656 64.5672 154.381C64.4823 151.707 63.7861 148.761 62.1135 147.114C61.5023 146.426 60.2967 146.01 60.5089 144.668C60.7382 143.412 60.5938 142.053 60.4155 140.797C59.991 137.817 59.0486 134.939 57.9534 132.146C55.6016 126.551 52.7999 121.499 51.1698 115.59C52.1631 116.447 53.1055 117.347 53.9376 118.366C53.2074 114.461 50.2274 112.262 46.653 111.082C47.7653 112.236 50.3547 113.994 50.584 115.547C51.017 118.468 51.5179 121.439 52.3754 124.267C53.8527 129.123 55.8818 133.878 56.5271 138.946C56.7308 140.508 56.7648 141.731 55.763 143.03C55.6781 143.132 53.1395 141.96 52.9273 141.816C52.0782 141.272 51.815 140.33 51.433 139.464C51.1019 138.725 50.7453 137.995 50.4312 137.24C49.7944 135.686 49.3104 134.081 49.1661 132.409C48.6737 126.737 50.4057 121.482 45.1418 117.509C46.8993 121.626 45.3031 123.596 42.5693 126.635C39.3091 130.15 41.143 135.525 38.2988 139.175C36.5328 141.553 31.201 145.118 28.1531 143.106C25.5211 141.366 30.6577 134.718 31.0058 132.536C28.1361 136.458 24.6042 139.116 23.3477 144.1C22.7703 146.417 22.5666 148.897 22.9147 151.265C23.11 152.598 23.4496 153.94 24.0269 155.162C24.1033 155.324 24.7995 156.283 24.7401 156.487C28.0088 153.787 32.3133 156.325 32.967 160.256C33.9943 166.403 26.2768 166.284 23.4071 162.634C23.6618 174.817 34.1556 184.75 46.3304 184.377C58.692 183.995 68.583 173.127 67.8359 160.791L67.8444 160.817ZM55.2026 164.96C54.2262 167.065 52.3584 168.602 50.134 169.205C49.4378 169.392 48.6737 169.434 47.952 169.383C47.0351 169.324 46.0163 169.145 45.1503 168.823C45.1163 168.814 45.0824 168.797 45.0569 168.789C43.8598 168.339 42.9089 167.498 41.8816 166.734C40.8713 165.987 39.6572 163.423 39.6572 163.423C39.6572 163.423 40.9901 163.661 41.4486 163.78C42.2382 163.983 43.0787 164.034 43.8853 164C45.5833 163.924 47.2304 163.44 48.801 162.812C51.2207 161.844 52.6556 160.503 54.0904 158.439C54.5658 157.752 55.4488 156.521 55.3214 156.054C55.3214 156.054 55.4488 156.512 55.6101 157.276C55.7629 158.04 56.0007 159.11 56.0431 160.426C56.0856 161.725 55.9667 163.338 55.2111 164.951L55.2026 164.96Z" fill="#FFFF00"/>
<path d="M86.4315 188.752C86.4315 188.752 74.5716 182.916 73.3696 183.049C72.1675 183.183 68.0027 186.596 68.0027 186.596C68.0027 186.596 67.1042 182.289 65.7838 182.307C64.4603 182.325 59.7491 180.539 59.7491 180.539L26.3977 181.211L26.422 183.186L1.27563 187.092L2.0588 191.95L13.4846 192.892L42.4739 191.126L44.3438 185.678L44.4106 190.981L88.9965 191.926L89.6582 187.289L86.7714 187.171L86.4315 188.752Z" fill="url(#paint0_linear_155_48396)"/>
<path d="M86.4467 189.833C86.4467 189.833 74.5868 183.997 73.3848 184.13C72.1827 184.267 68.0179 187.677 68.0179 187.677C68.0179 187.677 67.1194 183.37 65.799 183.388C64.4755 183.407 59.7643 181.62 59.7643 181.62L26.8136 181.671L26.8379 183.646L1.29083 188.174L2.074 193.031L13.4998 193.973L42.4891 192.208L44.359 186.759L44.4258 192.062L89.0117 193.007L89.6734 188.37L86.7866 188.252L86.4467 189.833Z" fill="#661C2D"/>
</g>
<defs>
<linearGradient id="paint0_linear_155_48396" x1="46.6082" y1="171.725" x2="44.6856" y2="197.822" gradientUnits="userSpaceOnUse">
<stop stop-color="#E9A828"/>
<stop offset="0.99" stop-color="#DA1405"/>
</linearGradient>
<clipPath id="clip0_155_48396">
<rect width="91" height="193" fill="white"/>
</clipPath>
</defs>
</svg>
