<svg width="91" height="193" viewBox="0 0 91 193" fill="none" xmlns="http://www.w3.org/2000/svg">
<g clip-path="url(#clip0_155_48623)">
<path d="M70.5663 156.335C69.9465 152.82 68.3758 149.67 67.0004 146.41C65.625 143.15 64.6827 139.873 64.0883 136.383C63.7148 134.066 61.8639 132.843 60.8621 130.678C59.6056 127.961 59.9706 124.786 58.6377 122.239C57.0755 119.242 54.8087 116.593 52.4484 114.19C51.2683 112.985 50.0542 111.821 48.8486 110.641C48.2712 110.073 47.6939 109.504 47.1251 108.926C46.2421 108.026 46.2421 107.627 45.9619 106.413C44.5696 100.3 39.5349 95.3507 40.5622 88.635C36.4785 90.5623 35.2135 95.6648 34.9842 99.774C34.8908 101.362 35.3918 114.98 31.2741 112.407C30.9684 113.273 30.1024 115.922 28.8119 114.725C27.496 113.579 27.3347 111.915 27.4875 110.285C25.73 114.555 23.7603 118.41 24.6178 123.19C31.291 120.796 29.7373 130.873 28.5572 134.354C26.6215 140.017 22.8094 145.026 21.9349 151.054C21.5274 153.89 21.0689 156.913 20.967 159.782C20.9076 161.336 21.001 162.898 21.2302 164.443C21.3661 165.352 21.5529 166.252 21.7906 167.143C22.0283 168.018 22.4953 168.026 23.2339 168.442C24.0999 168.935 24.9744 169.546 25.4329 170.471C25.747 171.091 26.5536 171.38 27.0375 171.906C27.8356 172.764 28.3195 173.782 28.4723 174.937C28.6421 176.227 27.9035 178.027 28.8374 178.91C36.886 186.475 49.3156 187.834 58.7905 182.128C60.8706 180.872 62.7639 179.318 64.4025 177.526C65.1666 176.686 65.8798 175.795 66.525 174.861C66.7203 173.392 67.0684 171.991 67.4759 170.573C67.8749 169.401 68.3589 168.272 69.0041 167.211C69.3862 166.591 70.422 165.785 70.5408 165.122C71.0587 162.219 71.0672 159.247 70.5493 156.344C70.1248 153.949 70.7955 157.762 70.5493 156.344L70.5663 156.335Z" fill="#FF8800"/>
<path d="M31.4184 66.6456C32.1995 61.7044 37.1832 58.7499 38.9662 54.2501C41.25 49.1136 38.5756 42.5847 36.1305 38C36.4022 47.857 29.5336 56.5254 31.4184 66.6456C31.4524 66.4164 31.359 66.3485 31.4184 66.6456Z" fill="#FF8800"/>
<path d="M28.3789 91.2076C30.0515 94.7479 34.1267 91.3689 34.4579 88.6096C34.6446 87.0474 34.3135 85.4428 33.872 83.957C33.7107 83.4221 32.4202 79.0412 31.9618 79.0158C31.325 79.7969 30.7222 80.561 30.2128 81.4354C30.6967 78.1752 30.4675 75.1188 28.4808 72.3595C29.2619 75.0254 28.345 78.3875 28.0139 81.0704C27.6148 84.3051 27.0884 88.1172 28.3789 91.2076C28.5572 91.5811 27.9035 90.0614 28.3789 91.2076Z" fill="#FF8800"/>
<path d="M45.3846 92.9395C45.6138 93.3725 45.9364 93.7375 46.3355 94.0092C46.5392 91.9292 49.5277 91.5726 51.056 92.3876C51.4125 87.7351 43.746 88.5671 45.3761 92.9395C45.4355 93.0583 45.3336 92.8206 45.3761 92.9395H45.3846Z" fill="#FF8800"/>
<path d="M67.7646 158.025C67.6627 157.312 66.4656 156.599 65.9732 156.098C64.9883 155.087 64.1987 153.933 63.5195 152.693C62.195 150.265 61.4734 147.582 60.7687 144.925C59.3848 139.763 58.0858 134.448 54.0955 130.636C53.1276 134.804 48.891 136.01 47.3968 139.703C46.6836 141.461 46.8534 143.66 45.3082 144.993C44.0941 146.045 42.3876 146.674 40.8254 146.096C40.5962 149.654 38.5925 151.971 34.9078 152.082C31.1127 152.192 29.644 149.331 29.7289 145.893C27.0799 148.652 25.1527 152.082 24.2103 155.792C23.7518 157.583 23.5226 159.434 23.5226 161.285C23.5226 163.56 24.3461 164.274 26.3158 165.403C29.3128 167.126 30.9854 169.936 31.308 173.4C31.4609 175.022 31.4693 176.652 31.4184 178.274C32.9381 179.556 34.6192 180.634 36.4276 181.475C43.746 184.871 52.5503 183.954 59.0112 179.14C62.628 176.448 63.2139 172.73 64.9289 168.799C65.6505 167.152 66.4571 165.522 67.5184 164.07C68.5542 162.66 68.0108 159.697 67.7646 158.033C67.7476 157.923 67.9259 159.095 67.7646 158.033V158.025Z" fill="#FFFF00"/>
<path d="M33.091 132.741C34.3136 131.205 38.3719 121.704 41.3349 123.903C41.6236 121.339 41.3179 118.597 39.7388 116.474C39.2718 115.846 37.9643 116.381 37.4125 116.729C36.1899 117.493 35.9522 118.767 35.9946 120.108C36.0116 121.042 35.9946 121.832 35.4258 122.655C34.5683 123.903 33.3797 123.462 33.108 124.956C32.6241 127.698 33.0656 130.483 32.6495 133.217C32.8108 133.073 32.9552 132.911 33.091 132.741C33.0401 132.809 33.1844 132.623 33.091 132.741Z" fill="#FFFF00"/>
<path d="M38.0916 108.612C38.4821 107.577 38.584 106.464 38.3633 105.378C37.7775 107.39 36.8096 109.232 36.3002 111.287C36.9879 110.48 37.6756 109.597 38.0916 108.612C37.8369 109.224 38.3293 107.993 38.0916 108.612Z" fill="#FFFF00"/>
<path d="M42.6847 108.961C44.196 112.688 48.458 114.182 49.9778 117.875C49.9013 112.441 43.8734 110.981 42.2008 106.456C42.2008 107.322 42.3536 108.154 42.6847 108.952C43.2536 110.353 42.3961 108.256 42.6847 108.952V108.961Z" fill="#FFFF00"/>
<path d="M86.4315 188.752C86.4315 188.752 74.5716 182.916 73.3696 183.049C72.1675 183.183 68.0027 186.596 68.0027 186.596C68.0027 186.596 67.1042 182.289 65.7838 182.307C64.4603 182.325 59.7491 180.539 59.7491 180.539L26.3977 181.211L26.422 183.186L1.27563 187.092L2.0588 191.95L13.4846 192.892L42.4739 191.126L44.3438 185.678L44.4106 190.981L88.9965 191.926L89.6582 187.289L86.7714 187.171L86.4315 188.752Z" fill="url(#paint0_linear_155_48623)"/>
<path d="M86.4466 189.833C86.4466 189.833 74.5868 183.997 73.3847 184.13C72.1826 184.267 68.0179 187.677 68.0179 187.677C68.0179 187.677 67.1194 183.37 65.7989 183.388C64.4754 183.407 59.7643 181.62 59.7643 181.62L26.8135 181.671L26.8378 183.646L1.29077 188.174L2.07394 193.031L13.4997 193.973L42.489 192.208L44.3589 186.759L44.4257 192.062L89.0116 193.007L89.6734 188.37L86.7866 188.252L86.4466 189.833Z" fill="#661C2D"/>
</g>
<defs>
<linearGradient id="paint0_linear_155_48623" x1="46.6082" y1="171.725" x2="44.6856" y2="197.822" gradientUnits="userSpaceOnUse">
<stop stop-color="#E9A828"/>
<stop offset="0.99" stop-color="#DA1405"/>
</linearGradient>
<clipPath id="clip0_155_48623">
<rect width="91" height="193" fill="white"/>
</clipPath>
</defs>
</svg>
