<svg width="91" height="193" viewBox="0 0 91 193" fill="none" xmlns="http://www.w3.org/2000/svg">
<g clip-path="url(#clip0_155_48400)">
<path d="M26.9466 87.2877C27.0485 88.2386 27.1165 88.8668 27.1165 88.8668C27.1165 88.8668 27.2947 88.247 27.5664 87.3131C27.8381 86.3792 28.1862 85.1736 28.5852 83.9001C29.3578 81.3785 30.1474 78.7636 30.1814 78.3985C30.2578 77.6684 29.4343 76.9807 28.339 76.8618C27.2438 76.7429 26.2929 77.2354 26.2165 77.974C26.1741 78.3391 26.3863 81.0644 26.5985 83.6963C26.7004 85.0038 26.8448 86.3368 26.9466 87.2877Z" fill="#FF8800"/>
<path d="M38.3828 56.927C38.0517 56.095 37.814 55.3224 37.6697 54.7535C37.5338 54.1762 37.4574 53.8281 37.4574 53.8281C37.4574 53.8281 37.398 54.1762 37.2876 54.7451C37.2027 55.3224 37.1263 56.1544 37.1772 57.1138C37.2451 59.0411 37.8819 61.3843 38.5866 63.0824C39.2998 64.7974 40.4205 66.7076 41.0657 68.3717C41.227 68.7877 41.3968 69.1783 41.4987 69.5433C41.6176 69.9084 41.7364 70.231 41.7958 70.5027C41.9402 71.0631 42.0251 71.3942 42.0251 71.3942C42.0251 71.3942 42.0845 71.0715 42.1779 70.5197C42.2373 70.2395 42.2543 69.9084 42.2713 69.5179C42.3053 69.1273 42.3053 68.6943 42.2713 68.2274C42.2119 66.3426 41.6006 63.9908 40.8195 62.1399C40.1403 60.5014 39.0111 58.5911 38.3659 56.91L38.3828 56.927Z" fill="#FF8800"/>
<path d="M69.8896 157.509C70.1274 156.83 69.7878 155.879 69.6264 155.251C69.3972 154.376 69.2019 153.51 68.8963 152.661C68.285 150.997 67.5633 149.384 66.6379 147.873C66.12 147.024 65.5512 146.209 64.9399 145.428C64.5154 144.884 64.0739 144.367 63.6069 143.866C62.6815 143.152 61.773 142.363 60.992 141.565C60.8137 141.387 60.6439 141.2 60.4656 140.996C59.3788 139.756 58.3431 138.092 58.1478 136.471C58.0884 136.012 58.0204 135.571 58.0629 135.172C58.0798 134.841 58.0798 134.544 58.1223 134.28C58.1308 134.229 58.1308 134.161 58.1478 134.119C58.1648 134.026 58.1818 133.932 58.1987 133.847C58.1818 133.805 58.1563 133.771 58.1393 133.728C57.7912 132.998 57.4856 132.175 57.3073 131.249C57.0441 130.146 56.9761 128.915 56.8573 127.641C56.7299 126.368 56.696 125.026 56.5346 123.668C56.4328 122.309 56.1611 120.934 55.8554 119.584C55.5328 118.234 55.0234 116.952 54.4716 115.746C53.9876 114.685 53.3848 113.598 52.7311 112.495C52.4085 111.943 52.0604 111.391 51.7038 110.831C51.3302 110.287 50.9566 109.735 50.5831 109.184C49.0464 107.01 47.3653 104.922 45.922 103.028C44.4532 101.152 43.2901 99.4029 42.4835 98.1379C42.4071 98.0021 42.3307 97.8662 42.2543 97.7389C42.2118 97.6625 42.1694 97.5945 42.1354 97.5266C42.11 97.5436 42.0845 97.5691 42.059 97.586C41.7194 97.8492 41.3204 98.1039 40.8449 98.2822C40.395 98.452 39.8771 98.4775 39.4356 98.2483C38.9856 98.036 38.6375 97.586 38.3488 97.1276C38.1111 96.6436 38.0177 96.1257 38.1451 95.6248C38.2555 95.1154 38.5866 94.6654 38.9347 94.2749C40.1742 92.8995 42.908 91.7618 44.7334 92.9674C45.6164 93.4768 46.1343 94.2919 46.4399 94.8777C46.5588 95.0984 46.6437 95.2852 46.7116 95.438C46.7286 95.472 46.7455 95.5145 46.7625 95.5484C46.7625 95.523 46.771 95.4975 46.7795 95.4635C46.7965 95.3701 46.822 95.2598 46.8475 95.1409C46.9324 94.6909 47.0512 94.0457 47.0936 93.29C47.1531 92.5344 47.1446 91.6515 47.0427 90.7515C46.9408 89.8516 46.6946 88.9431 46.372 88.1196C45.7947 86.6763 44.4702 85.0461 43.0523 84.282C42.7127 84.0783 42.3816 83.9 42.0675 83.7811C41.9571 83.7387 41.8638 83.6962 41.7704 83.6538C41.694 83.6198 41.6175 83.5943 41.5411 83.5689C41.5241 83.6283 41.5072 83.6792 41.4902 83.7387C41.4223 83.9509 41.3289 84.1802 41.2185 84.4094C40.9723 84.9273 40.5818 85.4791 40.1233 85.9461C39.6648 86.4046 39.096 86.7781 38.5611 86.8715C38.0941 86.9649 37.5592 86.7866 37.1093 86.3791C36.7612 85.9885 36.5235 85.2924 36.4046 84.715C36.3452 84.4094 36.2942 84.1207 36.2603 83.8575C36.2433 83.7132 36.2348 83.5858 36.2263 83.4585C36.1584 83.5349 36.0905 83.6198 36.0226 83.6962C35.8273 83.9255 35.6405 84.1717 35.4622 84.4773C35.0037 85.2499 34.6472 86.2857 34.7066 87.3894C34.7406 88.4931 35.1226 89.5289 35.3603 90.4459C35.5726 91.2439 35.7169 92.1948 35.3688 92.9759C35.182 93.341 34.8594 93.5957 34.4434 93.6636C34.0359 93.74 33.5859 93.6381 33.2293 93.4344C32.7878 93.2136 32.4907 92.8486 32.3039 92.4835C32.2784 92.4325 32.2529 92.3816 32.2359 92.3307C32.1935 92.4156 32.1426 92.5005 32.0916 92.5854C31.6162 93.4514 31.0388 94.6145 30.5294 95.9899C29.3663 99.0463 28.5937 103.122 28.4578 106.45C28.3729 108.114 28.3984 109.973 28.5428 111.815C28.6192 112.732 28.7126 113.658 28.8569 114.541C29.0097 115.415 29.1541 116.273 29.2984 117.071C29.4427 117.945 29.604 118.752 29.7653 119.474C29.7993 119.618 29.8248 119.754 29.8587 119.89C29.9266 119.966 30.0031 120.042 30.071 120.127C30.088 120.144 30.1049 120.161 30.1219 120.178C30.6992 120.773 31.2172 121.605 31.6332 122.267C31.9388 122.861 32.2954 123.583 32.4991 124.279C32.4737 124.568 32.4312 124.865 32.3803 125.162C32.2954 125.748 32.1341 126.334 31.9898 126.945C31.786 127.539 31.6417 128.167 31.37 128.77C31.1238 129.382 30.8776 130.01 30.6229 130.638C30.3342 131.258 30.0455 131.886 29.7483 132.514C28.5343 135.019 27.1249 137.532 25.8344 139.909C24.7137 141.998 23.4742 144.443 22.4299 146.999C22.2516 147.448 22.0902 147.907 21.9289 148.365C21.8865 148.501 22.3705 149.206 22.4469 149.367C22.5997 149.715 22.727 150.072 22.8289 150.437C23.0242 151.142 23.1431 151.889 23.0921 152.627C22.9902 154.207 22.3874 156.372 20.3753 156.1C20.2989 157.238 20.2734 158.299 20.2903 159.233C20.2564 159.751 20.2394 160.269 20.2394 160.786C20.2394 174.574 31.4549 185.781 45.2343 185.781C46.4484 185.781 47.7304 185.527 48.9275 185.357C50.1331 185.179 51.3302 184.949 52.5103 184.635C54.8281 184.007 57.0271 183.005 59.0307 181.681C61.0344 180.348 62.8598 178.726 64.4135 176.892C65.9587 175.067 67.2067 173.012 68.0982 170.788C69.0151 168.487 69.533 166.067 69.983 163.648C70.0255 163.401 70.1868 163.002 70.1443 162.756C70.0509 162.153 69.4821 161.678 69.2953 161.092C69.1085 160.515 69.0321 159.92 69.1085 159.318C69.1934 158.655 69.4821 158.214 69.7793 157.645C69.8047 157.594 69.8302 157.543 69.8471 157.492L69.8896 157.509Z" fill="#FF8800"/>
<path d="M40.2337 54.2781C40.5563 54.5413 40.811 54.7365 41.0063 54.8469C41.1931 54.9573 41.295 55.0252 41.295 55.0252C41.295 55.0252 41.2271 54.9318 41.1082 54.7535C40.9808 54.5922 40.828 54.3205 40.6582 53.9979C40.3186 53.3357 40.0129 52.3508 39.8686 51.2046C39.5375 48.9123 39.8347 46.0087 40.013 43.6824C40.1743 41.3476 40.3101 38.3931 40.7346 36.0413C40.9299 34.8697 41.1846 33.8424 41.4393 33.1292C41.5667 32.7726 41.677 32.4839 41.7619 32.2972C41.8468 32.1019 41.8978 32 41.8978 32C41.8978 32 41.8129 32.0679 41.6601 32.2038C41.4988 32.3311 41.295 32.5434 41.0318 32.8235C40.5224 33.3839 39.8687 34.2499 39.2659 35.3451C38.0263 37.5271 36.982 40.6175 36.7783 43.4532C36.583 45.9323 37.0924 49.2349 38.3065 51.6291C38.8923 52.8263 39.6224 53.7602 40.2507 54.295L40.2337 54.2781Z" fill="#FF8800"/>
<path d="M64.354 163.885C62.6051 165.252 60.5674 166.22 58.4534 166.874C54.913 167.969 48.2058 167.859 46.805 163.401C45.3871 158.851 50.9057 155.998 54.4206 155.225C58.5043 154.334 62.9362 154.708 66.7567 156.44C66.4426 155.073 66.0011 153.731 65.4323 152.441C64.6767 150.717 64.1418 150.641 62.4862 149.885C62.4353 149.86 62.3928 149.834 62.3504 149.817C59.0987 148.297 56.5771 145.852 54.8281 142.728C54.8026 142.677 54.7687 142.635 54.7432 142.584C54.6668 142.439 54.5904 142.286 54.514 142.134C54.463 142.032 54.4121 141.938 54.3611 141.837C53.648 140.436 53.0622 138.975 52.5018 137.49C52.4169 137.26 52.332 137.031 52.2471 136.802C50.8208 132.973 49.5048 129.076 46.7455 126.002C47.1616 129.509 46.2786 133.075 44.0796 135.842C43.9268 136.038 43.7655 136.233 43.5957 136.42C43.5787 136.437 43.5617 136.454 43.5448 136.471C42.908 137.167 42.1524 137.846 41.2439 138.16C41.1675 138.186 41.2355 139.672 41.2355 139.502C41.2015 141.743 40.7006 144.078 39.4695 145.98C36.6593 150.403 32.7453 147.279 32.601 143.017C32.567 141.972 32.635 140.937 32.7369 139.892C32.7623 139.655 32.7878 139.408 32.8132 139.171C33.1359 136.309 33.6198 133.457 32.9151 130.613C32.2274 135.078 29.6295 138.907 27.8041 142.991C27.5834 143.484 27.3796 143.985 27.1843 144.485C26.8702 145.309 26.59 146.141 26.3778 147.007C26.2165 147.661 25.6816 149.24 26.2759 149.715C27.456 150.675 27.9993 152.177 28.0333 153.663C28.0842 156.193 26.1146 160.133 23.0666 158.511C21.4195 171.093 31.0643 182.818 43.74 183.599C56.2714 184.372 67.1558 174.184 67.3426 161.72C67.2492 161.618 64.9144 163.469 64.3965 163.877L64.354 163.885Z" fill="#FFFF00"/>
<path d="M36.2093 115.577C35.9716 114.55 36.6932 117.716 36.2093 115.577V115.577Z" fill="#FFFF00"/>
<path d="M40.3186 127.514C41.9147 122.912 40.5733 118.03 40.6667 113.31C40.6667 112.911 40.9638 111.816 40.6412 111.578C39.6479 110.848 39.3932 109.32 39.2403 108.19C39.0281 106.637 38.6121 103.75 39.996 102.587C37.4574 102.451 37.0669 106.042 37.1093 107.834C37.1093 108.437 38.0008 113.692 35.8528 112.775C35.8528 113.709 35.9971 114.668 36.2094 115.585C37.1433 119.711 39.6394 123.328 40.3186 127.522V127.514Z" fill="#FFFF00"/>
<path d="M46.304 111.323C45.905 110.287 46.6521 112.367 46.304 111.323V111.323Z" fill="#FFFF00"/>
<path d="M48.0869 116.621C48.919 112.384 47.3907 109.073 44.6399 105.889C45.1239 107.706 45.6248 109.557 46.304 111.315C46.8983 113.089 47.5775 114.804 48.0869 116.612V116.621Z" fill="#FFFF00"/>
<path d="M56.1356 142.125C56.1356 142.125 56.1356 142.151 56.1356 142.159C56.1356 142.151 56.1356 142.134 56.1356 142.125C56.3054 143.263 56.8318 144.392 57.6129 145.267C58.1647 145.886 58.8609 146.353 59.642 146.617C59.6675 146.625 59.7014 146.642 59.7269 146.651C59.8797 146.693 60.0156 146.736 60.1344 146.761C60.3467 146.803 60.5589 146.837 60.7797 146.846C60.525 146.549 60.3212 146.226 60.1429 145.895C59.7778 145.216 59.5316 144.469 59.2345 143.738C58.5637 142.1 57.2732 140.716 56.0507 139.459C55.9743 140.351 55.9913 141.242 56.1271 142.125C56.1101 142.04 56.0931 141.913 56.1271 142.125H56.1356Z" fill="#FFFF00"/>
<path d="M86.4315 188.752C86.4315 188.752 74.5716 182.916 73.3696 183.049C72.1675 183.183 68.0027 186.596 68.0027 186.596C68.0027 186.596 67.1042 182.289 65.7838 182.307C64.4603 182.325 59.7491 180.539 59.7491 180.539L26.3977 181.211L26.422 183.186L1.27563 187.092L2.0588 191.95L13.4846 192.892L42.4739 191.126L44.3438 185.678L44.4106 190.981L88.9965 191.926L89.6582 187.289L86.7714 187.171L86.4315 188.752Z" fill="url(#paint0_linear_155_48400)"/>
<path d="M86.4467 189.833C86.4467 189.833 74.5868 183.997 73.3848 184.13C72.1827 184.267 68.0179 187.677 68.0179 187.677C68.0179 187.677 67.1194 183.37 65.799 183.388C64.4755 183.407 59.7643 181.62 59.7643 181.62L26.8136 181.671L26.8379 183.646L1.29083 188.174L2.074 193.031L13.4998 193.973L42.4891 192.208L44.359 186.759L44.4258 192.062L89.0117 193.007L89.6734 188.37L86.7866 188.252L86.4467 189.833Z" fill="#661C2D"/>
</g>
<defs>
<linearGradient id="paint0_linear_155_48400" x1="46.6082" y1="171.725" x2="44.6856" y2="197.822" gradientUnits="userSpaceOnUse">
<stop stop-color="#E9A828"/>
<stop offset="0.99" stop-color="#DA1405"/>
</linearGradient>
<clipPath id="clip0_155_48400">
<rect width="91" height="193" fill="white"/>
</clipPath>
</defs>
</svg>
