<svg width="91" height="193" viewBox="0 0 91 193" fill="none" xmlns="http://www.w3.org/2000/svg">
<g clip-path="url(#clip0_155_48392)">
<path d="M71.0206 160.405C71.0121 159.497 69.6877 158.053 69.2971 157.187C68.5924 155.617 68.1339 153.927 67.9047 152.221C67.4632 148.901 68.1509 145.641 67.9302 142.33C67.5311 136.268 64.3304 129.875 60.824 125.035C58.9646 122.471 56.6383 119.466 54.0488 117.606C51.4084 115.722 48.785 113.098 47.2143 110.246C45.4484 107.401 44.1748 103.81 44.2003 100.448C44.2088 98.8008 45.9747 94.4199 47.7577 97.2386C49.5066 88.9014 43.8777 83.1451 40.8467 75.9964C40.5496 78.2802 40.3203 80.8782 39.2081 82.9328C37.3997 86.193 36.4913 80.9971 36.4064 79.6981C36.0753 74.638 36.3724 69.8071 35.3706 64.7894C35.8545 68.9581 34.1395 72.5918 33.6047 76.6416C33.3839 78.3312 33.4264 80.0971 33.9952 81.7187C32.6622 83.5101 31.0491 85.1317 30.285 87.2713C29.0115 90.8286 28.9096 96.5849 31.9151 99.3867C32.5009 100.015 31.7623 103.19 31.8387 104.218C32 106.349 32.416 108.522 33.3075 110.475C33.3415 107.563 34.2075 104.472 35.3706 101.823C36.8818 104.353 37.9091 108.225 37.4082 111.171C37.1875 112.478 35.8545 115.509 34.182 114.567C31.9745 119.254 30.9812 124.382 29.6058 129.348C28.0012 135.139 25.4032 140.615 22.6184 145.921C21.243 148.544 19.8507 151.304 19.6894 154.326C19.5111 157.654 20.8185 160.711 21.2346 163.945C21.6166 166.926 22.3807 169.54 24.1721 171.926C24.8853 172.877 25.4457 173.921 26.1843 174.855C27.2116 175.857 28.6719 176.468 29.5549 177.606C30.3105 178.574 30.0473 179.983 30.9812 180.688C32.034 181.478 33.1462 182.191 34.3008 182.811C36.9073 184.203 39.76 185.12 42.6891 185.51C47.5964 186.164 52.6565 185.341 57.0883 183.142C65.6379 178.905 71.1395 169.931 71.0121 160.388L71.0206 160.405Z" fill="#FF8800"/>
<path d="M27.3729 82.695C27.4663 83.1959 27.5767 83.6884 27.704 84.1808C28.6974 81.5149 29.2322 78.9594 29.1813 76.1067C27.7549 78.1104 26.9314 80.2074 27.3729 82.6865C27.5342 83.544 27.3304 82.4743 27.3729 82.6865V82.695Z" fill="#FF8800"/>
<path d="M42.0778 67.2431C42.5108 70.1892 43.3598 73.0928 43.9456 76.0134C44.4975 69.9515 42.9183 64.2037 42.5702 58.2012C41.8146 61.2237 41.7042 64.1527 42.0863 67.2431C42.341 68.9666 41.9674 66.2498 42.0863 67.2431H42.0778Z" fill="#FF8800"/>
<path d="M37.9431 44.566C37.9771 44.8802 38.0025 45.1943 38.0365 45.5C40.176 39.1833 41.1099 33.4695 39.0213 27C38.427 32.9091 37.4337 38.606 37.9431 44.566C38.0025 45.1519 37.8922 43.9802 37.9431 44.566Z" fill="#FF8800"/>
<path d="M67.9896 159.42C67.8368 157.671 66.8774 156.101 66.385 154.411C65.901 152.73 65.6803 151.168 64.7549 149.665C65.0266 145.565 64.4747 141.54 63.1418 137.652C61.9362 134.137 60.2042 130.809 57.8609 127.914C55.6365 125.163 53.2168 122.48 51.5273 119.347C51.7056 123.652 54.3375 126.725 56.2478 130.384C58.0222 133.772 60.2891 138.747 57.2326 142.101C56.6638 142.72 57.0289 143.875 56.9949 144.707C56.9355 146.498 56.5449 148.545 54.9573 149.631C52.1046 151.609 47.9614 150.158 46.0596 147.568C41.0165 148.12 42.4853 154.216 41.2542 157.519C40.6684 159.089 39.7006 160.83 38.0959 161.551C37.595 161.789 34.6574 162.12 34.6489 162.485C34.5725 164.523 33.2311 166.187 31.0152 165.448C29.1813 164.837 27.9078 162.91 27.0673 161.271C25.5221 158.257 25.4881 154.615 25.9805 151.321C24.291 154.649 23.4675 158.376 23.5948 162.112C23.7052 165.338 26.422 168.191 27.5087 171.247C27.5682 171.408 27.8908 171.451 28.0521 171.519C29.02 171.952 29.8011 172.656 30.4293 173.497C31.4991 174.94 32.1698 176.664 32.5179 178.413C33.1547 181.597 40.4732 183.125 43.2494 183.447C57.0289 185.044 69.1697 173.251 67.9811 159.437C67.9472 159.064 68.0321 160.074 67.9811 159.437L67.9896 159.42ZM60.4674 160.779C59.5674 164.888 55.628 167.469 51.5188 167.045C53.1404 166.009 54.4988 164.667 56.0355 163.53C57.5637 162.409 59.2363 161.534 60.5693 160.151C60.5353 160.354 60.5013 160.567 60.4674 160.77C60.3825 161.161 60.5353 160.38 60.4674 160.77V160.779Z" fill="#FFFF00"/>
<path d="M34.98 141.939C35.1838 143.79 35.3281 147.195 37.578 147.577C40.9316 148.29 41.5514 143.001 41.2712 140.869C40.8128 137.423 39.2591 134.188 39.5477 130.647C39.76 127.353 40.592 124.059 40.3628 120.748C37.5101 127.413 34.182 134.493 34.9885 141.948C35.014 142.16 34.9631 141.685 34.9885 141.948L34.98 141.939Z" fill="#FFFF00"/>
<path d="M86.4315 188.752C86.4315 188.752 74.5716 182.916 73.3696 183.049C72.1675 183.183 68.0027 186.596 68.0027 186.596C68.0027 186.596 67.1042 182.289 65.7838 182.307C64.4603 182.325 59.7491 180.539 59.7491 180.539L26.3977 181.211L26.422 183.186L1.27563 187.092L2.0588 191.95L13.4846 192.892L42.4739 191.126L44.3438 185.678L44.4106 190.981L88.9965 191.926L89.6582 187.289L86.7714 187.171L86.4315 188.752Z" fill="url(#paint0_linear_155_48392)"/>
<path d="M86.4467 189.833C86.4467 189.833 74.5868 183.997 73.3848 184.13C72.1827 184.267 68.0179 187.677 68.0179 187.677C68.0179 187.677 67.1194 183.37 65.799 183.388C64.4755 183.407 59.7643 181.62 59.7643 181.62L26.8136 181.671L26.8379 183.646L1.29083 188.174L2.074 193.031L13.4998 193.973L42.4891 192.208L44.359 186.759L44.4258 192.062L89.0117 193.007L89.6734 188.37L86.7866 188.252L86.4467 189.833Z" fill="#661C2D"/>
</g>
<defs>
<linearGradient id="paint0_linear_155_48392" x1="46.6082" y1="171.725" x2="44.6856" y2="197.822" gradientUnits="userSpaceOnUse">
<stop stop-color="#E9A828"/>
<stop offset="0.99" stop-color="#DA1405"/>
</linearGradient>
<clipPath id="clip0_155_48392">
<rect width="91" height="193" fill="white"/>
</clipPath>
</defs>
</svg>
