<svg width="91" height="193" viewBox="0 0 91 193" fill="none" xmlns="http://www.w3.org/2000/svg">
<g clip-path="url(#clip0_155_48542)">
<path d="M69.9578 168.595C69.9578 168.595 70.0088 168.697 69.9578 168.595C69.1513 167.05 68.956 164.927 69.2871 163.238C69.5843 161.65 69.8389 161.633 69.5163 161.039C69.5163 161.039 69.5163 161.03 69.5163 161.022C69.5163 161.022 69.4994 161.005 69.4909 160.996C69.389 160.818 69.2531 160.597 69.0409 160.266C67.3174 157.524 66.9523 154.221 69.0409 151.649C69.4993 151.089 68.1494 148.219 67.9117 147.616C67.1476 145.706 66.2137 143.863 65.4581 141.945C65.076 140.909 63.5138 133.786 65.8826 134.134C63.9638 124.158 54.4379 117.722 50.7192 108.553C50.8296 111.261 51.3305 113.944 52.3918 116.449C53.4361 118.911 55.0916 121.059 56.1444 123.513C52.8842 120.881 48.9024 118.979 46.6355 115.294C44.5809 111.958 45.3195 108.349 44.5639 104.724C44.496 105.378 43.7573 103.68 43.4262 103.247C42.7894 102.423 42.0848 101.651 41.3801 100.87C41.5924 103.264 41.5414 106.227 40.0217 108.23C38.9264 109.894 34.9785 111.482 34.0191 108.791C31.7778 110.166 31.8117 113.469 30.9967 115.659C36.8039 115.719 30.4278 124.132 29.0949 126.221C26.8365 129.744 24.2216 135.509 24.7989 139.788C25.3338 143.719 25.7753 149.611 23.0754 152.905C21.7085 154.578 21.6151 158.033 21.5387 160.114C21.4368 162.907 21.8019 165.725 22.6254 168.4C24.3404 167.449 26.7686 166.473 27.9742 168.655C29.1204 170.726 24.23 170.285 23.2452 170.166C25.0621 174.793 28.2629 178.826 32.3636 181.653C34.4692 183.105 36.8039 184.234 39.2491 184.981C40.616 185.397 42.0254 185.694 43.4432 185.873C45.0563 186.068 45.7525 185.703 47.2553 185.253C49.7429 184.506 52.222 185.533 54.5228 184.752C56.9934 183.92 59.3282 182.689 61.4168 181.135C63.4883 179.59 65.3222 177.731 66.825 175.633C67.8353 174.224 70.7813 170.285 69.9493 168.595H69.9578Z" fill="#FF8800"/>
<path d="M35.42 102.016C36.4558 102.067 37.3728 102.559 38.1454 103.23C38.3067 100.462 39.368 97.015 42.1188 95.7924C45.2261 94.417 48.0958 97.0575 50.2692 98.9168C49.8617 95.4104 51.3645 85.0439 44.912 86.0712C41.7876 86.5552 41.898 90.0701 39.8349 91.6323C38.6378 92.5322 36.2945 92.77 36.5322 90.6814C31.7778 90.7663 33.2041 99.2224 33.8409 101.871C33.9767 102.449 34.8682 102.007 35.4285 102.016H35.42Z" fill="#FF8800"/>
<path d="M33.8326 101.872C33.8156 101.787 33.7985 101.744 33.7985 101.719C33.8156 101.778 33.8497 101.932 33.8326 101.872Z" fill="#FF8800"/>
<path d="M54.6586 96.2085C59.6338 94.6633 56 87.192 51.704 90.1041C52.0012 90.2484 52.3069 90.4267 52.57 90.6304C53.9879 91.7257 54.9557 94.4595 54.6586 96.2085Z" fill="#FF8800"/>
<path d="M66.6636 169.122C66.0184 167.916 66.0184 166.405 66.0609 165.072C66.1118 163.391 66.1543 162.839 64.9487 161.515C62.1809 158.475 59.4386 156.599 58.0716 152.498C57.2057 154.892 57.1292 157.609 57.7405 160.071C58.0462 161.328 58.5556 162.542 59.2008 163.671C60.0159 165.097 60.9159 165.335 59.9989 166.923C58.5047 169.521 54.9133 169.037 53.1983 166.923C52.3748 165.938 51.8059 164.766 51.0673 163.722C50.1334 162.398 48.9193 161.583 47.6713 160.598C45.1242 158.603 46.7373 155.385 48.1382 153.194C48.6646 152.362 49.2504 151.573 49.8702 150.8C50.4221 150.121 49.6749 147.973 49.7598 146.98C50.1589 141.826 51.4324 138.235 47.6968 134.151C47.3487 137.055 46.7289 141.062 44.1309 142.896C40.4207 145.604 37.0246 141.291 35.7257 138.226C34.3503 140.34 34.0192 142.904 33.2551 145.265C32.8815 146.411 32.3721 147.608 31.2938 148.253C30.5722 148.678 28.526 148.372 28.2374 148.788C24.731 153.704 23.3726 159.935 24.5103 165.862C25.2829 163.697 27.1506 162.525 29.3581 162.067C30.8948 161.744 31.0391 161.956 32.2702 161.082C33.6456 160.105 35.87 159.978 36.719 161.744C37.4067 163.162 36.7784 164.945 36.0907 166.227C35.4115 167.483 35.471 168.162 35.0465 169.504C33.9003 172.492 29.5449 172.866 26.862 172.382C28.8402 175.965 31.8202 178.987 35.3776 181.008C37.203 182.044 39.6481 183.326 41.7791 183.292C44.0799 183.258 46.3213 182.655 48.5797 182.247C50.5155 181.899 52.587 181.696 54.4718 182.375C56.3906 181.619 58.199 180.6 59.8376 179.352C61.5696 178.028 63.1063 176.457 64.3798 174.691C65.3392 173.358 67.5042 170.65 66.6806 169.13L66.6636 169.122Z" fill="#FFFF00"/>
<path d="M43.4856 119.064C44.7081 120.55 46.491 121.373 48.4098 121.399C46.2279 119.251 44.1308 116.288 42.5007 113.724C42.1866 115.541 42.4243 117.51 43.4771 119.064C43.6638 119.285 42.8318 118.113 43.4771 119.064H43.4856Z" fill="#FFFF00"/>
<path d="M56.45 132.555C57.3415 135.959 57.3924 139.534 58.3348 142.947C59.3196 146.487 61.1111 149.603 63.4629 152.405C62.7921 151.42 62.1299 150.443 61.5865 149.391C60.746 146.945 61.0941 144.169 61.196 141.639C61.3997 136.63 59.9904 132.894 55.7368 130.008C55.9576 130.857 56.2208 131.697 56.4415 132.555C56.484 132.708 56.2293 131.723 56.4415 132.555H56.45Z" fill="#FFFF00"/>
<path d="M86.4315 188.752C86.4315 188.752 74.5716 182.916 73.3696 183.049C72.1675 183.183 68.0027 186.596 68.0027 186.596C68.0027 186.596 67.1042 182.289 65.7838 182.307C64.4603 182.325 59.7491 180.539 59.7491 180.539L26.3977 181.211L26.422 183.186L1.27563 187.092L2.0588 191.95L13.4846 192.892L42.4739 191.126L44.3438 185.678L44.4106 190.981L88.9965 191.926L89.6582 187.289L86.7714 187.171L86.4315 188.752Z" fill="url(#paint0_linear_155_48542)"/>
<path d="M86.4467 189.833C86.4467 189.833 74.5868 183.997 73.3848 184.13C72.1827 184.267 68.0179 187.677 68.0179 187.677C68.0179 187.677 67.1194 183.37 65.799 183.388C64.4755 183.407 59.7643 181.62 59.7643 181.62L26.8136 181.671L26.8379 183.646L1.29083 188.174L2.074 193.031L13.4998 193.973L42.4891 192.208L44.359 186.759L44.4258 192.062L89.0117 193.007L89.6734 188.37L86.7866 188.252L86.4467 189.833Z" fill="#661C2D"/>
</g>
<defs>
<linearGradient id="paint0_linear_155_48542" x1="46.6082" y1="171.725" x2="44.6856" y2="197.822" gradientUnits="userSpaceOnUse">
<stop stop-color="#E9A828"/>
<stop offset="0.99" stop-color="#DA1405"/>
</linearGradient>
<clipPath id="clip0_155_48542">
<rect width="91" height="193" fill="white"/>
</clipPath>
</defs>
</svg>
