<svg width="91" height="193" viewBox="0 0 91 193" fill="none" xmlns="http://www.w3.org/2000/svg">
<g clip-path="url(#clip0_155_48647)">
<path d="M70.2105 161.486C69.8539 155.908 68.3002 150.95 65.2692 146.255C64.7428 145.44 64.242 144.625 63.7241 143.802C63.1892 142.859 63.3844 142.469 63.4948 141.399C63.5967 140.439 63.6986 136.22 61.6525 137.018C60.9478 132.077 59.5978 126.974 57.5942 122.398C56.5159 120.309 55.183 118.56 53.9689 116.574C53.2642 115.419 52.6954 114.18 52.2284 112.915C51.7869 111.734 51.7105 110.249 50.9464 109.247C47.6607 104.908 43.8657 100.502 41.7007 95.4674C40.7838 93.3279 41.013 91.927 41.446 89.728C39.9687 92.1647 38.848 94.7882 38.9669 97.6918C36.301 95.5777 36.1651 90.4921 37.583 87.6565C39.3149 84.5576 37.6 78.9541 36.9717 75.7618C36.0548 71.1262 35.3755 66.6943 35.6387 61.9484C35.868 57.8307 36.4623 53.7384 36.8698 49.6377C32.7521 59.7155 31.2748 69.4367 32.3616 80.2785C32.8964 85.5849 33.8558 90.8657 34.153 96.1975C34.2888 98.6172 34.4756 101.759 33.0493 103.881C31.589 106.055 29.4494 105.07 29.0504 102.786C28.4731 105.401 26.9194 107.753 26.6307 110.435C26.3081 113.322 26.5543 116.591 27.9043 119.206C28.5665 120.488 30.2136 121.184 30.0607 122.525C29.8655 124.291 29.6192 126.032 29.3221 127.781C28.8212 131.313 27.7599 134.828 26.7071 138.224C25.7732 141.39 24.7035 144.515 23.6422 147.631C22.9121 149.787 20.9593 153.557 22.5979 155.492C23.4469 156.494 23.9564 157.836 23.8715 159.152C23.7781 160.425 23.6847 160.204 24.3384 161.325C25.994 164.169 22.1649 165.112 20.0509 165.095C20.9593 171.462 24.3639 177.312 29.4325 181.277C32.0984 183.357 35.1803 184.894 38.449 185.751C40.1385 186.193 41.3271 186.167 42.9997 186.074C44.825 185.972 46.4467 186.583 48.2805 186.329C51.9992 185.811 55.5735 184.435 58.6894 182.347C60.1157 181.387 61.4402 180.292 62.6458 179.061C63.1637 178.535 65.906 175.928 65.6088 175.224C64.8957 173.84 64.9721 172.159 65.8296 170.868C66.5003 169.858 65.8975 168.796 66.8654 167.812C67.7483 166.912 69.0389 166.419 70.185 165.935C70.4312 164.509 70.3208 162.896 70.202 161.461C70.0661 159.406 70.2869 162.48 70.202 161.461L70.2105 161.486Z" fill="#FF8800"/>
<path d="M26.6393 96.7918C27.3694 95.0937 28.626 93.7268 28.8552 91.8165C29.059 90.1185 28.7194 88.5308 28.1675 86.9347C27.5987 90.2883 26.2997 93.8541 26.3931 97.2756C26.478 97.1143 26.5544 96.9531 26.6393 96.7918C26.4865 97.0889 26.7666 96.4946 26.6393 96.7918Z" fill="#FF8800"/>
<path d="M44.8165 85.8819L44.9863 86.1536C45.4618 84.2943 45.8013 82.5284 46.1664 80.6436C44.1373 81.7558 43.6873 83.9292 44.8165 85.8819C44.9184 86.0517 44.7146 85.7121 44.8165 85.8819Z" fill="#FF8800"/>
<path d="M34.7812 38.0316C34.8407 38.176 34.9001 38.3203 34.9595 38.4646C36.3689 35.5016 36.9801 32.7763 34.7642 30C34.119 32.8951 33.6605 35.162 34.7812 38.0316C34.8916 38.3033 34.6708 37.76 34.7812 38.0316Z" fill="#FF8800"/>
<path d="M66.7805 160.281C66.6192 158.362 63.1128 156.987 61.5931 156.104C59.6658 155 58.2055 153.548 56.966 151.723C57.4329 154.992 57.2716 159.678 53.8331 161.325C50.3182 163.006 46.0137 161.215 43.2035 158.982C41.9724 158.023 41.5224 156.24 40.0367 156.46C37.9396 156.774 35.834 156.384 33.9153 155.543C30.5192 154.049 27.7175 151.29 25.7987 148.14C25.094 149.762 24.3045 151.341 23.6932 153.005C27.4968 153.183 29.7382 155.484 30.757 159.126C31.0287 160.086 31.8776 162.123 31.6229 163.108C31.0032 165.553 27.9213 166.054 25.8497 166.343C25.0516 166.453 24.2535 166.564 23.4639 166.742C22.4706 166.963 23.1413 167.973 23.3876 168.771C23.9989 170.732 24.8818 172.609 26.011 174.332C28.1165 177.55 31.0626 180.207 34.4841 181.973C36.1227 182.814 37.8632 183.45 39.6546 183.866C41.5903 184.308 43.4497 183.518 45.4534 183.815C46.7354 184.011 47.4485 184.291 48.7645 184.045C49.7493 183.858 50.7257 183.603 51.6766 183.289C53.7737 182.584 55.7689 181.566 57.5688 180.267C59.1564 179.129 60.5912 177.779 61.8223 176.276C62.3826 175.597 62.892 174.884 63.3675 174.137C62.8496 173.228 62.5439 172.226 62.5609 171.174C62.5949 169.162 63.7496 167.328 65.0486 165.876C65.6429 165.214 66.7465 164.602 66.806 163.702C66.8824 162.565 66.8739 161.419 66.772 160.281C66.7551 160.043 66.823 160.909 66.772 160.281H66.7805Z" fill="#FFFF00"/>
<path d="M33.3719 114.18C33.6266 115.02 33.9662 115.835 34.3652 116.616C36.2585 113.619 36.7594 111.259 36.1396 107.761C34.0341 109.417 32.7861 111.454 33.3719 114.18C33.4568 114.451 33.3125 113.908 33.3719 114.18Z" fill="#FFFF00"/>
<path d="M48.9937 134.021C50.7511 136.203 51.6171 138.818 53.0944 141.17C53.5868 141.951 54.1302 142.706 54.7754 143.377C55.2848 143.903 55.8791 144.404 56.5753 144.676C55.9555 144.43 57.9677 145.151 57.6875 144.931C54.9197 139.947 55.7008 134.097 55.4037 128.63C55.1575 124.045 53.6462 120.14 50.3011 116.922C50.7002 118.458 51.0228 120.131 50.7936 121.719C50.5304 123.408 49.0107 123.833 49.2908 125.403C49.5965 127.169 49.7832 129.046 49.5115 130.829C49.3248 132.034 48.3144 133.121 48.9937 134.012C49.138 134.191 48.9342 133.927 48.9937 134.012V134.021Z" fill="#FFFF00"/>
<path d="M86.4315 188.752C86.4315 188.752 74.5716 182.916 73.3696 183.049C72.1675 183.183 68.0027 186.596 68.0027 186.596C68.0027 186.596 67.1042 182.289 65.7838 182.307C64.4603 182.325 59.7491 180.539 59.7491 180.539L26.3977 181.211L26.422 183.186L1.27563 187.092L2.0588 191.95L13.4846 192.892L42.4739 191.126L44.3438 185.678L44.4106 190.981L88.9965 191.926L89.6582 187.289L86.7714 187.171L86.4315 188.752Z" fill="url(#paint0_linear_155_48647)"/>
<path d="M86.4466 189.833C86.4466 189.833 74.5868 183.997 73.3847 184.13C72.1826 184.267 68.0179 187.677 68.0179 187.677C68.0179 187.677 67.1194 183.37 65.7989 183.388C64.4754 183.407 59.7643 181.62 59.7643 181.62L26.8135 181.671L26.8378 183.646L1.29077 188.174L2.07394 193.031L13.4997 193.973L42.489 192.208L44.3589 186.759L44.4257 192.062L89.0116 193.007L89.6734 188.37L86.7866 188.252L86.4466 189.833Z" fill="#661C2D"/>
</g>
<defs>
<linearGradient id="paint0_linear_155_48647" x1="46.6082" y1="171.725" x2="44.6856" y2="197.822" gradientUnits="userSpaceOnUse">
<stop stop-color="#E9A828"/>
<stop offset="0.99" stop-color="#DA1405"/>
</linearGradient>
<clipPath id="clip0_155_48647">
<rect width="91" height="193" fill="white"/>
</clipPath>
</defs>
</svg>
