<svg width="91" height="193" viewBox="0 0 91 193" fill="none" xmlns="http://www.w3.org/2000/svg">
<g clip-path="url(#clip0_155_48474)">
<path d="M64.3956 123.179C64.7182 125.743 65.287 128.273 66.0851 130.735C66.3822 131.652 68.3859 137.765 70.1858 134.691C71.1877 132.985 67.7577 129.292 66.9766 127.797C65.8729 125.683 64.888 123.493 64.2512 121.192C64.2682 121.854 64.2937 122.525 64.3956 123.179C64.3022 122.584 64.472 123.773 64.3956 123.179Z" fill="#FF8800"/>
<path d="M40.7166 74.301C40.9713 75.8462 41.8203 79.5819 43.8834 79.6498C46.5238 79.7432 43.824 75.3283 43.4504 74.4453C41.3788 69.5126 42.3976 63.2554 41.7014 58C41.5316 63.1875 39.5534 69.19 40.7081 74.2925C40.8864 75.3623 40.6487 74.0378 40.7081 74.2925L40.7166 74.301Z" fill="#FF8800"/>
<path d="M70.4322 164.441C70.3298 164.202 70.4152 164.416 70.4322 164.441V164.441Z" fill="#FF8800"/>
<path d="M64.0899 178.381C65.8643 176.454 67.3416 174.247 68.4369 171.87C69.184 170.239 71.1367 166.224 70.432 164.449C70.415 164.415 70.3301 164.211 70.432 164.449C68.301 159.381 66.4077 153.038 68.2331 147.596C68.3944 146.926 69.3029 145.499 69.15 144.837C68.7765 143.266 68.2586 141.73 67.6303 140.252C66.5011 137.782 65.0748 135.472 63.606 133.189C63.3598 136.432 59.9298 132.773 59.3864 131.711C57.994 128.986 57.7648 125.845 56.5167 123.06C55.2772 120.292 53.4943 118.305 51.5755 116.005C50.6755 114.926 47.8993 110.299 51.1595 110.24C50.3614 107.149 48.5021 104.551 46.006 102.599C45.3522 102.089 44.656 101.639 43.9344 101.24C42.992 100.714 43.1363 101.24 42.4062 101.919C40.3685 103.685 38.3054 101.283 37.7366 99.3979C36.9895 96.9613 37.2102 94.4227 37.0659 91.9181C37.0149 90.9927 36.8876 90.0758 36.7602 89.1589C37.2612 88.2759 37.7196 87.3335 38.0507 86.3656C39.7657 81.4413 36.9046 76.9161 35.1301 72.4673C35.215 76.7972 33.0161 80.6433 32.3369 84.8374C32.0907 86.3486 32.3199 88.0721 32.7274 89.5324C32.9057 90.1607 33.2029 91.1031 33.8991 91.3578C34.5698 91.604 34.2811 93.3954 34.2641 94.1425C34.1368 98.8546 30.7153 102.794 29.5946 107.277C29.0342 109.527 28.9408 111.861 29.7304 114.069C30.6049 116.039 32.3454 118.153 33.9585 115.453C34.0943 116.786 34.0179 118.085 33.8142 119.409C34.8584 119.52 35.4443 120.318 35.6226 121.294C35.8773 122.763 34.3575 123 33.2368 122.848C33.0331 124.215 32.8972 125.598 33.0076 126.982C33.135 128.629 30.6983 131.125 29.9512 132.781C28.6692 135.702 28.0494 138.843 26.8523 141.798C26.3344 143.071 25.6127 144.616 24.093 144.846C23.21 144.973 23.193 145.652 22.8449 146.518C21.6563 149.507 20.9516 152.775 21.0026 156.002C21.0281 157.267 21.028 158.285 21.7497 159.321C22.5138 160.416 23.0232 161.664 23.261 162.989C23.7619 165.799 21.8176 169.221 22.9553 171.742C27.6843 182.185 39.2733 188.213 50.5312 186.014C50.8283 185.955 51.1255 185.887 51.4227 185.819C53.7829 183.934 56.8394 182.143 59.9552 182.015C61.4665 180.971 62.8589 179.765 64.1069 178.407L64.0899 178.381Z" fill="#FF8800"/>
<path d="M39.4176 97.6915C39.494 97.8018 39.5704 97.9207 39.6468 98.0311C39.7827 96.6472 40.9883 92.3766 43.2127 93.5313C44.0023 91.5106 43.408 89.4306 42.1684 87.7495C39.7317 90.0758 37.4394 94.3378 39.4176 97.6999C39.494 97.8273 39.2308 97.3858 39.4176 97.6999V97.6915Z" fill="#FF8800"/>
<path d="M50.6246 99.8479C51.7198 100.671 53.0952 101.86 53.9188 102.955C54.3857 100.612 52.0594 98.1923 49.7076 99.3385C50.0388 99.4573 50.3444 99.6271 50.6246 99.8479C50.4038 99.6781 51.0746 100.187 50.6246 99.8479Z" fill="#FF8800"/>
<path d="M67.6897 160.272C67.6388 159.635 67.5624 159.007 67.4605 158.379C67.053 162.106 65.1682 167.021 60.4646 166.24C59.9128 166.147 57.7733 164.661 57.561 164.755C55.4894 165.68 53.0613 165.867 50.8708 165.34C46.5748 164.313 43.9429 160.56 45.4626 156.231C46.9229 152.07 51.4736 149.515 55.5828 151.552C56.6186 152.079 58.2997 152.682 59.1402 153.463C60.4816 154.711 61.3561 156.375 62.8334 157.504C64.1748 158.531 64.3956 157.105 64.8031 155.789C65.4738 153.641 65.6351 151.272 65.3804 149.039C65.1257 146.756 64.1409 144.981 62.6721 143.249C61.0335 141.313 59.9552 139.437 58.9874 137.094C57.4422 133.35 54.0885 130.624 52.815 126.795C51.6349 130.353 53.4433 133.231 53.265 136.703C53.1631 139.064 50.7859 137.094 50.2595 136.117C49.2067 134.173 49.003 131.923 48.8671 129.767C48.7483 127.95 48.6464 126.082 47.9842 124.367C48.5445 122.33 49.4105 120.122 49.0879 117.983C48.4426 113.644 43.6627 112.939 40.9289 110.367C44.1381 113.788 45.4371 118.348 44.291 122.881C44.0872 123.713 44.7325 125.301 44.8513 126.167C45.0466 127.653 45.1569 129.147 45.0975 130.641C44.9956 133.579 44.3589 136.533 43.0259 139.157C42.0666 141.042 40.3516 142.426 39.9186 144.421C39.3412 147.044 38.4413 149.71 36.531 151.68C32.4812 155.857 26.691 151.493 27.6164 146.331C25.1288 149.277 24.042 152.979 24.5175 156.808C24.7637 158.829 25.1627 160.45 26.5891 161.783C28.0409 163.141 28.7795 165.171 27.7862 166.988C27.3107 167.862 26.64 168.669 25.8674 169.297C24.976 170.018 24.6194 169.67 25.1118 170.808C25.8419 172.506 26.7928 174.111 27.922 175.571C30.1719 178.492 33.1434 180.843 36.514 182.346C40.1053 183.951 44.1212 184.571 48.0351 184.121C50.1152 183.883 50.2425 183.586 51.6859 182.448C53.3754 181.098 55.6422 180.325 57.7308 179.901C61.1523 179.213 63.8607 175.062 65.3804 172.082C67.2398 168.439 68.0378 164.322 67.7152 160.246C67.6643 159.61 67.7577 160.832 67.7152 160.246L67.6897 160.272Z" fill="#FFFF00"/>
<path d="M43.9598 108.228C44.3928 108.881 45.106 109.399 45.6493 109.968C46.1757 107.896 44.9277 106.351 42.8901 106.029C43.2212 106.742 43.4844 107.591 43.9598 108.219C44.1975 108.576 43.6966 107.871 43.9598 108.219V108.228Z" fill="#FFFF00"/>
<path d="M86.4315 188.752C86.4315 188.752 74.5716 182.916 73.3696 183.049C72.1675 183.183 68.0027 186.596 68.0027 186.596C68.0027 186.596 67.1042 182.289 65.7838 182.307C64.4603 182.325 59.7491 180.539 59.7491 180.539L26.3977 181.211L26.422 183.186L1.27563 187.092L2.0588 191.95L13.4846 192.892L42.4739 191.126L44.3438 185.678L44.4106 190.981L88.9965 191.926L89.6582 187.289L86.7714 187.171L86.4315 188.752Z" fill="url(#paint0_linear_155_48474)"/>
<path d="M86.4467 189.833C86.4467 189.833 74.5868 183.997 73.3848 184.13C72.1827 184.267 68.0179 187.677 68.0179 187.677C68.0179 187.677 67.1194 183.37 65.799 183.388C64.4755 183.407 59.7643 181.62 59.7643 181.62L26.8136 181.671L26.8379 183.646L1.29083 188.174L2.074 193.031L13.4998 193.973L42.4891 192.208L44.359 186.759L44.4258 192.062L89.0117 193.007L89.6734 188.37L86.7866 188.252L86.4467 189.833Z" fill="#661C2D"/>
</g>
<defs>
<linearGradient id="paint0_linear_155_48474" x1="46.6082" y1="171.725" x2="44.6856" y2="197.822" gradientUnits="userSpaceOnUse">
<stop stop-color="#E9A828"/>
<stop offset="0.99" stop-color="#DA1405"/>
</linearGradient>
<clipPath id="clip0_155_48474">
<rect width="91" height="193" fill="white"/>
</clipPath>
</defs>
</svg>
