<svg width="91" height="193" viewBox="0 0 91 193" fill="none" xmlns="http://www.w3.org/2000/svg">
<g clip-path="url(#clip0_155_48448)">
<path d="M69.68 162.514C69.6206 162.285 69.5441 162.047 69.4592 161.809C68.8989 160.205 67.931 158.464 67.7103 156.944C67.6593 156.062 67.8461 155.187 68.3555 154.924C68.4489 154.873 68.5423 154.847 68.6272 154.839C68.6272 154.813 68.6102 154.779 68.6017 154.754C68.6527 154.754 68.7036 154.754 68.7546 154.754C68.7546 154.779 68.7546 154.805 68.7546 154.805C68.7546 154.805 68.7546 154.788 68.763 154.754C68.78 154.635 68.8479 154.296 68.9413 153.786C68.9413 153.786 68.9413 153.778 68.9413 153.769C69.0178 153.455 69.0262 153.073 69.0517 152.632C69.0517 152.411 69.0857 152.182 69.0772 151.935C69.0602 151.689 69.0432 151.434 69.0262 151.18C68.9159 149.049 67.7867 146.561 66.632 144.787C65.4774 142.995 63.8048 141.017 62.6077 139.344C62.0219 138.538 61.5549 137.808 61.2323 137.264C61.2238 137.247 61.2068 137.222 61.1984 137.205C61.1899 137.188 61.1814 137.171 61.1729 137.154C61.1559 137.213 61.1389 137.273 61.1219 137.332C61.0965 137.409 61.071 137.494 61.054 137.579C60.9776 137.833 60.9012 138.122 60.8842 138.436C60.8503 138.75 60.7993 139.09 60.8248 139.455C60.8248 139.82 60.8418 140.202 60.9012 140.593C60.9437 140.992 61.0116 141.399 61.088 141.815C61.105 141.9 61.1219 141.985 61.1304 142.07C61.1899 142.375 61.2408 142.681 61.3002 142.995C61.3851 143.462 61.4616 143.946 61.5295 144.43C61.5804 144.88 61.6144 145.338 61.6059 145.788C61.5889 146.23 61.5295 146.688 61.3427 147.028C61.1729 147.376 60.8587 147.529 60.4852 147.546C60.1116 147.546 59.7211 147.402 59.3815 147.181C58.7023 146.714 58.1844 145.984 57.7853 145.279C57.3778 144.566 57.0297 143.742 56.758 142.885C56.6222 142.46 56.5373 141.993 56.4269 141.543L56.2656 140.856C56.2147 140.626 56.1977 140.389 56.1637 140.16C56.1213 139.913 56.0873 139.676 56.0618 139.429C56.0364 139.2 56.0109 138.962 55.9939 138.733C55.9515 138.275 55.926 137.825 55.9005 137.383C55.892 136.466 55.8581 135.575 55.9005 134.726C55.9175 134.055 55.9515 133.418 55.9854 132.833C55.9854 132.765 55.9939 132.688 56.0024 132.62C55.926 132.51 55.8496 132.391 55.7647 132.264C55.2043 131.355 54.6949 130.107 54.4063 128.647C54.0242 126.847 53.9393 124.767 53.9308 122.67C53.9308 121.626 53.9478 120.564 53.8629 119.512C53.778 118.459 53.5403 117.423 53.1497 116.523C52.4281 114.681 51.0017 113.034 49.9744 111.259C49.8386 111.038 49.7197 110.818 49.6094 110.588C49.499 110.359 49.3716 110.138 49.2952 109.901C49.2103 109.663 49.1084 109.434 49.049 109.196C48.9726 108.958 48.9132 108.721 48.8707 108.474C48.6754 107.507 48.6669 106.53 48.7434 105.613C48.7603 105.41 48.7858 105.206 48.8113 105.01C48.8452 104.73 48.8877 104.459 48.9301 104.195C48.8622 104.009 48.7943 103.813 48.7349 103.61C48.5651 103.066 48.4207 102.497 48.2509 101.903C47.9368 100.774 47.5972 99.6107 47.1812 98.541C46.8246 97.6071 46.3237 96.5458 45.6614 95.5694C45.0077 94.5931 44.1672 93.7101 43.2672 93.1413C42.5541 92.6573 41.8154 92.4451 41.2211 92.3177C41.1447 92.3008 41.0683 92.2838 41.0004 92.2668C40.9834 92.3177 40.9664 92.3602 40.9494 92.4111C40.7796 92.8526 40.5844 93.3535 40.3381 93.8714C39.8882 94.8393 39.2344 95.8921 38.275 96.6137C37.3411 97.3184 36.0167 97.6495 35.1592 97.0637C34.9639 96.9533 34.7941 96.7835 34.6328 96.5967C34.5564 96.5033 34.4885 96.3845 34.412 96.2826C34.3356 96.1722 34.2592 96.0704 34.2083 95.943C33.9451 95.4761 33.8602 94.8987 33.8432 94.3299C33.8347 93.1583 34.2762 91.9696 34.7516 90.9763C35.2356 89.9745 35.7874 89.1509 36.195 88.5736C36.3902 88.3019 36.5431 88.0981 36.6619 87.9453C36.7723 87.8095 36.8317 87.7246 36.8572 87.6991L36.8827 87.6736C36.8827 87.6736 36.8657 87.6906 36.8572 87.6991C36.7723 87.5208 36.6959 87.3256 36.6195 87.1218C36.0931 85.8058 36.0337 83.9804 35.9488 82.3588C35.8723 80.941 35.7195 79.0477 35.2526 77.5789C35.1167 77.1459 34.9554 76.7554 34.8026 76.4242C34.7601 76.3393 34.7262 76.2629 34.6922 76.1865C34.6752 76.3393 34.6583 76.4922 34.6328 76.6535C34.5054 77.6298 34.2592 78.8779 33.7923 80.2278C33.2489 81.7985 32.4763 83.5135 31.7461 85.2625C31.0075 87.0114 30.3962 88.8623 30.0566 90.5518C29.717 92.2498 29.5727 94.2025 29.7934 96.1298C29.8444 96.6137 29.8953 97.0892 30.0227 97.5561C30.15 98.0231 30.2009 98.4985 30.3877 98.9315C30.4641 99.1523 30.549 99.373 30.6255 99.5853C30.7104 99.7975 30.8207 100.001 30.9141 100.205C31.0924 100.621 31.3216 100.995 31.5339 101.36C31.7631 101.742 31.9924 102.09 32.2301 102.429C32.2895 102.54 32.3405 102.642 32.3999 102.752C32.9517 103.796 33.5206 105.027 33.58 106.301C33.6225 107.625 33.58 108.975 33.5545 110.189C33.5376 111.404 33.5206 112.77 33.614 114.137C33.631 114.477 33.6734 114.817 33.7074 115.156C33.7413 115.496 33.7753 115.827 33.8432 116.158C33.9451 116.812 34.0639 117.448 34.2507 118.034C34.5224 118.985 34.9299 119.775 35.3205 120.352C35.2526 120.471 35.2186 120.539 35.2186 120.539C35.2186 120.539 35.2611 120.479 35.329 120.369C35.3629 120.327 35.3969 120.267 35.4393 120.208C35.4393 120.199 35.4563 120.182 35.4648 120.174C35.6261 119.936 35.8554 119.588 36.178 119.18C36.3393 118.985 36.5261 118.764 36.7553 118.561C36.9761 118.365 37.2477 118.162 37.5619 118.111C37.8675 118.06 38.1901 118.187 38.4364 118.442C38.6826 118.697 38.8778 119.036 39.0392 119.41C39.3533 120.157 39.5571 121.014 39.7099 121.906C39.8627 122.814 40.007 123.714 39.9816 124.631C39.9646 125.548 39.8372 126.465 39.642 127.339C39.5486 127.772 39.4212 128.205 39.2939 128.63C39.175 129.063 39.0561 129.47 38.9203 129.87C38.6571 130.659 38.3345 131.483 37.927 132.272C37.5194 133.062 37.0015 133.834 36.3223 134.352C35.9742 134.59 35.6007 134.743 35.1846 134.785C34.7686 134.819 34.3866 134.743 34.1064 134.48C33.8262 134.225 33.631 133.843 33.5206 133.444C33.4017 133.045 33.3423 132.629 33.3083 132.221C33.1895 130.583 33.3847 129.122 33.5206 128.087C33.5376 127.959 33.5545 127.832 33.5715 127.713C33.5715 127.662 33.5885 127.62 33.5885 127.577C33.5461 127.671 33.4866 127.764 33.4272 127.874C33.2744 128.146 33.0706 128.46 32.8159 128.817C32.0942 129.886 30.7698 131.194 29.8359 133.121C28.9104 135.048 28.5793 137.451 27.7303 139.582C26.8389 141.696 25.2342 143.445 23.9607 145.169C23.6466 145.61 23.307 146.06 23.0608 146.578C22.8061 147.087 22.4665 147.58 22.2882 148.149C21.8297 149.244 21.5241 150.424 21.3288 151.604C21.176 152.53 21.0911 153.455 21.0571 154.372C20.4458 156.537 20.1062 158.812 20.1062 161.173C20.1062 168.228 23.0523 174.612 27.7728 179.163C28.1888 179.562 28.6133 179.953 29.0633 180.326C29.1991 180.377 29.335 180.437 29.4708 180.488C29.9038 180.657 30.3453 180.793 30.7868 180.929C30.9566 180.98 31.1264 181.031 31.2962 181.082C31.899 181.226 32.4848 181.371 33.0366 181.515C34.1064 181.778 35.2526 182.228 36.2459 182.941C36.9081 183.383 37.477 183.943 37.9694 184.529C38.1901 184.792 38.3939 185.055 38.5807 185.318C38.776 185.369 38.9627 185.42 39.158 185.471C41.0683 185.938 43.055 186.193 45.1096 186.193C47.4868 186.193 49.7876 185.853 51.9611 185.234C52.8356 183.629 54.593 183.187 56.1298 183.62C62.6926 180.377 67.6424 174.341 69.3998 167.065C69.663 165.961 69.8668 164.832 69.9771 163.677C69.9177 163.278 69.8413 162.879 69.7139 162.506L69.68 162.514Z" fill="#FF8800"/>
<path d="M37.6043 76.2205C38.0373 77.1374 38.4533 78.1987 38.8014 79.26C39.1071 80.3382 39.3533 81.4419 39.3872 82.4438C39.4042 82.69 39.4127 82.9362 39.4297 83.1654C39.4212 83.3947 39.4042 83.6239 39.3957 83.8361C39.3872 84.0484 39.3788 84.2522 39.3703 84.4389C39.3703 84.4984 39.3533 84.5578 39.3533 84.6087C39.3363 84.7021 39.3278 84.7955 39.3108 84.8889C39.3618 84.8635 39.4212 84.8295 39.4806 84.7955C39.7184 84.6597 39.9731 84.4729 40.2193 84.2182C40.6098 83.7852 40.9324 83.2333 41.2636 82.7239C41.5862 82.206 41.9513 81.7815 42.3248 81.4334C42.6899 81.0853 43.1484 80.7882 43.6238 80.7712C43.8615 80.7797 44.1078 80.8476 44.337 80.9835C44.5577 81.1278 44.77 81.2976 44.9398 81.4929C45.0247 81.5863 45.1011 81.6796 45.169 81.773C45.2115 81.824 45.2454 81.8749 45.2794 81.9259C45.3303 81.7985 45.3728 81.6627 45.4067 81.5098C45.4322 81.4165 45.4577 81.3231 45.4747 81.2212C45.5171 80.9071 45.6275 80.5505 45.6275 80.1599C45.7548 78.5893 45.1945 76.5856 44.4304 75.0234C44.0993 74.3272 43.6832 73.5546 43.1823 72.8245C42.6899 72.0943 42.1805 71.3896 41.79 70.7274C41.6117 70.4472 41.4758 70.167 41.357 69.9038C41.2721 69.7256 41.2041 69.5473 41.1447 69.386C41.1192 69.5388 41.0853 69.7086 41.0598 69.8784C41.0174 70.0906 40.9834 70.3029 40.9324 70.5321C40.7796 71.2029 40.5844 72.0519 40.1344 72.5952C40.024 72.7311 39.8967 72.799 39.7863 72.8414C39.6504 72.8754 39.5231 72.8754 39.4042 72.8245C39.1665 72.7311 38.9203 72.4424 38.7335 72.1368C38.3939 71.6019 38.1222 70.8123 37.8251 70.0652C37.6553 69.6916 37.5619 69.3011 37.4515 68.919C37.3411 68.537 37.2138 68.1634 37.1628 67.7983C37.1374 67.6795 37.1204 67.5606 37.0949 67.4502C37.061 67.2974 37.0355 67.1446 37.01 67.0002C37.01 67.0597 37.0015 67.1191 36.993 67.187C36.9506 67.4672 36.8742 67.8068 36.7893 68.1804C36.6874 68.6218 36.5685 69.1228 36.4412 69.6661C36.3987 69.9208 36.3563 70.184 36.3138 70.4557C36.2968 70.5916 36.2714 70.7274 36.2459 70.8717C36.2374 71.0161 36.2289 71.1604 36.2204 71.3047C36.2035 71.8821 36.2544 72.4849 36.3902 73.0707C36.628 74.2508 37.2053 75.3206 37.6043 76.2375V76.2205Z" fill="#FF8800"/>
<path d="M26.9832 79.9984C27.1615 80.3465 27.2719 80.5673 27.2719 80.5673C27.2719 80.5673 27.3058 80.3296 27.3653 79.9475C27.4247 79.5654 27.4587 79.0476 27.5945 78.4617C27.7558 77.2901 28.1973 75.9317 28.3331 74.8195C28.5284 73.7073 28.5454 72.2554 28.6473 71.0499C28.6812 70.4471 28.7067 69.9122 28.7322 69.5216C28.7492 69.1311 28.7577 68.9019 28.7577 68.9019C28.7577 68.9019 28.6218 69.0802 28.3926 69.3688C28.1718 69.666 27.8407 70.082 27.5266 70.5999C26.8559 71.6187 26.1767 73.062 25.9389 74.4459C25.7776 75.6685 25.9389 77.2986 26.3889 78.5212C26.5587 79.1325 26.8304 79.6419 27.0002 79.9984H26.9832Z" fill="#FF8800"/>
<path d="M64.8661 168.576C64.8916 169.119 64.7982 167.116 64.8661 168.576V168.576Z" fill="#FFFF00"/>
<path d="M64.8661 168.576C64.7642 166.368 63.8303 163.838 62.0389 162.446C61.2408 165.766 59.4069 168.423 55.9515 169.297C52.1903 170.257 48.1321 169.06 45.3898 166.368C42.5201 163.55 41.6371 160.179 43.2248 156.384C44.2945 153.82 46.1369 150.865 48.7434 149.651C46.052 145.067 48.65 138.427 49.1254 133.571C50.1697 139.03 51.4432 146.349 56.359 149.728C52.6488 145.347 52.946 138.478 52.2413 133.087C51.3753 126.405 49.6178 120.326 46.018 114.587C41.4843 120.318 41.6881 128.63 39.9816 135.439C39.158 138.708 38.5977 142.239 36.9251 145.22C36.0931 146.561 34.5734 148.964 32.6291 148.327C31.3386 147.911 30.583 146.357 30.0651 145.203C21.7533 152.563 20.2845 165.417 26.6436 174.502C27.3483 175.504 28.1294 176.446 28.9784 177.321C29.4878 177.847 30.0311 178.339 30.5915 178.815C30.9396 178.815 31.1943 178.849 31.4235 178.925C35.346 178.178 38.8948 180.403 41.3315 183.366C43.4201 184.614 46.7142 184.079 49.015 183.646C49.6603 183.527 50.1527 183.417 50.5942 183.255C51.2055 181.353 53.7101 180.071 55.7732 180.589C55.9345 180.674 56.1128 180.751 56.2911 180.836C58.4136 180.08 61.3512 176.947 62.8964 174.808C62.7605 175.028 62.6162 175.249 62.4634 175.47C64.2548 173.712 65.0019 171.038 64.8661 168.576Z" fill="#FFFF00"/>
<path d="M38.3515 107.591C38.776 108.007 39.2684 108.33 39.8203 108.542C38.1138 106.335 38.1902 102.616 37.46 99.9757C36.679 102.497 36.2884 105.545 38.36 107.583C38.7336 107.948 37.6214 106.861 38.36 107.583L38.3515 107.591Z" fill="#FFFF00"/>
<path d="M55.3232 151.604C55.0006 151.443 54.695 151.248 54.3893 151.052C55.3911 155.289 59.1438 155.391 62.7521 155.484C60.6465 153.217 57.8618 153.013 55.3232 151.604C55.5015 151.706 55.1364 151.511 55.3232 151.604Z" fill="#FFFF00"/>
<path d="M86.4315 188.752C86.4315 188.752 74.5716 182.916 73.3696 183.049C72.1675 183.183 68.0027 186.596 68.0027 186.596C68.0027 186.596 67.1042 182.289 65.7838 182.307C64.4603 182.325 59.7491 180.539 59.7491 180.539L26.3977 181.211L26.422 183.186L1.27563 187.092L2.0588 191.95L13.4846 192.892L42.4739 191.126L44.3438 185.678L44.4106 190.981L88.9965 191.926L89.6582 187.289L86.7714 187.171L86.4315 188.752Z" fill="url(#paint0_linear_155_48448)"/>
<path d="M86.4467 189.833C86.4467 189.833 74.5868 183.997 73.3848 184.13C72.1827 184.267 68.0179 187.677 68.0179 187.677C68.0179 187.677 67.1194 183.37 65.799 183.388C64.4755 183.407 59.7643 181.62 59.7643 181.62L26.8136 181.671L26.8379 183.646L1.29083 188.174L2.074 193.031L13.4998 193.973L42.4891 192.208L44.359 186.759L44.4258 192.062L89.0117 193.007L89.6734 188.37L86.7866 188.252L86.4467 189.833Z" fill="#661C2D"/>
</g>
<defs>
<linearGradient id="paint0_linear_155_48448" x1="46.6082" y1="171.725" x2="44.6856" y2="197.822" gradientUnits="userSpaceOnUse">
<stop stop-color="#E9A828"/>
<stop offset="0.99" stop-color="#DA1405"/>
</linearGradient>
<clipPath id="clip0_155_48448">
<rect width="91" height="193" fill="white"/>
</clipPath>
</defs>
</svg>
