<svg width="91" height="193" viewBox="0 0 91 193" fill="none" xmlns="http://www.w3.org/2000/svg">
<g clip-path="url(#clip0_155_48499)">
<path d="M70.0897 157.076C69.8095 155.344 67.9416 153.374 67.1606 151.744C66.0144 149.308 65.4965 146.701 65.3607 144.027C65.0126 138.542 65.8786 133.508 63.9598 128.193C61.2684 129.67 59.9185 125.603 59.6044 123.651C59.4261 122.504 59.2987 120.738 60.3685 119.94C60.7675 119.635 59.8421 117.928 59.6893 117.521C57.6601 112.002 53.899 106.382 48.8559 103.215C48.8559 104.191 48.8049 105.185 48.6521 106.152C48.3974 107.817 47.9304 108.402 46.2834 107.944C44.2033 107.367 40.3488 104.972 42.6326 102.434C42.8024 102.239 44.3391 101.551 44.3391 101.551C44.4155 99.8783 44.1524 98.1718 43.2949 96.703C42.5817 95.4804 41.4949 94.5295 40.2384 93.8928C38.9988 93.3154 37.0376 93.4003 36.2905 92.0674C35.5688 95.2682 36.0443 97.9256 37.131 100.982C38.1838 103.945 39.6101 107.528 36.9952 110.1C35.1358 106.815 37.9291 100.923 34.4736 98.3925C33.1152 100.574 31.4681 102.85 31.2219 105.49C31.0861 106.968 31.4426 108.521 32.0879 109.854C32.4275 110.55 32.869 111.213 33.4293 111.756C34.2189 112.529 33.9982 112.393 33.5567 113.471C31.0351 119.643 32.5548 126.41 31.2134 132.794C30.7974 134.798 30.7974 150.658 25.6524 147.584C23.6317 149.902 21.7215 152.517 21.0338 155.556C20.2697 158.919 20.2102 162.433 20.864 165.821C21.4498 168.835 22.596 171.73 24.2261 174.328C25.0326 175.602 25.9495 176.807 26.9684 177.928C27.4693 178.48 27.9957 179.006 28.5475 179.507C29.5239 179.634 30.4748 179.94 31.3662 180.348C32.8265 181.01 33.9048 181.986 34.4397 183.531C35.8405 184.219 37.3178 184.779 38.8205 185.187C42.2845 186.138 45.9608 186.333 49.5096 185.739C52.634 185.221 55.648 184.1 58.3478 182.462C61.2429 180.704 63.2721 179.015 64.1551 175.712C64.9022 172.902 66.32 170.737 68.6294 168.945C70.633 167.392 70.4887 162.637 70.4123 160.268C70.3783 159.207 70.2765 158.146 70.1067 157.093C70.0727 156.881 70.3189 158.392 70.1067 157.093L70.0897 157.076Z" fill="#FF8800"/>
<path d="M33.2086 65.5528C33.5142 68.4394 33.8963 71.4109 35.3651 73.9665C34.9406 69.9422 35.9339 65.7395 36.3924 61.7492C36.7914 57.6485 37.1735 53.5562 37.6319 49.464C34.7962 54.3967 32.5464 59.754 33.2086 65.5613C33.3529 66.9367 33.1322 64.8821 33.2086 65.5613V65.5528Z" fill="#FF8800"/>
<path d="M40.0601 35.2515C40.8412 40.5408 41.1638 45.8302 40.3488 51.128C41.6817 48.0376 42.5901 44.8113 42.3524 41.5172C42.1571 38.1975 40.4506 35.226 39.8139 31.9998C39.7205 33.0865 39.9073 34.1732 40.0601 35.2515C40.3403 37.1278 39.9327 34.3175 40.0601 35.2515Z" fill="#FF8800"/>
<path d="M67.4238 128.312C67.5426 128.549 68.6718 130.001 68.3407 130.264C68.7822 130.434 68.4001 128.626 68.4171 128.677C68.1369 127.658 67.4408 126.817 66.6682 126.13C66.8719 126.868 67.0842 127.624 67.4238 128.312C67.203 127.87 67.619 128.702 67.4238 128.312Z" fill="#FF8800"/>
<path d="M52.5321 100.43C52.7784 100.583 53.0246 100.719 53.2878 100.838C53.2198 99.1311 52.7444 98.1718 51.4199 97.0935C51.0549 98.418 51.2926 99.6915 52.5406 100.43C52.9566 100.685 52.1161 100.184 52.5406 100.43H52.5321Z" fill="#FF8800"/>
<path d="M33.684 83.1697C33.5737 83.7386 33.9217 84.4178 34.1849 84.8932C35.3311 83.9593 35.5009 83.0254 34.7793 81.7434C34.3378 82.083 33.7944 82.5924 33.684 83.1697C33.8114 82.4736 33.5737 83.781 33.684 83.1697Z" fill="#FF8800"/>
<path d="M33.3869 97.569C33.4548 97.6369 33.5312 97.7133 33.5991 97.7812C33.752 95.8709 33.8539 94.3767 33.4973 92.4664C32.0964 93.9777 31.9011 96.0238 33.3869 97.569C33.5142 97.6963 33.2511 97.4331 33.3869 97.569Z" fill="#FF8800"/>
<path d="M67.3813 159.793C66.9738 154.911 62.9156 151.184 60.3261 147.262C57.5413 143.042 56.964 138.814 56.8621 133.856C55.3848 135.18 53.8481 136.598 53.1264 138.491C52.4982 140.147 54.3151 141.446 55.1301 142.906C57.0998 146.43 59.5365 153.256 54.8584 155.794C54.349 156.066 54.6207 156.872 54.5358 157.433C54.366 158.613 53.8566 159.751 53.1349 160.701C51.7595 162.51 49.4417 163.631 47.1579 163.053C42.5478 162.077 40.5865 156.091 44.3731 152.882C32.5379 145.682 45.9183 132.217 38.3791 122.87C39.3215 125.459 39.729 128.252 38.8036 130.901C38.3536 132.2 37.649 133.482 36.6217 134.416C35.5943 135.341 34.7793 135.223 34.3718 136.573C33.5482 139.272 32.6823 141.964 31.8417 144.655C31.6295 145.326 29.7871 152.492 31.0182 152.424C33.8114 152.262 36.9613 154.257 37.7169 156.991C38.1414 158.52 37.3263 159.708 35.883 160.201C35.3057 160.404 33.0303 160.302 32.9624 160.651C32.3426 163.843 28.9466 163.605 27.1042 161.61C24.8544 159.199 25.0751 156.015 24.761 152.975C22.7233 157.755 22.4347 163.215 23.9629 168.181C24.6676 170.465 25.7458 172.639 27.1382 174.583C28.0721 175.882 31.3833 174.753 33.1492 175.372C35.1953 176.086 36.6726 177.758 37.2075 179.847C37.4622 180.823 37.0801 182.385 38.0565 182.716C39.4828 183.2 40.9601 183.548 42.4544 183.735C48.0239 184.44 53.7462 182.963 58.2884 179.66C57.847 180.127 57.3291 180.492 56.7432 180.755C60.5977 179.55 61.1326 174.252 63.1957 171.314C64.1551 169.956 65.2673 168.665 66.6342 167.706C67.3644 165.133 67.6106 162.459 67.3898 159.802L67.3813 159.793Z" fill="#FFFF00"/>
<path d="M49.3058 113.106C53.5679 117.359 55.0112 123.651 56.6243 129.28C58.2799 121.893 56.7771 113.641 48.1597 112.155C48.5417 112.478 48.9238 112.792 49.3058 113.106C49.4332 113.233 49.17 112.987 49.3058 113.106Z" fill="#FFFF00"/>
<path d="M86.4315 188.752C86.4315 188.752 74.5716 182.916 73.3696 183.049C72.1675 183.183 68.0027 186.596 68.0027 186.596C68.0027 186.596 67.1042 182.289 65.7838 182.307C64.4603 182.325 59.7491 180.539 59.7491 180.539L26.3977 181.211L26.422 183.186L1.27563 187.092L2.0588 191.95L13.4846 192.892L42.4739 191.126L44.3438 185.678L44.4106 190.981L88.9965 191.926L89.6582 187.289L86.7714 187.171L86.4315 188.752Z" fill="url(#paint0_linear_155_48499)"/>
<path d="M86.4467 189.833C86.4467 189.833 74.5868 183.997 73.3848 184.13C72.1827 184.267 68.0179 187.677 68.0179 187.677C68.0179 187.677 67.1194 183.37 65.799 183.388C64.4755 183.407 59.7643 181.62 59.7643 181.62L26.8136 181.671L26.8379 183.646L1.29083 188.174L2.074 193.031L13.4998 193.973L42.4891 192.208L44.359 186.759L44.4258 192.062L89.0117 193.007L89.6734 188.37L86.7866 188.252L86.4467 189.833Z" fill="#661C2D"/>
</g>
<defs>
<linearGradient id="paint0_linear_155_48499" x1="46.6082" y1="171.725" x2="44.6856" y2="197.822" gradientUnits="userSpaceOnUse">
<stop stop-color="#E9A828"/>
<stop offset="0.99" stop-color="#DA1405"/>
</linearGradient>
<clipPath id="clip0_155_48499">
<rect width="91" height="193" fill="white"/>
</clipPath>
</defs>
</svg>
