<svg xmlns="http://www.w3.org/2000/svg" width="1092" height="193" fill="none" viewBox="0 0 1092 193"><g clip-path="url(#a)"><path fill="#F80" d="m68.53 151.17.3.64c-3.42-8.92-12-16.63-12.75-26.51 3.4 2.27 2.4-4.7 2-5.95a21.87 21.87 0 0 0-2.68-5.2 10.72 10.72 0 0 1-1.95-4.36c-.87-3.43-2.68-6.6-4.6-9.55-2.24-3.49-5.42-6.76-6.8-10.72-4.98 4.02-6.72-5.03-6.72-8.18-.04-3.29-1.21-6.69-1.42-10.23.02-5.83 1.83-11.2 2.92-16.87.58-3.03.83-6.18.3-9.23-.49-2.21-1.44-4.18-1.56-6.43l-.01 1.5A38.8 38.8 0 0 0 33.99 37c.46.98.92 1.97 1.31 2.98.5 1.3.08 2.94-.1 4.28-.46 3.58-1.34 7.1-2.1 10.63a54.78 54.78 0 0 0-1.51 10.94c-.06 4.12 1.13 7.89 2.83 11.6.69 1.5.55 1.76.1 3.33a14.05 14.05 0 0 0-.48 5.31c.3 3.45 1.53 6.73 1.93 10.17.23 1.84-1.6 7.9-3.06 3.76-1.03-2.97.23-6.3-.92-9.27-.25 3.23-1.33 6.27-2.34 9.33-.77 2.3-3.09 7.55-1.33 9.64 1.9 2.27 4.19 4.86 4.34 7.9.18 3.61.1 7.26-.59 10.82-1.35 7.06-5.62 12.97-8.23 19.55-2.49 6.3-3.83 13.3-1.97 19.93a25.1 25.1 0 0 0 24.63 18.13 25.1 25.1 0 0 0 23.56-19.42 24.9 24.9 0 0 0-1.54-15.45c.2.4 1.37 3.07 0 0h.01ZM24.7 96c.07.16.16.3.24.45 1.78-2.96 2.76-4.69 2.17-8.27-2.75 1.92-4.06 4.66-2.41 7.83-.15-.28.14.28 0 0Z"/><path fill="#F80" d="M43.14 77.15a7.67 7.67 0 0 0 1.19 4.34c.76-1.85.67-4.23-1.29-5.32.09.33.12.65.09.98 0 .54 0-.28 0 0Z"/><path fill="#FF0" d="M67.7 162.28c-.97-9.79-14.38-12.53-14.8-22.85-2.95 5.66 1.3 11.38 1.23 17.12-.02 2.33-1.53 4.74-4.2 4.24-2.22-.41-3.63-3.06-4.62-4.84-2.02 3.2-5.44 5.6-9.4 4.64-3.72-.9-5.54-5.43-6.25-8.82-.33.98-.51 2-.57 3.03-.92-3-.36-6.6.8-9.48.8-1.7.43-1.89.3-3.7-.08-1.29-.19-2.65.07-3.93-3.62 6.3-5.28 13.42-6.46 20.54a22.1 22.1 0 0 0 4.34 17.1c.94 1.2 2.24 1.24 3.48 2.12 1.34.94 2.47 2.23 3.23 3.65a22 22 0 0 0 16.45 2.05 22.33 22.33 0 0 0 14.9-13.36l-.22.77c.97-2.63 1.99-5.44 1.7-8.28h.02Zm-14.93-22.24c.1-.32.13-.02.1.9-.51-.06-.55-.35-.1-.9 0 0-.08.23 0 0ZM41.41 118.33c-.22-.95-.44-1.75-.67-2.3-.2-.55-.35-.88-.35-.88l-.16.88c-.07.55-.26 1.31-.44 2.16-.4 1.72-1.11 3.72-1.7 5.48-.13.38-.26.8-.37 1.25a25.72 25.72 0 0 0-.74 3.01c-.08.53-.12 1.06-.16 1.54-.03.49 0 .97 0 1.38 0 .4.09.78.14 1.08.1.6.18.95.18.95l.32-.88c.15-.55.52-1.27.9-2.05l.68-1.21c.26-.41.5-.83.75-1.25.28-.46.55-.92.8-1.38.22-.49.42-.97.6-1.44.13-.48.25-1 .35-1.53.08-.53.12-1.1.15-1.65 0-.56-.02-1.1-.06-1.63-.06-.54-.14-1.05-.23-1.53h.01ZM53.9 124.61c-.1-.36-.22-.86-.33-1.42-.23-1.12-.38-2.52-.79-3.68-.2-.57-.52-1.22-.9-1.85.17.2.33.37.44.55l.57.78s-.01-.33-.08-.93c-.02-.31-.1-.66-.2-1.06l-.18-.63-.25-.67c-.36-.94-.91-1.92-1.52-2.87-.61-.93-1.3-1.83-1.93-2.58l-.86-1c-.31-.33-.6-.72-.91-1.1-.61-.78-1.23-1.66-1.82-2.45a26.2 26.2 0 0 0-1.57-1.93l-.7-.72.24.95c.15.58.32 1.4.53 2.33.21.94.46 2.01.89 3.1.22.53.46 1.07.76 1.56l.47.73c.16.24.32.43.48.62.92 1.09 2.12 2.07 3.2 3l-.09 1.23c-.07 1.24-.05 2.81.37 4a8.66 8.66 0 0 0 3.77 4.35c.37.19.6.28.6.28l-.19-.58v-.01ZM37.35 117.9l-.14-.34-.08-.37-.04-.47c0-.67.13-1.47.12-2.17a9.72 9.72 0 0 0-.7-3.2l-.17-.33s-.11.52-.33 1.19c-.2.68-.44 1.55-.43 2.37 0 .72.28 1.7.72 2.38.11.17.24.32.34.45l.34.3.34.2h.03Z"/><path fill="url(#b)" d="M86.43 188.75s-11.86-5.83-13.06-5.7c-1.2.13-5.37 3.55-5.37 3.55s-.9-4.31-2.22-4.3c-1.32.02-6.03-1.76-6.03-1.76l-33.35.67.02 1.98-25.14 3.9.78 4.86 11.42.94 29-1.76 1.86-5.45.07 5.3 44.59.95.66-4.64-2.89-.12-.34 1.58Z"/><path fill="#661C2D" d="M86.45 189.83s-11.86-5.83-13.07-5.7c-1.2.14-5.36 3.55-5.36 3.55s-.9-4.31-2.22-4.3c-1.32.03-6.04-1.76-6.04-1.76l-32.95.05.03 1.98-25.55 4.52.78 4.86 11.43.94 28.99-1.76 1.87-5.45.07 5.3 44.58.95.66-4.64-2.88-.12-.34 1.58Z"/></g><g clip-path="url(#c)"><path fill="#F80" d="M162.02 160.4c0-.9-1.33-2.35-1.72-3.21a18 18 0 0 1-1.4-4.97c-.44-3.32.25-6.58.03-9.89-.4-6.06-3.6-12.46-7.1-17.3-1.87-2.56-4.2-5.56-6.78-7.42a23.58 23.58 0 0 1-6.84-7.36c-1.76-2.85-3.03-6.44-3.01-9.8 0-1.65 1.78-6.03 3.56-3.21 1.75-8.34-3.88-14.1-6.91-21.24-.3 2.28-.53 4.88-1.64 6.93-1.81 3.26-2.72-1.93-2.8-3.23-.33-5.06-.04-9.9-1.04-14.91.48 4.17-1.23 7.8-1.77 11.85-.22 1.7-.17 3.46.4 5.08-1.34 1.79-2.95 3.41-3.72 5.55-1.27 3.56-1.37 9.31 1.64 12.12.58.63-.16 3.8-.08 4.83.16 2.13.58 4.3 1.47 6.25.03-2.9.9-6 2.06-8.65 1.51 2.53 2.54 6.4 2.04 9.35-.22 1.3-1.55 4.34-3.23 3.4-2.2 4.68-3.2 9.81-4.57 14.78-1.6 5.79-4.2 11.27-7 16.57-1.37 2.62-2.76 5.38-2.92 8.4-.18 3.33 1.13 6.4 1.55 9.63.38 2.98 1.14 5.59 2.93 7.98.72.95 1.28 2 2.01 2.92 1.03 1 2.5 1.62 3.38 2.76.75.96.49 2.37 1.42 3.08a24.78 24.78 0 0 0 11.7 4.82c4.92.65 9.98-.17 14.4-2.37a25.23 25.23 0 0 0 13.93-22.75l.01.02ZM118.37 82.7c.1.5.2.99.33 1.48 1-2.67 1.53-5.22 1.48-8.07-1.43 2-2.25 4.1-1.8 6.58.15.85-.05-.22 0 0ZM133.08 67.24c.43 2.95 1.28 5.85 1.87 8.77.55-6.06-1.03-11.8-1.38-17.8a24.2 24.2 0 0 0-.48 9.03c.25 1.73-.12-.99 0 0h-.01ZM128.94 44.57l.1.93c2.14-6.32 3.07-12.03.98-18.5-.6 5.9-1.59 11.6-1.08 17.57.06.58-.05-.59 0 0Z"/><path fill="#FF0" d="M158.99 159.42c-.15-1.75-1.11-3.32-1.6-5-.49-1.69-.71-3.25-1.63-4.75.27-4.1-.28-8.13-1.62-12.02a31.83 31.83 0 0 0-5.28-9.74c-2.22-2.75-4.64-5.43-6.33-8.56.18 4.3 2.8 7.38 4.72 11.03 1.77 3.4 4.04 8.37.98 11.72-.57.62-.2 1.78-.23 2.6-.06 1.8-.46 3.84-2.04 4.93-2.86 1.98-7 .53-8.9-2.06-5.04.55-3.57 6.65-4.8 9.95-.6 1.57-1.56 3.31-3.16 4.03-.5.24-3.44.57-3.45.94-.08 2.03-1.42 3.7-3.64 2.96-1.83-.61-3.1-2.54-3.94-4.18-1.55-3.01-1.58-6.66-1.09-9.95a22.2 22.2 0 0 0-2.39 10.8c.11 3.22 2.83 6.07 3.92 9.13.06.16.38.2.54.27a6.1 6.1 0 0 1 2.38 1.98 12.27 12.27 0 0 1 2.09 4.91c.64 3.19 7.95 4.72 10.73 5.04 13.78 1.6 25.92-10.2 24.73-24.01-.03-.38.05.63 0 0l.01-.02Zm-7.52 1.36a8.2 8.2 0 0 1-8.95 6.26c1.62-1.03 2.98-2.37 4.52-3.51 1.52-1.12 3.2-2 4.53-3.38l-.1.62c-.09.4.06-.39 0 0Z"/><path fill="#FF0" d="M125.98 141.94c.2 1.85.35 5.25 2.6 5.64 3.35.71 3.97-4.58 3.7-6.71-.47-3.45-2.02-6.68-1.73-10.22.21-3.3 1.04-6.6.81-9.9-2.85 6.66-6.18 13.74-5.37 21.2.02.21-.03-.26 0 0l-.01-.01Z"/><path fill="url(#d)" d="M177.43 188.75s-11.86-5.83-13.06-5.7c-1.2.13-5.37 3.55-5.37 3.55s-.9-4.31-2.22-4.3c-1.32.02-6.03-1.76-6.03-1.76l-33.35.67.02 1.98-25.14 3.9.78 4.86 11.42.94 29-1.76 1.86-5.45.07 5.3 44.59.95.66-4.64-2.89-.12-.34 1.58Z"/><path fill="#661C2D" d="M177.45 189.83s-11.86-5.83-13.06-5.7c-1.2.14-5.37 3.55-5.37 3.55s-.9-4.31-2.22-4.3c-1.33.03-6.04-1.76-6.04-1.76l-32.95.05.03 1.98-25.55 4.52.78 4.86 11.43.94 28.99-1.76 1.87-5.45.07 5.3 44.58.95.66-4.64-2.88-.12-.34 1.58Z"/></g><g clip-path="url(#e)"><path fill="#F80" d="M220.1 95.1c.03-.53-.06-.18 0 0 0-.09-.02-.06 0 0ZM251.69 155.57c-1.91-1.44-2.28-3.25-2.03-5.45a34.1 34.1 0 0 0-3.96-5.45 5.13 5.13 0 0 1-1.4-3.64c.03-1.23.3-2.87 1.56-3.47.51-.24-.32-4.16-.43-4.67a46.96 46.96 0 0 0-6.27-14.73 67.04 67.04 0 0 0-4.76-6.6c-1.54-1.84-3.18-4.3-5.46-5.13-5-1.84-7.23-6.14-8.72-10.97-.25 4.31-.55 11.28-5.57 12.93-2.78.78-2.68-4.23-2.6-5.9.12-3 .45-5.98-1.32-8.6-.38 1.5-1.22 2.85-1.9 4.23a16.86 16.86 0 0 0-1.53 6.47c-.2 3.77.6 7.4 2.75 10.54 1.8-1.96 4.92-.5 4.53 2.09-.22 3.37-1.97 6.6-3.68 9.43-3.74 6.24-7.28 11.97-8.4 19.3-.58 3.82-.38 7.45 0 11.1.02.14 1.15.84 1.31 1 1.16 1.24 1.78 4.46-.85 3.04.11.94.21 1.9.3 2.84a24.73 24.73 0 0 0 6.77 14.74 24.93 24.93 0 0 0 30.47 4.13 25 25 0 0 0 11.31-27.23H251.7ZM217.7 83.7c.09-.52 1.42.48 1.58.88.42 1.01.58 2.12.71 3.2.3 2.35.27 4.7.12 7.04.68-.88 1.28-1.85 1.66-2.9 1.98 3.55 7.5 3.36 8.11-1.04.62-4.45-2.33-8.43-4.35-12.11-3.42-6.24-4.67-13.09-5.14-20.14-2.6 8.07-1.22 16.83-2.7 25.08.02-.08 0 .03 0 0ZM216.44 63.51l.2.82c.34-5.45.8-10.88 1.1-16.33-2.03 5.1-2.62 10.15-1.3 15.52.13.5-.12-.52 0 0ZM208.34 73.74c.13 1.75.44 3.25.83 4.96 1.4-2.09.98-4.47-.88-6.1l.06 1.14c.04.63 0-.32 0 0Z"/><path fill="#F80" d="m213.62 94.58.17.36c.44-2.65 1.26-4.89.4-7.58-.94 2.41-1.77 4.72-.57 7.22-.11-.23.1.23 0 0Z"/><path fill="#FF0" d="M249.84 160.82c-.04-.7-.4.34-.57.55-.67.75-1.49.83-2.2.06-1.65-1.88-.44-4.77-.5-7.05-.09-2.67-.78-5.62-2.46-7.27-.6-.68-1.81-1.1-1.6-2.44.23-1.26.08-2.62-.1-3.87a38.85 38.85 0 0 0-2.46-8.65c-2.35-5.6-5.15-10.65-6.78-16.56 1 .86 1.94 1.76 2.77 2.78-.73-3.9-3.71-6.1-7.29-7.29 1.11 1.16 3.7 2.91 3.93 4.47.44 2.92.94 5.89 1.8 8.72 1.47 4.85 3.5 9.6 4.15 14.68.2 1.56.23 2.78-.77 4.08-.08.1-2.62-1.07-2.83-1.21-.85-.55-1.12-1.49-1.5-2.36-.33-.74-.69-1.47-1-2.22a16.5 16.5 0 0 1-1.26-4.83c-.5-5.67 1.24-10.93-4.03-14.9 1.76 4.12.16 6.09-2.57 9.13-3.26 3.51-1.43 8.89-4.27 12.54-1.77 2.37-7.1 5.94-10.15 3.93-2.63-1.74 2.5-8.4 2.86-10.57-2.87 3.92-6.4 6.58-7.66 11.56a18.7 18.7 0 0 0-.44 7.16c.2 1.34.54 2.68 1.12 3.9.07.16.77 1.12.71 1.33 3.27-2.7 7.57-.17 8.23 3.77 1.02 6.14-6.7 6.02-9.56 2.37.25 12.19 10.75 22.12 22.92 21.75 12.36-.38 22.25-11.25 21.5-23.59l.01.03Zm-12.64 4.14a7.83 7.83 0 0 1-5.07 4.25c-.7.18-1.46.22-2.18.17a10.2 10.2 0 0 1-2.8-.56l-.1-.03c-1.19-.45-2.14-1.3-3.17-2.06-1-.74-2.22-3.3-2.22-3.3s1.33.23 1.79.35c.79.2 1.63.25 2.44.22 1.7-.08 3.34-.56 4.91-1.19 2.42-.97 3.86-2.3 5.29-4.37.48-.69 1.36-1.92 1.23-2.39 0 0 .13.46.29 1.23.15.76.4 1.83.43 3.15a9.76 9.76 0 0 1-.83 4.52v.01Z"/><path fill="url(#f)" d="M268.43 188.75s-11.86-5.83-13.06-5.7c-1.2.13-5.37 3.55-5.37 3.55s-.9-4.31-2.22-4.3c-1.32.02-6.03-1.76-6.03-1.76l-33.35.67.02 1.98-25.14 3.9.78 4.86 11.43.94 28.98-1.76 1.87-5.45.07 5.3 44.59.95.66-4.64-2.89-.12-.34 1.58Z"/><path fill="#661C2D" d="M268.45 189.83s-11.86-5.83-13.06-5.7c-1.2.14-5.37 3.55-5.37 3.55s-.9-4.31-2.22-4.3c-1.33.03-6.04-1.76-6.04-1.76l-32.95.05.03 1.98-25.55 4.52.78 4.86 11.43.94 28.99-1.76 1.87-5.45.07 5.3 44.58.95.66-4.64-2.88-.12-.34 1.58Z"/></g><g clip-path="url(#g)"><path fill="#F80" d="m299.95 87.29.17 1.58.45-1.56c.27-.93.62-2.14 1.01-3.41a91.53 91.53 0 0 0 1.6-5.5c.08-.73-.75-1.42-1.84-1.54-1.1-.12-2.05.38-2.12 1.11-.05.37.17 3.1.38 5.73.1 1.3.25 2.64.35 3.59ZM311.38 56.93c-.33-.84-.57-1.6-.71-2.18l-.21-.92-.17.92c-.09.57-.16 1.4-.11 2.36.06 1.93.7 4.27 1.4 5.97.72 1.72 1.84 3.63 2.49 5.3.16.4.33.8.43 1.16.12.37.24.7.3.96l.22.9.16-.88c.06-.28.07-.61.1-1 .03-.4.03-.83 0-1.3a18.49 18.49 0 0 0-1.46-6.08c-.68-1.64-1.8-3.55-2.45-5.23l.01.02ZM342.89 157.5c.24-.67-.1-1.62-.26-2.25-.23-.87-.43-1.74-.73-2.59a26.81 26.81 0 0 0-2.26-4.79 25.67 25.67 0 0 0-3.03-4 25.6 25.6 0 0 1-3.14-2.87c-1.1-1.24-2.13-2.9-2.32-4.53-.06-.46-.13-.9-.09-1.3.02-.33.02-.63.06-.89.01-.05.01-.12.03-.16l.05-.27-.06-.12c-.35-.73-.65-1.55-.83-2.48-.27-1.1-.33-2.34-.45-3.6-.13-1.28-.16-2.62-.32-3.98-.1-1.36-.38-2.74-.69-4.09a21.04 21.04 0 0 0-1.38-3.83 34.87 34.87 0 0 0-1.74-3.25c-.32-.56-.67-1.1-1.03-1.67l-1.12-1.65c-1.53-2.17-3.21-4.26-4.66-6.15a61.65 61.65 0 0 1-3.44-4.9l-.23-.4-.12-.2-.07.06c-.34.26-.74.51-1.21.7-.46.16-.97.19-1.41-.04-.45-.21-.8-.66-1.1-1.12-.23-.49-.32-1-.2-1.5.12-.51.45-.96.8-1.36 1.23-1.37 3.97-2.5 5.8-1.3a4.6 4.6 0 0 1 1.7 1.9l.27.57.05.1.02-.08.07-.32a13.98 13.98 0 0 0 .2-4.39c-.1-.9-.36-1.8-.68-2.63a8.15 8.15 0 0 0-4.3-4.34l-.3-.13a2.37 2.37 0 0 0-.23-.08l-.05.17a5.36 5.36 0 0 1-1.37 2.2c-.45.46-1.02.84-1.56.93-.47.1-1-.08-1.45-.5a3.87 3.87 0 0 1-.7-1.66c-.06-.3-.12-.59-.15-.85l-.03-.4-.2.24a5.26 5.26 0 0 0-1.32 3.7c.03 1.1.41 2.13.65 3.05.21.8.36 1.74 0 2.53-.18.36-.5.62-.92.68-.4.08-.85-.02-1.21-.23a2.12 2.12 0 0 1-1-1.1l-.14.26c-.47.86-1.05 2.02-1.56 3.4a35.95 35.95 0 0 0-2.07 10.46 42.26 42.26 0 0 0 .4 8.1l.44 2.52c.14.88.3 1.68.46 2.4l.1.42.21.24.05.05c.58.6 1.1 1.42 1.51 2.09.3.6.67 1.31.87 2l-.12.9c-.08.58-.25 1.16-.39 1.77-.2.6-.35 1.23-.62 1.83l-.75 1.87c-.29.62-.57 1.25-.87 1.87-1.22 2.5-2.63 5.02-3.92 7.4a76.13 76.13 0 0 0-3.4 7.09c-.18.45-.34.9-.5 1.37-.04.13.44.84.52 1 .15.34.28.7.38 1.07.2.7.31 1.45.26 2.19-.1 1.58-.7 3.74-2.71 3.47-.08 1.14-.1 2.2-.09 3.13a25.02 25.02 0 0 0 24.94 26.55c1.22 0 2.5-.25 3.7-.42 1.2-.18 2.4-.41 3.58-.73a22.52 22.52 0 0 0 6.52-2.95c2-1.33 3.83-2.95 5.38-4.79a22.24 22.24 0 0 0 3.69-6.1c.91-2.3 1.43-4.72 1.88-7.14.04-.25.2-.65.16-.9-.09-.6-.66-1.07-.84-1.66-.2-.58-.27-1.17-.2-1.77.1-.66.38-1.1.68-1.67l.07-.16.04.02ZM313.23 54.28c.33.26.58.46.78.57l.29.18-.2-.28a5.56 5.56 0 0 1-.44-.75 8.76 8.76 0 0 1-.8-2.8c-.32-2.29-.03-5.2.15-7.52.16-2.33.3-5.29.73-7.64a17.95 17.95 0 0 1 1.02-3.74l.14-.3-.24.2c-.16.13-.37.34-.63.62-.5.56-1.16 1.43-1.76 2.53a20.49 20.49 0 0 0-2.5 8.1c-.19 2.48.32 5.78 1.54 8.18a8.5 8.5 0 0 0 1.94 2.66l-.02-.01Z"/><path fill="#FF0" d="M337.35 163.88a18.36 18.36 0 0 1-5.9 3c-3.54 1.09-10.24.98-11.64-3.48-1.42-4.55 4.1-7.4 7.61-8.18 4.08-.89 8.52-.51 12.34 1.22-.32-1.37-.76-2.7-1.33-4-.75-1.72-1.29-1.8-2.94-2.56l-.14-.06a16.62 16.62 0 0 1-7.52-7.1l-.09-.14-.23-.45-.15-.3c-.71-1.4-1.3-2.86-1.86-4.34l-.25-.69c-1.43-3.83-2.75-7.72-5.5-10.8a13.26 13.26 0 0 1-3.15 10.42l-.06.05c-.63.7-1.39 1.38-2.3 1.69-.07.03 0 1.51 0 1.34a12.3 12.3 0 0 1-1.77 6.48c-2.81 4.42-6.73 1.3-6.87-2.96-.03-1.05.03-2.08.14-3.13l.07-.72c.33-2.86.81-5.71.1-8.56-.68 4.47-3.28 8.3-5.1 12.38-.23.5-.43 1-.63 1.5-.31.82-.59 1.65-.8 2.52-.16.65-.7 2.23-.1 2.7a5.17 5.17 0 0 1 1.75 3.95c.05 2.53-1.91 6.47-4.96 4.85-1.65 12.58 8 24.3 20.67 25.09 12.53.77 23.42-9.42 23.6-21.88-.1-.1-2.43 1.75-2.94 2.16h-.05ZM309.2 115.58c-.23-1.03.5 2.14 0 0Z"/><path fill="#FF0" d="M313.32 127.51c1.6-4.6.25-9.48.35-14.2 0-.4.3-1.5-.03-1.73-1-.73-1.25-2.26-1.4-3.39-.21-1.55-.63-4.44.76-5.6-2.54-.14-2.93 3.45-2.9 5.24 0 .6.9 5.86-1.25 4.95 0 .93.15 1.89.36 2.8.93 4.13 3.43 7.75 4.1 11.94ZM319.3 111.32c-.4-1.03.35 1.05 0 0Z"/><path fill="#FF0" d="M321.09 116.62c.83-4.24-.7-7.55-3.45-10.73.48 1.82.99 3.67 1.66 5.42.6 1.78 1.28 3.5 1.79 5.3v.01ZM329.14 142.13v.03-.03c.17 1.13.7 2.26 1.47 3.14a4.77 4.77 0 0 0 2.03 1.35l.09.03.4.11c.22.04.43.08.65.09-.25-.3-.46-.62-.64-.95-.36-.68-.6-1.43-.9-2.16-.68-1.64-1.97-3.02-3.19-4.28-.08.9-.06 1.78.08 2.66-.02-.08-.04-.2 0 0Z"/><path fill="url(#h)" d="M359.43 188.75s-11.86-5.83-13.06-5.7c-1.2.13-5.37 3.55-5.37 3.55s-.9-4.31-2.22-4.3c-1.32.02-6.03-1.76-6.03-1.76l-33.35.67.02 1.98-25.14 3.9.78 4.86 11.43.94 28.98-1.76 1.87-5.45.07 5.3 44.59.95.66-4.64-2.89-.12-.34 1.58Z"/><path fill="#661C2D" d="M359.45 189.83s-11.86-5.83-13.06-5.7c-1.2.14-5.37 3.55-5.37 3.55s-.9-4.31-2.22-4.3c-1.32.03-6.04-1.76-6.04-1.76l-32.95.05.03 1.98-25.55 4.52.78 4.86 11.43.94 28.99-1.76 1.87-5.45.07 5.3 44.58.95.66-4.64-2.88-.12-.34 1.58Z"/></g><g clip-path="url(#i)"><path fill="#F80" d="M433.68 162.51a8.23 8.23 0 0 0-.22-.7c-.56-1.6-1.53-3.35-1.75-4.87-.05-.88.14-1.75.65-2.02a.7.7 0 0 1 .27-.08l-.03-.09h.15v.06l.01-.06.18-.96v-.02c.08-.31.09-.7.11-1.14 0-.22.04-.45.03-.7l-.05-.75c-.11-2.13-1.24-4.62-2.4-6.4-1.15-1.78-2.82-3.76-4.02-5.44a27.4 27.4 0 0 1-1.38-2.08l-.03-.05-.03-.06-.05.18-.07.25c-.07.25-.15.54-.17.86-.03.31-.08.65-.06 1.02a16.96 16.96 0 0 0 .26 2.36c.03.08.04.17.05.25l.17.93.23 1.43c.05.45.08.9.08 1.36-.02.44-.08.9-.27 1.24-.17.35-.48.5-.85.52-.38 0-.77-.15-1.1-.37a5.66 5.66 0 0 1-1.6-1.9c-.41-.71-.76-1.54-1.03-2.4-.14-.42-.22-.89-.33-1.34l-.16-.68c-.06-.23-.07-.47-.1-.7a10.19 10.19 0 0 1-.18-1.43l-.09-1.35c0-.91-.04-1.8 0-2.65a57.5 57.5 0 0 1 .1-2.11l-.24-.36a11.1 11.1 0 0 1-1.35-3.61c-.39-1.8-.47-3.88-.48-5.98 0-1.04.02-2.1-.07-3.16a9.53 9.53 0 0 0-.71-2.99c-.72-1.84-2.15-3.49-3.18-5.26a7.67 7.67 0 0 1-.36-.67c-.11-.23-.24-.45-.31-.69-.09-.24-.2-.47-.25-.7a10.2 10.2 0 0 1-.24-4.19l.12-.82a9.11 9.11 0 0 1-.2-.58c-.17-.54-.3-1.11-.48-1.7-.31-1.14-.65-2.3-1.07-3.37-.36-.93-.86-2-1.52-2.97a8.47 8.47 0 0 0-2.4-2.43 5.68 5.68 0 0 0-2.04-.82l-.22-.05-.05.14c-.17.44-.37.94-.61 1.46a7.18 7.18 0 0 1-2.06 2.74c-.94.7-2.26 1.04-3.12.45-.2-.1-.37-.28-.53-.46l-.22-.32c-.07-.1-.15-.21-.2-.34a3.52 3.52 0 0 1-.37-1.61c0-1.17.44-2.36.91-3.35a16.9 16.9 0 0 1 1.91-3.03c.11-.14.17-.23.2-.25l.02-.03-.02.03a7.6 7.6 0 0 1-.24-.58c-.53-1.31-.59-3.14-.67-4.76a20.6 20.6 0 0 0-.7-4.78 9.85 9.85 0 0 0-.56-1.4 18.28 18.28 0 0 1-.9 4.04c-.54 1.58-1.31 3.3-2.04 5.04a28.44 28.44 0 0 0-1.7 5.3 18.32 18.32 0 0 0-.03 7c.13.46.18.94.37 1.37l.24.66c.08.2.2.41.28.61.18.42.41.8.62 1.16.23.38.46.73.7 1.07l.17.32a8.73 8.73 0 0 1 1.18 3.55c.04 1.33 0 2.67-.02 3.89-.02 1.21-.04 2.58.05 3.95.02.34.06.68.1 1.02.03.34.06.67.13 1 .1.65.22 1.29.41 1.87a8.2 8.2 0 0 0 1.07 2.32l-.1.19.1-.17.12-.16.02-.04c.17-.23.4-.58.72-.99.16-.2.35-.42.57-.62.23-.2.5-.4.81-.45a1 1 0 0 1 .88.33c.24.26.44.6.6.97.31.75.52 1.6.67 2.5.15.9.3 1.8.27 2.72a13.68 13.68 0 0 1-.69 4 21.67 21.67 0 0 1-1.36 3.64 6.1 6.1 0 0 1-1.6 2.08c-.36.24-.73.4-1.14.44-.42.03-.8-.05-1.08-.31a2.2 2.2 0 0 1-.59-1.04c-.12-.4-.18-.81-.21-1.22-.12-1.64.07-3.1.21-4.13l.05-.38.02-.13c-.04.1-.1.18-.16.3-.16.27-.36.58-.61.94-.73 1.07-2.05 2.37-2.98 4.3-.93 1.93-1.26 4.33-2.11 6.46-.9 2.12-2.5 3.86-3.77 5.59-.31.44-.65.89-.9 1.4-.25.52-.6 1.01-.77 1.58-.46 1.1-.77 2.27-.96 3.45-.15.93-.24 1.86-.27 2.77a24.93 24.93 0 0 0 8 25.95l.41.17c.43.17.88.3 1.32.44l.5.15 1.75.43c1.07.27 2.21.72 3.2 1.43.67.44 1.24 1 1.73 1.59.22.26.42.53.61.79l.58.15a25 25 0 0 0 12.8-.24c.88-1.6 2.63-2.04 4.17-1.61a25.1 25.1 0 0 0 13.85-19.94c-.06-.4-.14-.8-.27-1.17h-.03Z"/><path fill="#F80" d="M401.6 76.22c.44.92.85 1.98 1.2 3.04.3 1.08.55 2.18.59 3.18l.04.73-.03.67-.03.6-.02.17-.04.28.17-.1c.24-.13.5-.32.74-.57.39-.43.71-.99 1.04-1.5a6.3 6.3 0 0 1 1.06-1.29c.37-.34.83-.64 1.3-.66.24.01.49.08.72.21a2.9 2.9 0 0 1 .94.95c.05-.13.1-.27.13-.42.02-.1.05-.19.06-.29.05-.31.16-.67.16-1.06a10.8 10.8 0 0 0-1.2-5.14c-.33-.7-.75-1.47-1.25-2.2-.49-.73-1-1.43-1.39-2.1a6.51 6.51 0 0 1-.65-1.33l-.08.49-.13.65a5.1 5.1 0 0 1-.8 2.07.8.8 0 0 1-.34.24.59.59 0 0 1-.39-.02c-.23-.09-.48-.38-.67-.68-.34-.54-.6-1.33-.9-2.07-.18-.38-.27-.77-.38-1.15-.1-.38-.24-.76-.29-1.12l-.06-.35L401 67c0 .06 0 .12-.02.19-.04.28-.12.62-.2.99l-.35 1.49-.13.79-.06.41-.03.43c-.02.58.03 1.18.17 1.77.24 1.18.81 2.25 1.21 3.17v-.02ZM390.98 80l.3.57.09-.62c.06-.38.09-.9.23-1.49.16-1.17.6-2.53.73-3.64.2-1.11.22-2.56.32-3.77l.08-1.53.03-.62-.37.47c-.22.3-.55.71-.86 1.23a10.79 10.79 0 0 0-1.6 3.85c-.15 1.22 0 2.85.46 4.07.17.61.44 1.12.61 1.48h-.02Z"/><path fill="#FF0" d="M428.87 168.58c.02.54-.07-1.46 0 0Z"/><path fill="#FF0" d="M428.87 168.58c-.1-2.21-1.04-4.74-2.83-6.13-.8 3.32-2.63 5.97-6.09 6.85-3.76.96-7.82-.24-10.56-2.93-2.87-2.82-3.75-6.2-2.16-9.99 1.06-2.56 2.9-5.51 5.51-6.73-2.69-4.58-.09-11.22.38-16.08 1.05 5.46 2.32 12.78 7.24 16.16-3.71-4.38-3.41-11.25-4.12-16.64-.87-6.69-2.62-12.76-6.22-18.5-4.54 5.73-4.33 14.04-6.04 20.85-.82 3.27-1.38 6.8-3.06 9.78-.83 1.34-2.35 3.74-4.3 3.1-1.28-.4-2.04-1.96-2.56-3.12-8.3 7.36-9.77 20.22-3.42 29.3a23.2 23.2 0 0 0 3.95 4.31c.35 0 .6.04.83.12 3.93-.75 7.47 1.47 9.91 4.44 2.09 1.24 5.38.7 7.69.28a9.66 9.66 0 0 0 1.57-.4c.62-1.9 3.12-3.18 5.18-2.66l.52.25c2.12-.76 5.06-3.9 6.6-6.03-.13.22-.27.44-.43.66 1.8-1.76 2.54-4.43 2.4-6.9ZM402.35 107.6c.43.4.92.73 1.47.94-1.7-2.2-1.63-5.92-2.36-8.56-.78 2.52-1.17 5.56.9 7.6.37.37-.74-.72 0 0v.01Z"/><path fill="#FF0" d="M419.32 151.6c-.32-.16-.63-.35-.93-.55 1 4.24 4.75 4.34 8.36 4.43-2.1-2.26-4.89-2.47-7.43-3.88.18.1-.18-.09 0 0Z"/><path fill="url(#j)" d="M450.43 188.75s-11.86-5.83-13.06-5.7c-1.2.13-5.37 3.55-5.37 3.55s-.9-4.31-2.22-4.3c-1.32.02-6.03-1.76-6.03-1.76l-33.35.67.02 1.98-25.14 3.9.78 4.86 11.43.94 28.98-1.76 1.87-5.45.07 5.3 44.59.95.66-4.64-2.89-.12-.34 1.58Z"/><path fill="#661C2D" d="M450.45 189.83s-11.86-5.83-13.06-5.7c-1.2.14-5.37 3.55-5.37 3.55s-.9-4.31-2.22-4.3c-1.32.03-6.04-1.76-6.04-1.76l-32.95.05.03 1.98-25.55 4.52.78 4.86 11.43.94 28.99-1.76 1.87-5.45.07 5.3 44.58.95.66-4.64-2.88-.12-.34 1.58Z"/></g><g clip-path="url(#k)"><path fill="#F80" d="M519.4 123.18c.32 2.56.89 5.1 1.69 7.56.3.91 2.3 7.02 4.1 3.95 1-1.7-2.43-5.4-3.21-6.9a33.93 33.93 0 0 1-2.73-6.6 15.52 15.52 0 0 0 .15 1.99ZM495.72 74.3c.25 1.55 1.1 5.28 3.16 5.35 2.64.1-.06-4.32-.43-5.2-2.07-4.94-1.05-11.2-1.75-16.45-.17 5.19-2.15 11.19-1 16.3.19 1.06-.05-.26 0 0h.02ZM525.43 164.44c-.1-.24-.01-.02 0 0Z"/><path fill="#F80" d="M519.09 178.38a25.23 25.23 0 0 0 4.35-6.51c.74-1.63 2.7-5.65 2-7.42-.03-.03-.11-.24 0 0-2.14-5.07-4.03-11.41-2.2-16.85.15-.67 1.06-2.1.91-2.76-.37-1.57-.9-3.11-1.52-4.59a56.84 56.84 0 0 0-4.02-7.06c-.25 3.24-3.68-.42-4.22-1.48-1.4-2.72-1.63-5.87-2.87-8.65-1.24-2.77-3.03-4.75-4.94-7.06-.9-1.07-3.68-5.7-.42-5.76-.8-3.1-2.66-5.69-5.15-7.64-.66-.51-1.35-.96-2.08-1.36-.94-.53-.8 0-1.52.68-2.04 1.77-4.1-.64-4.67-2.52-.75-2.44-.53-4.98-.67-7.48-.06-.93-.18-1.84-.31-2.76.5-.88.96-1.83 1.3-2.8 1.7-4.92-1.16-9.44-2.93-13.9.08 4.34-2.11 8.18-2.8 12.38-.24 1.5-.01 3.23.4 4.7.18.62.47 1.56 1.17 1.82.67.24.38 2.04.36 2.78-.12 4.71-3.55 8.65-4.66 13.14-.57 2.25-.66 4.58.13 6.79.88 1.97 2.62 4.08 4.23 1.38.13 1.34.06 2.63-.15 3.96 1.05.11 1.63.9 1.81 1.88.26 1.47-1.26 1.71-2.38 1.56-.2 1.37-.34 2.75-.23 4.13.13 1.65-2.31 4.14-3.06 5.8-1.28 2.92-1.9 6.06-3.1 9.02-.52 1.27-1.24 2.82-2.76 3.05-.88.12-.9.8-1.24 1.67A24.88 24.88 0 0 0 476 156c.03 1.27.03 2.28.75 3.32a9.25 9.25 0 0 1 1.51 3.67c.5 2.8-1.44 6.23-.3 8.75a25.25 25.25 0 0 0 28.46 14.08c2.36-1.89 5.42-3.68 8.54-3.8a24.7 24.7 0 0 0 4.15-3.61l-.02-.03Z"/><path fill="#F80" d="m494.42 97.7.23.33c.13-1.38 1.34-5.65 3.56-4.5.8-2.02.2-4.1-1.04-5.78-2.44 2.33-4.73 6.59-2.75 9.95.07.13-.19-.31 0 0ZM505.63 99.85c1.09.82 2.47 2.01 3.29 3.1.47-2.34-1.86-4.76-4.21-3.61a3.25 3.25 0 0 1 .92.5Z"/><path fill="#FF0" d="M522.69 160.27c-.05-.64-.13-1.26-.23-1.9-.4 3.74-2.3 8.65-7 7.87-.55-.1-2.69-1.58-2.9-1.49a10.6 10.6 0 0 1-6.69.59c-4.3-1.03-6.93-4.78-5.4-9.1 1.45-4.17 6-6.73 10.11-4.69 1.04.53 2.72 1.13 3.56 1.91 1.34 1.25 2.22 2.91 3.7 4.04 1.33 1.03 1.56-.4 1.96-1.71.67-2.15.84-4.52.58-6.75a10.46 10.46 0 0 0-2.7-5.8 22 22 0 0 1-3.7-6.15c-1.54-3.74-4.9-6.47-6.17-10.3-1.18 3.56.63 6.44.45 9.91-.1 2.36-2.47.4-3-.58-1.05-1.95-1.26-4.2-1.4-6.35-.11-1.82-.21-3.69-.88-5.4.56-2.04 1.43-4.25 1.1-6.39-.64-4.34-5.42-5.04-8.15-7.61a13.3 13.3 0 0 1 3.36 12.51c-.2.83.44 2.42.56 3.29.2 1.48.3 2.98.25 4.47a20.4 20.4 0 0 1-2.07 8.52c-.96 1.88-2.68 3.27-3.11 5.26-.58 2.62-1.48 5.29-3.39 7.26-4.05 4.18-9.84-.19-8.91-5.35a13.45 13.45 0 0 0-3.1 10.48c.24 2.02.64 3.64 2.07 4.97 1.45 1.36 2.19 3.4 1.2 5.2a7.85 7.85 0 0 1-1.92 2.32c-.9.72-1.25.37-.76 1.5a22.42 22.42 0 0 0 11.4 11.54c3.6 1.61 7.61 2.23 11.53 1.78 2.07-.24 2.2-.53 3.65-1.67 1.69-1.35 3.95-2.13 6.04-2.55 3.42-.69 6.13-4.84 7.65-7.82a22.22 22.22 0 0 0 2.34-11.83l-.03.02ZM498.96 108.23c.43.65 1.15 1.17 1.69 1.74.53-2.07-.72-3.62-2.76-3.94.33.71.6 1.56 1.07 2.19.24.36-.26-.35 0 0Z"/><path fill="url(#l)" d="M541.43 188.75s-11.86-5.83-13.06-5.7c-1.2.13-5.37 3.55-5.37 3.55s-.9-4.31-2.22-4.3c-1.32.02-6.03-1.76-6.03-1.76l-33.35.67.02 1.98-25.14 3.9.78 4.86 11.43.94 28.98-1.76 1.87-5.45.07 5.3 44.59.95.66-4.64-2.89-.12-.34 1.58Z"/><path fill="#661C2D" d="M541.45 189.83s-11.86-5.83-13.07-5.7c-1.2.14-5.36 3.55-5.36 3.55s-.9-4.31-2.22-4.3c-1.32.03-6.04-1.76-6.04-1.76l-32.95.05.03 1.98-25.55 4.52.78 4.86 11.43.94 28.99-1.76 1.87-5.45.07 5.3 44.58.95.66-4.64-2.88-.12-.34 1.58Z"/></g><g clip-path="url(#m)"><path fill="#F80" d="M616.09 157.08c-.28-1.74-2.15-3.7-2.93-5.34a20.33 20.33 0 0 1-1.8-7.71c-.35-5.49.52-10.52-1.4-15.84-2.7 1.48-4.04-2.59-4.36-4.54-.17-1.15-.3-2.91.77-3.71.4-.3-.53-2.01-.68-2.42-2.03-5.52-5.8-11.14-10.83-14.3 0 .97-.06 1.97-.2 2.93-.26 1.67-.73 2.25-2.38 1.8-2.08-.58-5.93-2.98-3.65-5.52.17-.2 1.7-.88 1.7-.88a8.75 8.75 0 0 0-1.04-4.85 7.34 7.34 0 0 0-3.05-2.8c-1.24-.58-3.2-.5-3.95-1.83-.72 3.2-.25 5.86.84 8.91 1.05 2.96 2.48 6.55-.13 9.12-1.86-3.28.93-9.18-2.53-11.7-1.36 2.17-3 4.45-3.25 7.09a8.46 8.46 0 0 0 .87 4.36c.34.7.78 1.36 1.34 1.9.79.78.57.64.13 1.72-2.52 6.17-1 12.94-2.35 19.32-.41 2-.41 17.87-5.56 14.8-2.02 2.31-3.93 4.93-4.62 7.97a25.04 25.04 0 0 0 3.2 18.77 26.25 26.25 0 0 0 4.32 5.18c.97.12 1.93.43 2.82.84a5.34 5.34 0 0 1 3.07 3.18 24.97 24.97 0 0 0 23.9-1.07c2.9-1.76 4.93-3.45 5.81-6.75a12.12 12.12 0 0 1 4.48-6.77c2-1.55 1.86-6.3 1.78-8.67a25.12 25.12 0 0 0-.3-3.18l-.02-.01ZM579.2 65.55c.31 2.89.7 5.86 2.16 8.42-.42-4.03.57-8.23 1.03-12.22.4-4.1.78-8.2 1.24-12.29-2.83 4.94-5.08 10.3-4.42 16.1.14 1.38-.08-.68 0 0ZM586.06 35.25c.78 5.3 1.1 10.58.29 15.88 1.33-3.1 2.24-6.32 2-9.61-.2-3.32-1.9-6.3-2.54-9.52-.09 1.09.1 2.17.25 3.25-.13-.93.28 1.88 0 0ZM613.42 128.31c.12.24 1.25 1.7.92 1.95.44.17.06-1.63.08-1.58a5.47 5.47 0 0 0-1.75-2.55c.2.74.41 1.5.75 2.18.2.4-.22-.44 0 0ZM598.53 100.43c.25.15.5.29.76.4a4.42 4.42 0 0 0-1.87-3.74c-.37 1.33-.13 2.6 1.12 3.34.42.25-.42-.25 0 0ZM579.68 83.17c-.1.57.24 1.25.5 1.72 1.15-.93 1.32-1.86.6-3.15-.44.34-.99.85-1.1 1.43-.1.61.13-.7 0 0ZM579.39 97.57l.2.21c.16-1.9.26-3.4-.1-5.31-1.4 1.5-1.59 3.55-.1 5.1-.14-.14.12.13 0 0Z"/><path fill="#FF0" d="M613.38 159.8c-.4-4.89-4.47-8.62-7.05-12.54-2.79-4.22-3.37-8.45-3.47-13.4-1.48 1.32-3.01 2.74-3.73 4.63-.63 1.66 1.19 2.96 2 4.42 1.97 3.52 4.4 10.35-.27 12.88-.51.28-.24 1.08-.32 1.64a7.16 7.16 0 0 1-1.4 3.27c-1.38 1.81-3.7 2.93-5.98 2.35-4.61-.97-6.57-6.96-2.79-10.17-11.83-7.2 1.55-20.66-6-30.01.95 2.59 1.36 5.38.43 8.03a8.48 8.48 0 0 1-2.18 3.52c-1.03.92-1.84.8-2.25 2.15-.82 2.7-1.69 5.4-2.53 8.09-.21.67-2.05 7.83-.82 7.76 2.8-.16 5.94 1.84 6.7 4.57.42 1.53-.4 2.72-1.84 3.21-.57.2-2.85.1-2.92.45-.62 3.2-4.01 2.95-5.86.96-2.25-2.41-2.02-5.6-2.34-8.64a22.31 22.31 0 0 0-.8 15.21c.7 2.28 1.79 4.46 3.18 6.4.93 1.3 4.24.17 6 .8a6.34 6.34 0 0 1 4.07 4.47c.25.97-.13 2.53.85 2.87a22.31 22.31 0 0 0 20.23-3.06c-.44.47-.96.83-1.55 1.1 3.86-1.21 4.4-6.5 6.46-9.45a14.62 14.62 0 0 1 3.43-3.6c.73-2.58.98-5.25.76-7.9v-.02ZM595.3 113.1c4.27 4.26 5.71 10.55 7.32 16.18 1.66-7.39.16-15.64-8.46-17.13a106.74 106.74 0 0 0 1.15.96Z"/><path fill="url(#n)" d="M632.43 188.75s-11.86-5.83-13.06-5.7c-1.2.13-5.37 3.55-5.37 3.55s-.9-4.31-2.22-4.3c-1.32.02-6.03-1.76-6.03-1.76l-33.35.67.02 1.98-25.14 3.9.78 4.86 11.43.94 28.98-1.76 1.87-5.45.07 5.3 44.59.95.66-4.64-2.89-.12-.34 1.58Z"/><path fill="#661C2D" d="M632.45 189.83s-11.86-5.83-13.07-5.7c-1.2.14-5.36 3.55-5.36 3.55s-.9-4.31-2.22-4.3c-1.32.03-6.04-1.76-6.04-1.76l-32.95.05.03 1.98-25.55 4.52.78 4.86 11.43.94 28.99-1.76 1.87-5.45.07 5.3 44.58.95.66-4.64-2.88-.12-.34 1.58Z"/></g><g clip-path="url(#o)"><path fill="#F80" d="M706.96 168.6s.05.1 0 0c-.8-1.55-1-3.67-.67-5.36.3-1.59.55-1.6.23-2.2v-.02l-.03-.02-.45-.73c-1.72-2.75-2.09-6.05 0-8.62.46-.56-.9-3.43-1.13-4.03-.76-1.91-1.7-3.76-2.45-5.68-.38-1.03-1.95-8.15.42-7.8-1.92-9.98-11.44-16.42-15.16-25.59.11 2.71.61 5.4 1.67 7.9 1.05 2.46 2.7 4.6 3.75 7.06-3.26-2.63-7.24-4.53-9.5-8.22-2.06-3.33-1.32-6.94-2.08-10.57-.06.66-.8-1.04-1.13-1.47-.64-.83-1.34-1.6-2.05-2.38.21 2.4.16 5.36-1.36 7.36-1.1 1.66-5.04 3.25-6 .56-2.24 1.38-2.2 4.68-3.02 6.87 5.8.06-.57 8.47-1.9 10.56-2.26 3.52-4.88 9.29-4.3 13.57.53 3.93.98 9.82-1.72 13.12-1.37 1.67-1.47 5.12-1.54 7.2-.1 2.8.26 5.61 1.09 8.29 1.71-.95 4.14-1.93 5.34.25 1.15 2.08-3.74 1.63-4.73 1.52a25.2 25.2 0 0 0 16 14.81c1.38.42 2.78.71 4.2.9 1.62.19 2.31-.18 3.81-.63 2.5-.74 4.97.28 7.27-.5a24.9 24.9 0 0 0 12.3-9.12c1.01-1.4 3.96-5.34 3.13-7.03Z"/><path fill="#F80" d="M672.42 102.02c1.04.05 1.95.54 2.73 1.21.16-2.77 1.22-6.22 3.97-7.44 3.1-1.37 5.98 1.27 8.15 3.13-.4-3.51 1.1-13.88-5.36-12.85-3.12.49-3.01 4-5.07 5.56-1.2.9-3.55 1.14-3.3-.95-4.76.09-3.34 8.54-2.7 11.2.14.57 1.03.13 1.59.14h-.01ZM670.83 101.87l-.03-.15.03.15ZM691.66 96.2c4.97-1.54 1.34-9-2.96-6.1.3.15.6.33.87.53 1.42 1.1 2.39 3.83 2.09 5.58Z"/><path fill="#FF0" d="M703.66 169.12c-.64-1.2-.64-2.72-.6-4.05.05-1.68.1-2.23-1.11-3.56-2.77-3.03-5.51-4.91-6.88-9.01-.86 2.4-.94 5.1-.33 7.57.3 1.26.82 2.47 1.46 3.6.82 1.43 1.72 1.67.8 3.25-1.5 2.6-5.09 2.12-6.8 0-.83-.98-1.4-2.15-2.13-3.2-.94-1.32-2.15-2.14-3.4-3.12-2.55-2-.93-5.22.47-7.4a26.7 26.7 0 0 1 1.73-2.4c.55-.68-.2-2.83-.11-3.82.4-5.15 1.67-8.74-2.06-12.83-.35 2.9-.97 6.91-3.57 8.75-3.7 2.7-7.1-1.6-8.4-4.67-1.38 2.11-1.71 4.67-2.48 7.03-.37 1.15-.88 2.35-1.96 3-.72.42-2.76.11-3.05.53a22.32 22.32 0 0 0-3.73 17.07c.77-2.16 2.64-3.34 4.85-3.8 1.53-.32 1.68-.1 2.91-.98 1.38-.98 3.6-1.1 4.45.66.69 1.42.06 3.2-.63 4.49-.68 1.25-.62 1.93-1.04 3.27-1.15 3-5.5 3.37-8.19 2.88a22.46 22.46 0 0 0 8.52 8.63c1.82 1.03 4.27 2.32 6.4 2.28 2.3-.03 4.54-.63 6.8-1.04 1.94-.35 4-.55 5.9.13a22.44 22.44 0 0 0 9.9-7.69c.96-1.33 3.12-4.04 2.3-5.56h-.02ZM680.49 119.06c1.22 1.49 3 2.31 4.92 2.34a45.38 45.38 0 0 1-5.9-7.68 7.32 7.32 0 0 0 .97 5.34c.18.22-.65-.95 0 0ZM693.45 132.56c.9 3.4.94 6.97 1.88 10.39a25.13 25.13 0 0 0 5.13 9.46 29.19 29.19 0 0 1-1.87-3.02c-.84-2.44-.5-5.22-.4-7.75.21-5.01-1.2-8.75-5.45-11.63.22.85.48 1.69.7 2.55.04.15-.21-.84 0 0h.01Z"/><path fill="url(#p)" d="M723.43 188.75s-11.86-5.83-13.06-5.7c-1.2.13-5.37 3.55-5.37 3.55s-.9-4.31-2.22-4.3c-1.32.02-6.03-1.76-6.03-1.76l-33.35.67.02 1.98-25.14 3.9.78 4.86 11.43.94 28.98-1.76 1.87-5.45.07 5.3 44.59.95.66-4.64-2.89-.12-.34 1.58Z"/><path fill="#661C2D" d="M723.45 189.83s-11.86-5.83-13.07-5.7c-1.2.14-5.36 3.55-5.36 3.55s-.9-4.31-2.22-4.3c-1.32.03-6.04-1.76-6.04-1.76l-32.95.05.03 1.98-25.55 4.52.78 4.86 11.43.94 28.99-1.76 1.87-5.45.07 5.3 44.58.95.66-4.64-2.88-.12-.34 1.58Z"/></g><g clip-path="url(#q)"><path fill="#F80" d="M793.6 146.6c-.82-1.67-1.5-3.49-1.33-5.4.1-1.17.89-1.3 1.58-.5-1.41-3.2-2.38-6.06-4.76-8.73-2.23-2.51-4.86-4.77-6.85-7.5.1 1.3.2 3.93-1.85 3.4-2.2-.54-3.77-3.05-5.1-4.7-2.38-2.92-4.08-6.24-5.64-9.66-.82-1.8-1.26-2.83-.8-4.75.5-2.07 1.1-4.13.95-6.28-.26-3.65-2.77-6.72-3.28-10.38-.5 1.99-2.88 8.71-5.47 4.6-1.05-1.87-.15-4.08-.1-6.06.05-1.72-.3-3.35-.98-4.94-1.29 1.64-2.74 3.3-3.3 5.35-.27 1.01.63 5.34 1.93 3.1-.02 2.4-.3 4.63-1.07 6.9-1.2 3.16-3.11 5.96-3.64 9.36-.46 2.95.2 6.04-.58 8.95 1.02 3.48.77 7.2-.2 10.67-2 7-5.04 13.32-5.35 20.73a55.79 55.79 0 0 0-.05 4.63c.06 1.36.4.75 1.59 1.21a3.26 3.26 0 0 1 1.88 2.48c.11 1 1.82.73 2.54 1.5-1.39 1.02-3.41 2.27-5.24 1.92a25.1 25.1 0 0 0 6.44 15.62c1.69 1.86 3.77 4.1 6.3 4.35 2.43.24 5 .98 7.1 2.24-.42-.3-.45-.27-.06.06.81.13 1.62.35 2.4.62 1.15.4 1.95.98 3.2.95a24.88 24.88 0 0 0 19.3-9.63c6.8-8.7 7-21.2.45-30.11 3.04 4.14-.59-1.2 0 0Z"/><path fill="#F80" d="M772.38 105.13c.38 2.66 1.88 4.95 3.64 6.93-.07-.84-.5-2.27.29-2.91.82-.66 2.16.18 2.9.61-.47-2.6-1.93-4.89-2.7-7.4-.2-.65-.84-4.09-1.37-4-.36.04-.49 3.02-.55 3.67-1.87-.91-2.49 1.8-2.22 3.1.03.22-.17-.83 0 0ZM764.1 85.56l.2.44c2.1-1.99 6.13-1.52 8.5-.38-.51-.98-1.72-3.06-2.17-4.94-.63-2.34-.16-6.59-3.1-7.54-3.03-1-3 3.76-2.22 5.45-1.27 2-2.16 4.66-1.2 6.98.06.16 0 0 0 0h-.01ZM760.85 84.09l.17.3c.47-2.09 2.39-4.6.25-6.5.2 2.16-1.55 3.98-.42 6.2.1.2-.1-.2 0 0ZM778.43 85.35c.3.19.62.35.96.47.39-2.18-.1-2.93-1.38-4.63-1.17 1.37-1.2 3.18.43 4.16.24.16-.52-.31 0 0h-.01Z"/><path fill="#FF0" d="M794.9 162.4c-.86-3.2-3.37-5.1-5.12-7.73-5.17 4.19-11.45 3.62-15.53-1.79-.94-1.23-.96-2.48-2.4-2.98a7.54 7.54 0 0 1-4.14-3.33c-1.34-2.68-1.38-5.5-1.1-8.43-1.05 1.35-2.82 2.87-4.67 2.46-2.89-.56-2.18-3.9-1.72-6.01 1.07-4.8 4.2-9.28 2.79-14.3-.48 2.23-3.6 6.14-5.37 2.49-.15 1.62-5.74 14.15-3.54 14.38 3.5.58 2.75 5.9 2.4 8.36-.49 3.35-3.1 5.86-4.23 9.09 1-.14 2.16.44 3.03.84.54.24 1.7-.64 2.31-.81 2.33-.65 4.93-.32 7.08.76-2.5.94-4.79 2.44-6.64 4.38-2.15 2.27-3.55 4.4-6.93 4.28a22.28 22.28 0 0 0 7.5 14.62c2.17 1.9 5.32 1.5 8.02 2.11 2.03.44 4.23.75 6.18 1.51 1.15.45 2.26 1.02 3.29 1.7a22.26 22.26 0 0 0 11.78-5.31c4.2-3.68 8.57-10.48 7-16.3.27.98-.12-.47 0 0Z"/><path fill="#FF0" d="M769.78 125.3c2.6 3.5 1.25 7.78 2.48 11.73 2.24-1.86 5.68-2.54 8.3-1.14a8.29 8.29 0 0 1-2.37-3.31c-.5-1.22-.42-2.35-1.29-3.3-2.57-2.78-3.73-6.68-7.08-8.76.46 1.48-.95 3.74-.04 4.78.04.06-.1-.11 0 0ZM783.47 136.52c.61 1.18.45 2.73.9 3.98a8.46 8.46 0 0 0 4.16 4.91c-.94-2.97-1.14-12.67-6.8-10.03.65.2 1.38.53 1.73 1.14h.01ZM765.18 112.42c.38.34.78.64 1.2.9-.81-2.17-2.5-5.1-1.96-7.47-2.08 1.9-1.08 4.93.76 6.57-.64-.58.65.58 0 0Z"/><path fill="url(#r)" d="M814.43 188.75s-11.86-5.83-13.06-5.7c-1.2.13-5.37 3.55-5.37 3.55s-.9-4.31-2.22-4.3c-1.32.02-6.03-1.76-6.03-1.76l-33.35.67.02 1.98-25.14 3.9.78 4.86 11.43.94 28.98-1.76 1.87-5.45.07 5.3 44.59.95.66-4.64-2.89-.12-.34 1.58Z"/><path fill="#661C2D" d="M814.45 189.83s-11.86-5.83-13.07-5.7c-1.2.14-5.36 3.55-5.36 3.55s-.9-4.31-2.22-4.3c-1.32.03-6.04-1.76-6.04-1.76l-32.95.05.03 1.98-25.55 4.52.78 4.86 11.43.94 28.99-1.76 1.87-5.45.07 5.3 44.58.95.66-4.64-2.88-.12-.34 1.58Z"/></g><g clip-path="url(#s)"><path fill="#F80" d="M889.06 157.23c-.1-2.35-.4-3.39-1.82-5.14-1.5-1.85-3.32-5.35-3.26-8.78-.88-1.6-1.76-3.2-2.55-4.84-1.85-3.84-3.72-8-4.47-12.21-.29-1.64-.5-3.76.61-5.16.58-.72.05-1.92-.17-2.77-.96-3.6-3.13-6.5-5.5-9.3-.6 1.99-3.72.74-4.85.06-.05 5.87 4.63 9.91 5.91 15.34-1.52-.05-2.59-1.75-3.62-2.67a28 28 0 0 0-4.51-3.14c-2.95-1.75-6.49-3.48-8.04-6.74-.07-.15-.25.01-.39.05-1.01.3-1.87-.27-2.42-1.1a10.41 10.41 0 0 1-1.44-4.92c-.25-3.8.27-8.16 2.55-11.32 2.31 2.2 5.49-1.86 5.48-4.02-.02-3.12-2.65-5.91-3-9.07 1.48-2.74 2.05-5.37 1.37-8.43-.74-3.3-2.58-6.25-3.25-9.58a24.18 24.18 0 0 0-1.32 14.65c.52 2.37 1.5 4.62 1.91 7.02.16.97.23 1.94.18 2.93-.88.66-1.92.45-2.76-.2-4.12-3.23-2.22-10.42-1.59-14.73.73-4.8-.1-9.63-1.67-14.16.18 2.16.26 4.25-.23 6.38-.53 2.31-1.21 4.54-1.32 6.92-.2 4.78.73 9.72-1.06 14.3-.73 1.87-1.95 3.34-3.02 5.01-.27 2.06.38 4.1.96 6.04.98 3.41 1.24 8.32-1.3 11.2a15.31 15.31 0 0 1 3.93 3.7c.7.13 1.4.34 1.92.86 1.04 1.01 1.14 2.7.97 4.05-.18 1.55.35 3.11.35 4.69-.01 6.34-3.6 12.66-6.15 18.27-.3-1.07-.59-2.15-.8-3.23a12.14 12.14 0 0 0-2.8 6.15 6.62 6.62 0 0 0 .52 3.6c.36.74-.33 2.16-.54 3.03a25.09 25.09 0 0 0-1.25 18.95c.92 2.72 2.31 5.27 4.1 7.52 2.14 2.7 5.32 2.87 8.3 4.36a6.54 6.54 0 0 1 2.7 2.27c.93 1.47.66 1.67 2.57 2.14 3.04.76 6.13.63 9.06.6 1.91-2.03 4.05-3.38 6.95-3.41.76.04 1.53.14 2.27.34a24.96 24.96 0 0 0 6.3-5.04 25.12 25.12 0 0 0 6.17-20.47h.02ZM862.33 62.83c0-.94-.41-1.92-.82-2.76a5.72 5.72 0 0 0 0 5.51c.4-.84.82-1.8.82-2.76Z"/><path fill="#FF0" d="M886.14 158.25c-.14-1-1.2-1.3-1.92-1.98-1-.93-1.85-2.01-2.7-3.08-1.42-1.8-2.77-3.69-4.45-5.25-2.18 6.34-9.48 1.06-11.23-2.76-2.53-5.52-1.94-12.12-5.14-17.38-1.56 3.26-5.4 6.77-8.01 2.27-2.12 6.75-6.62 12.69-6.52 20.02 4.12-2.17 8.07-8.7 13.46-6.03 5.1 2.53 3.94 10.95 5.47 15.48-4.53-1.67-8.28.38-12.44 2.08-2.11.87-4.57 1.66-6.79.66-1.96-.87-2.82-3.05-3.58-4.9-.64 3.38-.5 6.87.44 10.18 1.01 3.58 3.4 5.73 6.7 7.34 3.18 1.56 6.48 2.92 7.84 6.5.65 1.7.53 1.55 2.5 1.95 2.01.4 4.08.52 6.12.36 1.84-.14 1.67-.3 2.86-1.48a10.2 10.2 0 0 1 3.87-2.29 15.2 15.2 0 0 1 4.12-.8c1.67-.1 2.76-1.45 3.87-2.66a22.36 22.36 0 0 0 5.53-18.22v-.01ZM861.9 122.86c1.91 2.4 4.03 3.5 6.5 5.22-.01-4.5-3.57-6.69-7.68-6.8.38.54.78 1.06 1.17 1.57.68.85-.33-.43 0 0v.01ZM854.82 121.3c1.73-1.4 2.05-3.79-.3-4.73-.42 2.01-.7 2.79.3 4.72ZM850.54 100.47c.83-2.31.44-5.05 1.48-7.23-2.83 1.44-2.36 4.76-1.48 7.23Z"/><path fill="url(#t)" d="M905.43 188.75s-11.86-5.83-13.06-5.7c-1.2.13-5.37 3.55-5.37 3.55s-.9-4.31-2.22-4.3c-1.32.02-6.03-1.76-6.03-1.76l-33.35.67.02 1.98-25.14 3.9.78 4.86 11.43.94 28.98-1.76 1.87-5.45.07 5.3 44.59.95.66-4.64-2.89-.12-.34 1.58Z"/><path fill="#661C2D" d="M905.45 189.83s-11.86-5.83-13.07-5.7c-1.2.14-5.36 3.55-5.36 3.55s-.9-4.31-2.22-4.3c-1.32.03-6.04-1.76-6.04-1.76l-32.95.05.03 1.98-25.55 4.52.78 4.86 11.43.94 28.99-1.76 1.87-5.45.07 5.3 44.58.95.66-4.64-2.88-.12-.34 1.58Z"/></g><g clip-path="url(#u)"><path fill="#F80" d="M980.57 156.34c-.62-3.52-2.2-6.67-3.57-9.93a44.84 44.84 0 0 1-2.91-10.03c-.38-2.31-2.23-3.54-3.23-5.7-1.25-2.72-.89-5.9-2.22-8.44-1.56-3-3.83-5.65-6.2-8.05-1.17-1.2-2.39-2.37-3.6-3.55a146.7 146.7 0 0 1-1.72-1.71c-.88-.9-.88-1.3-1.16-2.52-1.39-6.11-6.43-11.06-5.4-17.77-4.08 1.92-5.35 7.02-5.58 11.13-.09 1.6.41 15.21-3.7 12.64-.31.86-1.18 3.51-2.47 2.31-1.31-1.14-1.47-2.8-1.32-4.44-1.76 4.28-3.73 8.13-2.87 12.91 6.67-2.4 5.12 7.68 3.94 11.16-1.94 5.67-5.75 10.68-6.63 16.7-.4 2.84-.86 5.86-.96 8.73a25.27 25.27 0 0 0 .82 7.36c.24.88.7.89 1.44 1.3.87.5 1.74 1.1 2.2 2.03.32.62 1.12.91 1.6 1.44a5.4 5.4 0 0 1 1.44 3.03c.17 1.29-.57 3.09.37 3.97a25.17 25.17 0 0 0 29.95 3.22 25.38 25.38 0 0 0 7.74-7.27c.19-1.47.54-2.87.95-4.29.4-1.17.88-2.3 1.52-3.36.39-.62 1.42-1.43 1.54-2.09a24.99 24.99 0 0 0 0-8.78h.03ZM941.42 66.65c.78-4.95 5.76-7.9 7.55-12.4 2.28-5.14-.4-11.67-2.84-16.25.27 9.86-6.6 18.53-4.71 28.65.03-.23-.06-.3 0 0ZM938.38 91.2c1.67 3.55 5.75.17 6.08-2.59.18-1.56-.15-3.17-.59-4.65-.16-.54-1.45-4.92-1.9-4.94-.64.78-1.25 1.54-1.76 2.42.49-3.26.26-6.32-1.73-9.08.78 2.67-.13 6.03-.47 8.71-.4 3.24-.92 7.05.37 10.14.18.37-.48-1.15 0 0ZM955.38 92.94c.23.43.56.8.96 1.07.2-2.08 3.19-2.44 4.72-1.62.35-4.65-7.31-3.82-5.68.55.06.12-.05-.12 0 0Z"/><path fill="#FF0" d="M977.76 158.03c-.1-.72-1.3-1.43-1.79-1.93a15.47 15.47 0 0 1-2.45-3.4c-1.32-2.44-2.05-5.12-2.75-7.77-1.38-5.17-2.68-10.48-6.67-14.3-.97 4.17-5.2 5.38-6.7 9.07-.72 1.76-.55 3.96-2.1 5.3-1.2 1.04-2.91 1.67-4.47 1.1-.23 3.55-2.24 5.87-5.92 5.98-3.8.11-5.27-2.75-5.18-6.19a22.29 22.29 0 0 0-6.2 15.4c0 2.27.82 2.98 2.79 4.11a9.88 9.88 0 0 1 4.99 8c.15 1.62.16 3.25.1 4.87a22.46 22.46 0 0 0 5.02 3.2 22.36 22.36 0 0 0 22.58-2.33c3.62-2.7 4.2-6.41 5.92-10.34a24.8 24.8 0 0 1 2.59-4.73c1.03-1.41.5-4.37.24-6.04-.01-.1.17 1.06 0 0ZM943.1 132.74c1.21-1.53 5.27-11.04 8.24-8.84.28-2.56-.02-5.3-1.6-7.43-.47-.62-1.78-.09-2.33.26-1.22.76-1.46 2.04-1.41 3.38.01.93 0 1.72-.57 2.55-.86 1.24-2.05.8-2.32 2.3-.49 2.74-.04 5.52-.46 8.26.16-.15.3-.3.44-.48-.05.07.1-.12 0 0ZM948.1 108.61c.38-1.03.48-2.15.26-3.23-.58 2.01-1.55 3.85-2.06 5.9a10.7 10.7 0 0 0 1.8-2.67c-.26.61.23-.62 0 0ZM952.68 108.96c1.52 3.73 5.78 5.22 7.3 8.92-.08-5.44-6.1-6.9-7.78-11.42 0 .86.15 1.7.48 2.5.57 1.4-.28-.7 0 0Z"/><path fill="url(#v)" d="M996.43 188.75s-11.86-5.83-13.06-5.7c-1.2.13-5.37 3.55-5.37 3.55s-.9-4.31-2.22-4.3c-1.32.02-6.03-1.76-6.03-1.76l-33.35.67.02 1.98-25.14 3.9.78 4.86 11.43.94 28.98-1.76 1.87-5.45.07 5.3 44.59.95.66-4.64-2.89-.12-.34 1.58Z"/><path fill="#661C2D" d="M996.45 189.83s-11.86-5.83-13.07-5.7c-1.2.14-5.36 3.55-5.36 3.55s-.9-4.31-2.22-4.3c-1.32.03-6.04-1.76-6.04-1.76l-32.95.05.03 1.98-25.55 4.52.78 4.86 11.43.94 28.99-1.76 1.87-5.45.07 5.3 44.58.95.66-4.64-2.88-.12-.34 1.58Z"/></g><g clip-path="url(#w)"><path fill="#F80" d="M1071.21 161.49a30.92 30.92 0 0 0-4.94-15.24c-.53-.81-1.03-1.63-1.55-2.45-.53-.94-.34-1.33-.23-2.4.11-.96.21-5.18-1.84-4.38a56.69 56.69 0 0 0-4.06-14.62c-1.07-2.1-2.41-3.84-3.62-5.83a20.78 20.78 0 0 1-1.74-3.65c-.44-1.19-.52-2.67-1.28-3.67-3.29-4.34-7.08-8.75-9.25-13.78-.92-2.14-.69-3.54-.25-5.74-1.48 2.43-2.6 5.06-2.48 7.96-2.67-2.11-2.8-7.2-1.39-10.03 1.73-3.1.02-8.7-.61-11.9-.92-4.63-1.59-9.07-1.33-13.81.23-4.12.82-8.21 1.23-12.31a61.7 61.7 0 0 0-4.51 30.64c.54 5.3 1.5 10.59 1.79 15.92.14 2.42.33 5.56-1.1 7.68-1.46 2.18-3.6 1.19-4-1.1-.58 2.62-2.13 4.97-2.42 7.66-.32 2.88-.08 6.15 1.27 8.77.67 1.28 2.31 1.97 2.16 3.32a84.4 84.4 0 0 1-.74 5.25c-.5 3.53-1.56 7.05-2.61 10.44-.94 3.17-2.01 6.3-3.07 9.41-.73 2.16-2.68 5.93-1.04 7.86.85 1 1.36 2.35 1.27 3.66-.09 1.28-.19 1.05.47 2.17 1.65 2.85-2.18 3.8-4.29 3.78a25.06 25.06 0 0 0 18.4 20.66c1.69.43 2.88.4 4.55.31 1.83-.1 3.45.51 5.28.26a24.95 24.95 0 0 0 14.37-7.27c.51-.53 3.26-3.13 2.96-3.84a4.33 4.33 0 0 1 .22-4.35c.67-1.01.07-2.07 1.04-3.06.88-.9 2.17-1.4 3.32-1.88.24-1.42.13-3.03.01-4.47-.13-2.05.09 1.02 0 0l.01.03Z"/><path fill="#F80" d="M1027.64 96.8c.73-1.7 1.99-3.07 2.22-4.98.2-1.7-.14-3.29-.69-4.89-.57 3.36-1.87 6.92-1.78 10.35l.25-.49c-.15.3.13-.3 0 0ZM1045.82 85.88l.17.27c.47-1.86.81-3.62 1.18-5.5-2.03 1.1-2.48 3.28-1.35 5.23.1.17-.11-.17 0 0ZM1035.78 38.03l.18.43c1.41-2.96 2.02-5.68-.2-8.46-.64 2.9-1.1 5.16.02 8.03.11.27-.11-.27 0 0Z"/><path fill="#FF0" d="M1067.78 160.28c-.16-1.92-3.67-3.3-5.19-4.18a13.82 13.82 0 0 1-4.62-4.38c.46 3.27.3 7.96-3.14 9.6-3.51 1.69-7.82-.1-10.63-2.34-1.23-.96-1.68-2.74-3.16-2.52-2.1.31-4.21-.08-6.12-.92-3.4-1.5-6.2-4.25-8.12-7.4-.71 1.62-1.5 3.2-2.11 4.87 3.81.17 6.05 2.47 7.07 6.12.27.96 1.12 3 .86 3.98-.62 2.44-3.7 2.94-5.77 3.23-.8.11-1.6.22-2.39.4-.99.22-.32 1.23-.07 2.03a22.55 22.55 0 0 0 11.09 13.2 22.5 22.5 0 0 0 5.17 1.9c1.94.44 3.8-.35 5.8-.06 1.29.2 2 .48 3.31.23a22.23 22.23 0 0 0 14.61-9.9 5.74 5.74 0 0 1-.81-2.97c.03-2 1.19-3.84 2.49-5.3.59-.66 1.7-1.27 1.76-2.17a22.99 22.99 0 0 0-.04-3.42h.01ZM1034.37 114.18c.26.84.6 1.65 1 2.44 1.89-3 2.39-5.36 1.77-8.86-2.11 1.66-3.35 3.7-2.77 6.42.09.27-.06-.27 0 0ZM1049.99 134.02c1.76 2.18 2.63 4.8 4.1 7.15.5.78 1.04 1.54 1.69 2.2.5.53 1.1 1.03 1.8 1.3-.62-.24 1.39.48 1.11.26-2.77-4.98-1.99-10.83-2.29-16.3-.24-4.58-1.75-8.49-5.1-11.7.4 1.53.72 3.2.49 4.79-.26 1.69-1.78 2.11-1.5 3.68.31 1.77.49 3.65.22 5.43-.19 1.2-1.2 2.3-.52 3.18.15.18-.06-.08 0 0v.01Z"/><path fill="url(#x)" d="M1087.43 188.75s-11.86-5.83-13.06-5.7c-1.2.13-5.37 3.55-5.37 3.55s-.9-4.31-2.22-4.3c-1.32.02-6.03-1.76-6.03-1.76l-33.35.67.02 1.98-25.14 3.9.78 4.86 11.42.94 28.99-1.76 1.87-5.45.07 5.3 44.59.95.66-4.64-2.89-.12-.34 1.58Z"/><path fill="#661C2D" d="M1087.45 189.83s-11.86-5.83-13.07-5.7c-1.2.14-5.36 3.55-5.36 3.55s-.9-4.31-2.22-4.3c-1.32.03-6.04-1.76-6.04-1.76l-32.95.05.03 1.98-25.55 4.52.78 4.86 11.43.94 28.99-1.76 1.87-5.45.07 5.3 44.58.95.66-4.64-2.88-.12-.34 1.58Z"/></g><defs><linearGradient id="b" x1="46.61" x2="44.69" y1="171.72" y2="197.82" gradientUnits="userSpaceOnUse"><stop stop-color="#E9A828"/><stop offset=".99" stop-color="#DA1405"/></linearGradient><linearGradient id="d" x1="137.61" x2="135.69" y1="171.72" y2="197.82" gradientUnits="userSpaceOnUse"><stop stop-color="#E9A828"/><stop offset=".99" stop-color="#DA1405"/></linearGradient><linearGradient id="f" x1="228.61" x2="226.69" y1="171.72" y2="197.82" gradientUnits="userSpaceOnUse"><stop stop-color="#E9A828"/><stop offset=".99" stop-color="#DA1405"/></linearGradient><linearGradient id="h" x1="319.61" x2="317.69" y1="171.72" y2="197.82" gradientUnits="userSpaceOnUse"><stop stop-color="#E9A828"/><stop offset=".99" stop-color="#DA1405"/></linearGradient><linearGradient id="j" x1="410.61" x2="408.69" y1="171.72" y2="197.82" gradientUnits="userSpaceOnUse"><stop stop-color="#E9A828"/><stop offset=".99" stop-color="#DA1405"/></linearGradient><linearGradient id="l" x1="501.61" x2="499.69" y1="171.72" y2="197.82" gradientUnits="userSpaceOnUse"><stop stop-color="#E9A828"/><stop offset=".99" stop-color="#DA1405"/></linearGradient><linearGradient id="n" x1="592.61" x2="590.69" y1="171.72" y2="197.82" gradientUnits="userSpaceOnUse"><stop stop-color="#E9A828"/><stop offset=".99" stop-color="#DA1405"/></linearGradient><linearGradient id="p" x1="683.61" x2="681.69" y1="171.72" y2="197.82" gradientUnits="userSpaceOnUse"><stop stop-color="#E9A828"/><stop offset=".99" stop-color="#DA1405"/></linearGradient><linearGradient id="r" x1="774.61" x2="772.69" y1="171.72" y2="197.82" gradientUnits="userSpaceOnUse"><stop stop-color="#E9A828"/><stop offset=".99" stop-color="#DA1405"/></linearGradient><linearGradient id="t" x1="865.61" x2="863.69" y1="171.72" y2="197.82" gradientUnits="userSpaceOnUse"><stop stop-color="#E9A828"/><stop offset=".99" stop-color="#DA1405"/></linearGradient><linearGradient id="v" x1="956.61" x2="954.69" y1="171.72" y2="197.82" gradientUnits="userSpaceOnUse"><stop stop-color="#E9A828"/><stop offset=".99" stop-color="#DA1405"/></linearGradient><linearGradient id="x" x1="1047.61" x2="1045.69" y1="171.72" y2="197.82" gradientUnits="userSpaceOnUse"><stop stop-color="#E9A828"/><stop offset=".99" stop-color="#DA1405"/></linearGradient><clipPath id="a"><path fill="#fff" d="M0 0h91v193H0z"/></clipPath><clipPath id="c"><path fill="#fff" d="M91 0h91v193H91z"/></clipPath><clipPath id="e"><path fill="#fff" d="M182 0h91v193h-91z"/></clipPath><clipPath id="g"><path fill="#fff" d="M273 0h91v193h-91z"/></clipPath><clipPath id="i"><path fill="#fff" d="M364 0h91v193h-91z"/></clipPath><clipPath id="k"><path fill="#fff" d="M455 0h91v193h-91z"/></clipPath><clipPath id="m"><path fill="#fff" d="M546 0h91v193h-91z"/></clipPath><clipPath id="o"><path fill="#fff" d="M637 0h91v193h-91z"/></clipPath><clipPath id="q"><path fill="#fff" d="M728 0h91v193h-91z"/></clipPath><clipPath id="s"><path fill="#fff" d="M819 0h91v193h-91z"/></clipPath><clipPath id="u"><path fill="#fff" d="M910 0h91v193h-91z"/></clipPath><clipPath id="w"><path fill="#fff" d="M1001 0h91v193h-91z"/></clipPath></defs></svg>