<svg xmlns="http://www.w3.org/2000/svg" width="472" height="306" fill="none"><path fill="#fff" d="M448.667 17.364c5.48 0 5.494-8.518 0-8.518s-5.494 8.518 0 8.518ZM463.712 60.328c5.48 0 5.494-8.518 0-8.518s-5.494 8.518 0 8.518ZM462.774 26.967c2.739 0 2.739-4.259 0-4.259-2.74 0-2.74 4.259 0 4.259ZM246.426 15.906h.952c1.107 0 2.186-.98 2.129-2.13-.057-1.15-.937-2.13-2.129-2.13h-.952c-1.107 0-2.186.98-2.129 2.13.057 1.15.937 2.13 2.129 2.13ZM246.426 298.451h.952c1.107 0 2.186-.979 2.129-2.129-.057-1.15-.937-2.13-2.129-2.13h-.952c-1.107 0-2.186.98-2.129 2.13.057 1.15.937 2.129 2.129 2.129ZM430.878 8.98h.951c1.107 0 2.186-.979 2.129-2.129-.057-1.15-.937-2.13-2.129-2.13h-.951c-1.108 0-2.187.98-2.13 2.13.057 1.15.937 2.13 2.13 2.13ZM430.878 294.327h.951c1.107 0 2.186-.979 2.129-2.129-.057-1.15-.937-2.13-2.129-2.13h-.951c-1.108 0-2.187.98-2.13 2.13.057 1.15.937 2.129 2.13 2.129ZM221.147 22.907c2.74 0 2.74-4.259 0-4.259s-2.74 4.26 0 4.26ZM221.147 305.453c2.74 0 2.74-4.259 0-4.259s-2.74 4.259 0 4.259ZM405.322 20.3c2.74 0 2.74-4.26 0-4.26-2.739 0-2.739 4.26 0 4.26ZM405.322 302.845c2.74 0 2.74-4.259 0-4.259-2.739 0-2.739 4.259 0 4.259ZM195.94 10.304c2.739 0 2.739-4.259 0-4.259-2.74 0-2.74 4.26 0 4.26ZM195.94 292.85c2.739 0 2.739-4.259 0-4.259-2.74 0-2.74 4.259 0 4.259ZM378.821 6.103c2.739 0 2.739-4.259 0-4.259-2.74 0-2.74 4.26 0 4.26ZM378.821 288.649c2.739 0 2.739-4.259 0-4.259-2.74 0-2.74 4.259 0 4.259ZM170.768 16.991c4.571 0 4.571-7.098 0-7.098s-4.571 7.098 0 7.098ZM170.768 299.537c4.571 0 4.571-7.098 0-7.098s-4.571 7.098 0 7.098ZM354.215 16.991c4.572 0 4.572-7.098 0-7.098-4.571 0-4.571 7.098 0 7.098ZM354.215 299.537c4.572 0 4.572-7.098 0-7.098-4.571 0-4.571 7.098 0 7.098ZM114.937 10.362h.951c1.86 0 3.634-1.633 3.549-3.55-.085-1.916-1.562-3.548-3.549-3.548h-.951c-1.86 0-3.634 1.632-3.549 3.549.085 1.916 1.561 3.549 3.549 3.549ZM114.937 292.908h.951c1.86 0 3.634-1.633 3.549-3.549-.085-1.917-1.562-3.549-3.549-3.549h-.951c-1.86 0-3.634 1.632-3.549 3.549.085 1.916 1.561 3.549 3.549 3.549ZM298.384 10.362h.951c1.86 0 3.634-1.633 3.549-3.55-.085-1.916-1.561-3.548-3.549-3.548h-.951c-1.86 0-3.634 1.632-3.549 3.549.085 1.916 1.562 3.549 3.549 3.549ZM298.384 292.908h.951c1.86 0 3.634-1.633 3.549-3.549-.085-1.917-1.561-3.549-3.549-3.549h-.951c-1.86 0-3.634 1.632-3.549 3.549.085 1.916 1.562 3.549 3.549 3.549ZM53.409 22.67c4.57 0 4.57-7.098 0-7.098-4.571 0-4.571 7.098 0 7.098ZM53.409 305.216c4.57 0 4.57-7.098 0-7.098-4.571 0-4.571 7.098 0 7.098ZM13.628 9.449h.951c1.86 0 3.634-1.633 3.55-3.549-.086-1.916-1.562-3.549-3.55-3.549h-.95c-1.86 0-3.635 1.633-3.55 3.549.085 1.916 1.562 3.549 3.55 3.549ZM17.413 88.01c4.57 0 4.57-7.098 0-7.098-4.571 0-4.571 7.098 0 7.098ZM6.683 137.128l.95-.951c1.32-1.32 1.406-3.719 0-5.025-1.419-1.306-3.62-1.406-5.025 0l-.95.951c-1.321 1.32-1.406 3.719 0 5.025 1.419 1.306 3.62 1.406 5.025 0ZM13.628 208.194h.951c1.86 0 3.634-1.633 3.55-3.549-.086-1.917-1.562-3.549-3.55-3.549h-.95c-1.86 0-3.635 1.632-3.55 3.549.085 1.916 1.562 3.549 3.55 3.549ZM10.557 272.785v-.951c0-1.859-1.633-3.634-3.549-3.549-1.916.086-3.549 1.562-3.549 3.549v.951c0 1.86 1.633 3.635 3.549 3.549 1.916-.085 3.549-1.561 3.549-3.549ZM25.692 297.402v-.951c0-1.86-1.633-3.635-3.55-3.549-1.916.085-3.548 1.561-3.548 3.549v.951c0 1.859 1.632 3.634 3.549 3.549 1.916-.085 3.549-1.562 3.549-3.549ZM444.786 305.678h.951c1.86 0 3.635-1.633 3.549-3.549-.085-1.917-1.561-3.549-3.549-3.549h-.951c-1.859 0-3.634 1.632-3.549 3.549.085 1.916 1.562 3.549 3.549 3.549ZM461.821 262.139h.952c1.859 0 3.634-1.633 3.549-3.549-.086-1.917-1.562-3.549-3.549-3.549h-.952c-1.859 0-3.634 1.632-3.549 3.549.086 1.916 1.562 3.549 3.549 3.549ZM470.96 204.985l-.951-.951c-1.32-1.32-3.719-1.405-5.025 0-1.306 1.42-1.405 3.62 0 5.025l.951.952c1.32 1.32 3.719 1.419 5.025 0 1.307-1.42 1.406-3.62 0-5.026ZM457.097 169.396h.951c1.86 0 3.634-1.633 3.549-3.549-.085-1.916-1.562-3.549-3.549-3.549h-.951c-1.86 0-3.634 1.633-3.549 3.549.085 1.916 1.561 3.549 3.549 3.549ZM472 120.42v-1.889c0-1.859-1.632-3.634-3.549-3.549-1.916.086-3.549 1.562-3.549 3.549v1.889c0 1.859 1.633 3.634 3.549 3.549 1.917-.086 3.549-1.562 3.549-3.549ZM458.983 92.496h.951c1.831 0 1.831-2.84 0-2.84h-.951c-1.831 0-1.831 2.84 0 2.84ZM453.301 137.696h.952c1.107 0 2.186-.979 2.129-2.129-.057-1.15-.937-2.13-2.129-2.13h-.952c-1.107 0-2.186.98-2.129 2.13.057 1.15.937 2.129 2.129 2.129ZM469.869 151.892c2.74 0 2.74-4.259 0-4.259s-2.74 4.259 0 4.259ZM457.094 229.261c2.74 0 2.74-4.259 0-4.259s-2.74 4.259 0 4.259ZM466.322 289.593c2.74 0 2.74-4.258 0-4.258-2.739 0-2.739 4.258 0 4.258ZM449.403 286.174c2.739 0 2.739-4.259 0-4.259-2.74 0-2.74 4.259 0 4.259ZM21.914 233.519c2.74 0 2.74-4.258 0-4.258s-2.74 4.258 0 4.258ZM7.01 245.586h.71c1.108 0 2.186-.979 2.13-2.129-.057-1.15-.937-2.13-2.13-2.13h-.71c-1.107 0-2.186.98-2.129 2.13.057 1.15.937 2.129 2.13 2.129ZM4.88 171.766h.71c1.107 0 2.186-.979 2.129-2.129-.057-1.15-.937-2.129-2.13-2.129h-.71c-1.107 0-2.186.979-2.129 2.129.057 1.15.937 2.129 2.13 2.129ZM17.654 146.924v.709c0 1.108.98 2.187 2.13 2.13 1.15-.057 2.13-.937 2.13-2.13v-.709c0-1.108-.98-2.187-2.13-2.13-1.15.057-2.13.937-2.13 2.13ZM9.14 104.336h-.71c-1.107 0-2.186.979-2.129 2.129.057 1.15.937 2.129 2.13 2.129h.71c1.107 0 2.185-.979 2.129-2.129-.057-1.15-.937-2.129-2.13-2.129ZM13.4 69.555h.709c1.107 0 2.186-.98 2.13-2.13-.057-1.149-.938-2.129-2.13-2.129h-.71c-1.107 0-2.186.98-2.13 2.13.057 1.15.938 2.13 2.13 2.13ZM11.266 31.226h.71c1.107 0 2.186-.98 2.13-2.13-.057-1.15-.937-2.129-2.13-2.129h-.71c-1.107 0-2.186.98-2.13 2.13.058 1.15.938 2.13 2.13 2.13ZM41.08 11.313h1.42c1.108 0 2.187-.98 2.13-2.13-.057-1.15-.937-2.129-2.13-2.129h-1.42c-1.106 0-2.185.98-2.129 2.13.057 1.15.937 2.129 2.13 2.129ZM41.08 293.859h1.42c1.108 0 2.187-.98 2.13-2.13-.057-1.149-.937-2.129-2.13-2.129h-1.42c-1.106 0-2.185.98-2.129 2.129.057 1.15.937 2.13 2.13 2.13ZM97.903 19.83c2.739 0 2.739-4.258 0-4.258-2.74 0-2.74 4.259 0 4.259ZM97.903 302.376c2.739 0 2.739-4.258 0-4.258-2.74 0-2.74 4.258 0 4.258ZM281.35 19.83c2.74 0 2.74-4.258 0-4.258s-2.74 4.259 0 4.259ZM281.35 302.376c2.74 0 2.74-4.258 0-4.258s-2.74 4.258 0 4.258ZM79.446 7.054h.71c1.107 0 2.186-.98 2.13-2.13-.058-1.15-.938-2.129-2.13-2.129h-.71c-1.107 0-2.186.98-2.13 2.13.057 1.15.938 2.13 2.13 2.13ZM79.446 289.6h.71c1.107 0 2.186-.98 2.13-2.129-.058-1.15-.938-2.13-2.13-2.13h-.71c-1.107 0-2.186.98-2.13 2.13.057 1.149.938 2.129 2.13 2.129ZM262.895 7.054h.71c1.107 0 2.186-.98 2.129-2.13-.056-1.15-.937-2.129-2.129-2.129h-.71c-1.107 0-2.186.98-2.129 2.13.057 1.15.937 2.13 2.129 2.13ZM262.895 289.6h.71c1.107 0 2.186-.98 2.129-2.129-.056-1.15-.937-2.13-2.129-2.13h-.71c-1.107 0-2.186.98-2.129 2.13.057 1.149.937 2.129 2.129 2.129ZM141.199 19.12v.71c0 1.108.98 2.187 2.13 2.13 1.15-.057 2.129-.937 2.129-2.13v-.71c0-1.107-.979-2.186-2.129-2.129-1.15.057-2.13.937-2.13 2.13ZM141.199 301.666v.71c0 1.107.98 2.186 2.13 2.13 1.15-.057 2.129-.937 2.129-2.13v-.71c0-1.107-.979-2.186-2.129-2.129-1.15.057-2.13.937-2.13 2.129ZM324.645 19.12v.71c0 1.108.979 2.187 2.129 2.13 1.15-.057 2.129-.937 2.129-2.13v-.71c0-1.107-.979-2.186-2.129-2.129-1.15.057-2.129.937-2.129 2.13ZM324.645 301.666v.71c0 1.107.979 2.186 2.129 2.13 1.15-.057 2.129-.937 2.129-2.13v-.71c0-1.107-.979-2.186-2.129-2.129-1.15.057-2.129.937-2.129 2.129ZM155.397 9.184c2.74 0 2.74-4.259 0-4.259s-2.74 4.259 0 4.259ZM155.397 291.729c2.74 0 2.74-4.259 0-4.259s-2.74 4.259 0 4.259ZM338.84 9.184c2.74 0 2.74-4.259 0-4.259s-2.74 4.259 0 4.259ZM338.84 291.729c2.74 0 2.74-4.259 0-4.259s-2.74 4.259 0 4.259ZM467.029 4.963c2.74 0 2.74-4.258 0-4.258-2.739 0-2.739 4.258 0 4.258Z"/></svg>